<svg version="1" xmlns="http://www.w3.org/2000/svg" width="1650.667" height="1650.667" viewBox="0 0 1238.000000 1238.000000"><path d="M944.8.5c-.2.1-3.9.5-8.3.9-4.4.3-10.9 1-14.5 1.6-3.6.5-12.7.6-20.5.2-29.5-1.4-97.2-.7-117 1.3-2.2.2-6.9.7-10.5 1-3.6.3-7.6.8-9 1-1.4.2-4.7.7-7.5 1-4.6.5-12 1.6-20.5 2.9-3.4.6-5.8 1-11 2.1-1.4.3-4.1.8-6 1.1-1.9.3-4.3.7-5.2 1-.9.3-2.5.6-3.5.9-6 1.2-28.1 7.1-36.2 9.7-22.5 7.2-48.3 18.8-65.3 29.4-7.1 4.4-15.3 9.8-15.8 10.4-.3.3-3.1 2.4-6.3 4.8-25.2 18.8-49.1 48.2-64.6 79.5-11.7 23.7-22.6 56.4-26.6 79.7-.3 1.9-1 5.3-1.5 7.5-.9 4.1-3.4 19.6-4.5 27.5-.3 2.5-.8 5.6-1 7-.2 1.4-.7 5.4-1 9-.3 3.6-.8 8.1-1 10-.3 1.9-.7 6.3-1 9.7-1.3 15.6-1.5 18.2-2 25-1.2 16.7-1.5 21.3-2 30.8-.3 5.5-.7 12.7-1 16-.3 3.3-.7 9.6-1 14-.8 11.4-1.5 19.4-2 24-.2 2.2-.7 7.1-1 11-3.3 34.9-11.6 67-22.6 87.3-8.2 15.3-24.7 33-30.9 33.3-1.4 0-3.6.2-5 .4-28.2 4.2-60.2 5-76.5 2-13.3-2.5-27.1-8.8-34.7-15.9-5.6-5.3-11.7-14.2-14.5-21.1-1.9-4.8-2-7-1.7-55 .1-27.5.5-59.7.8-71.5.3-11.8.8-32.1 1.1-45 .3-12.9.8-29.6 1-37 2.3-76.9 2.3-162.7 0-210-1.7-35.5-1.8-37-3.6-41.7-6.2-16.4-17.7-27.7-34.5-33.9-16.8-6.3-22.8-6.8-82.4-6.9-29.4-.1-54.6-.5-56-.9-6.1-1.8-18.2-1.9-24.6-.1C82.1 7.5 70 17.3 61 30.7c-4.4 6.4-11.9 21.6-16.4 33.1-3.3 8.3-11 33.4-12 38.7-.2 1.1-.9 3.8-1.4 6-.6 2.2-1.3 5.1-1.6 6.5-.2 1.4-1.4 6.9-2.5 12.3-2 9.4-6.5 35-7.6 42.9-.3 2.1-.7 5.3-.9 7-.3 1.8-1 7.3-1.6 12.3-.6 4.9-1.3 10.1-1.5 11.5-.2 1.4-.7 5.6-1.1 9.5-.3 3.8-.8 8.1-.9 9.5-.1 1.4-.6 5.9-.9 10-.4 4.1-.9 9.5-1.1 12-.4 4.3-.8 9.1-2 25.5-3 41.2-4 76.3-4 140.5 0 51.7.6 80.8 2 106 .2 3.6.4 9.2.6 12.5.5 13.2 13.1 40.7 25.7 56 4.8 6 13.9 15.1 18.7 19 2.8 2.2 5.2 4.3 5.5 4.6 1.5 1.7 14.3 9.6 22.3 13.8 17.3 9 46.2 18.4 66.7 21.6 2.5.4 5.4.9 6.5 1.1 2.7.5 8.6 1.4 13.1 1.9 2.2.3 5.5.7 7.4.9 10.5 1.4 22.2 2.3 39 3.2 12.8.6 71 .6 101.5-.2 54.2-1.3 89.4-.9 115 1.2 9.2.8 9.6.9 14.4 3.4 15.4 7.8 21.5 22.1 21.5 50.5 0 7.7-1.1 29.3-1.9 36.5-.2 1.9-.6 7.7-1 12.8-.3 5.1-.8 10-.9 11-.2.9-.7 6.4-1.1 12.2-.4 5.8-.9 12.1-1 14-.1 1.9-.6 8.9-.9 15.5-.4 6.6-1 14-1.2 16.5-1.1 11-1.8 120.6-1.2 195.5.2 18.8-.7 41.9-1.6 43.3-.2.4-.7 3.2-1.1 6.2-.9 7.2-4.9 18.9-8.8 25.9-6.4 11.4-18.5 21.1-34.8 27.7-6.9 2.8-21.8 6.9-29 7.9-2.4.3-5.1.8-5.9 1-1.4.4-8.8 1.3-15.5 2.1-19.1 2-83.8 2.7-110 1.1-19.6-1.2-49.6-.8-63 .8-16.5 2-19.1 2.4-29.8 5.1-23 5.8-35.9 15.6-37.1 28.1-.7 8.2 7.9 19.8 20.7 27.7 10.9 6.8 31.1 15.7 42.2 18.6 1.7.5 6.8 1.9 11.5 3.3 7.5 2.2 31.3 7.8 39.5 9.2 7.1 1.2 16.3 2.7 19.5 3.1 1.9.2 4.6.6 6 .9 1.4.3 4.8.8 7.5 1.1 2.8.3 6.1.7 7.5.9 1.4.2 5.4.6 9 1 3.6.3 7.9.8 9.5 1 1.7.2 7.1.7 12 1 5 .4 10.6.9 12.5 1 19.9 2 101.6 2.7 134 1.2 30.4-1.3 45.4-2.3 52-3.2 1.9-.3 5.5-.7 8-1 2.5-.2 7-.6 10-.9 8-.8 23-1.5 47.2-2.1 36-.9 52.1-1.5 57.3-2 15-1.3 18.8-1.7 27-3.1 20-3.3 39-10.2 51.2-18.5 10.9-7.5 21.5-20.4 27.3-33.3 9.2-20.6 11.5-40.3 10-85.1-.2-6.1 0-12.8.3-15 2.2-12.7 2.5-50.8 1.1-110-1.2-54.8-.8-113.7 1.1-134.5.2-2.5.7-8.1 1.1-12.5.3-4.4.7-9.1.9-10.5.2-1.4.6-5.4 1.1-9 1.4-12.8 2.4-19.8 3.9-27 .2-1.4.7-4.1 1-6 .3-1.9 1.7-8.2 3.1-14 1.4-5.8 2.7-11.4 3-12.5 2.3-11.1 13.1-37.9 20-49.5 6.6-10.9 6.6-10.9 14.5-13.6 22.9-7.7 48.4-9.9 91.9-7.8 10.2.5 30 .9 44 .9 22.7 0 28.9-.3 41.9-2 5.3-.7 22.9-5.5 29.6-8 3.3-1.3 10.5-3.8 16-5.5 28.8-9.3 55.2-22.5 79.2-39.7 47.3-33.8 86-84.8 109.1-143.6 5.5-13.7 9-23.5 9.6-26.2.2-.6 1.2-4.2 2.4-8 5-16.6 10.2-40.2 12.7-57.5.3-2.5.8-5.9 1.1-7.5.2-1.7.6-5 .8-7.5.3-2.5.8-8.1 1.2-12.5 1.6-16.2.9-67.9-1.1-79.5-.2-1.4-.7-5-1-8-.7-6.4-1.2-9.2-2.6-17.5-.6-3.3-1.3-7.4-1.6-9-2.4-15.2-11.7-46.4-20.2-67.8-17.2-43.2-48.2-86.4-80.1-111.7-3.6-2.9-7.4-5.9-8.5-6.9-3-2.5-18.3-12.5-23.5-15.4-26-14.3-52.9-24.2-77-28.1-6.1-1-16.3-2.5-21-3.2-4.6-.6-49.6-1.4-50.2-.9zM971 120.3c1.4.3 4.8.8 7.5 1.2 2.8.3 7 1.1 9.5 1.6 2.5.6 5.4 1.2 6.5 1.5 3.8.7 14.5 4.4 19.9 6.8 16.8 7.5 30.9 21 39.3 38.1 2.9 5.7 7 16.3 7.8 20.2 3.1 14.6 3.5 18.8 4 46.3.3 16.2.7 31.5.9 34 .2 2.5.7 10.1 1.1 17 .4 6.9.8 14.3 1 16.5 1.9 24.8 2.5 73.3 1.2 88.2-.9 10-3.4 26.8-4.7 32.8-.7 2.8-1.3 5.9-1.6 7-1.1 5.3-7 21.9-10.5 29.2-10.7 22.5-28.8 42.4-50.7 55.7-3.4 2-7.4 3.9-8.9 4.2-1.6.3-8.6 1.6-15.8 3-12.6 2.5-14.4 2.8-20.2 3.9-1.6.3-8.4 1.4-15.3 2.5-6.9 1.2-13.8 2.3-15.5 2.6-7.2 1.2-12.5 2-20.5 2.9-8.4 1-13.5 1.6-16 2.1-1.4.2-5.9.6-10 1-4.1.3-8.6.8-9.9 1-10.9 1.6-58.6 2.3-73.3 1-17.1-1.5-33.5-4.2-49-8-12.9-3.2-34.4-13.3-45.7-21.4-6-4.2-18.4-15.9-22.1-20.7-14.7-19.3-23.4-43.7-25.7-72.5-1.6-19.8-.5-42.1 3.2-65.2 1-6 1.2-12.6.8-21-1.2-23.5-.6-65.4 1.1-75.8.2-1.4.7-5.2 1.1-8.5.4-3.2.9-6.8 1.1-8 .2-1.1.7-3.6 1-5.5.3-1.9.7-4.3 1-5.2.3-.9.7-2.6.9-3.8.2-1.1 1.3-5.5 2.5-9.8 11.8-43.1 38.5-72.4 78-85.6 26.2-8.7 40.5-9.8 104.5-8.6 18.6.4 63.5-.7 64.3-1.5.6-.6 54.3.2 57.2.8z"/><path d="M847.6 238.6c-18.9 4.8-38 18.6-49.1 35.4-13 19.7-17.9 45.5-13.6 71.3 3.8 22.4 17.8 45.8 35.7 59.7 7.1 5.5 19.3 11.8 27.7 14.2 10.1 2.8 21.5 4.5 28.8 4.2 7.2-.3 8.1-.5 18.9-2.9 30.3-7 51.2-28 56.8-57 1.1-5.5 1.1-6 1.3-15.6.3-20.6-8.5-46.2-22-64.2-9-12-14.3-17.2-28.6-28.2-3.8-3-24.1-12.3-30.1-13.9-12.6-3.3-20.8-4.3-25.8-3zM189.5 802.7c-6.9.9-20.5 4.8-27.2 7.8-27.4 12.5-40.9 35.4-39.9 68 .8 27.1 12.9 54.6 33.3 76 19.5 20.5 45.5 32.4 70.4 32.5 6.9 0 8.3-.4 16.5-4.4 26.3-12.8 43.3-35.6 48.9-65.6 1.4-7.1 1.3-26.6-.1-34.4-8.2-46.9-45.5-80.4-89.4-80.3-5.2 0-10.8.2-12.5.4zM972.5 825.1c-19.3 2.6-39.8 15.1-52.2 31.6-1.5 2.1-3.1 4-3.5 4.4-.9.6-12.8 21.8-12.8 22.7 0 .4-.6 1.8-1.3 3.2-2 3.8-8.9 25.2-8.9 27.5 0 3.8 1.3 12.1 3.2 19.5 9 35.1 31.9 60.4 63 69.7 10.8 3.2 27.7 4 39.4 1.7 33.4-6.5 61.4-33.2 73.6-70.3 4.3-13 4.4-14.9 2-23.2-7.5-26.1-17.4-44.1-33-60-13-13.1-25.1-20.5-41.2-24.9-8-2.2-20.3-3-28.3-1.9z"/></svg>