<svg version="1" xmlns="http://www.w3.org/2000/svg" width="6878.667" height="6878.667" viewBox="0 0 5159.000000 5159.000000"><path d="M3995.7.6c-.1.1-9.4.5-20.7.9-11.3.3-23 .8-26 1-3 .2-10.4.7-16.5 1.1-6 .4-12.3.8-14 .9-1.6.2-7.1.6-12.2.9-5 .4-10.2.9-11.5 1.1-1.2.3-5.7.7-9.8 1-4.1.3-8.4.7-9.5.9-1.1.2-5.1.7-8.8 1.1-3.7.3-7.6.8-8.5 1-.9.1-4.8.6-8.5 1-3.7.3-7.7.8-8.9 1-1.1.3-4.6.7-7.7 1-3.1.4-6.3.8-7.1 1-7.5 2-20.1 2.3-39.5 1.1-6-.4-14.8-.8-19.5-1.1-4.7-.2-14.3-.6-21.5-1-32.2-1.5-29.2-1.4-74-3-87.7-3.1-219-2.2-298 2-4.4.3-13.2.7-19.5 1-6.3.2-14.6.7-18.5 1-3.8.3-10.4.7-14.5 1-7.8.4-18.4 1.2-28.5 2-3.3.3-9.1.7-13 1-3.8.2-9.9.7-13.5 1.1-3.6.4-8.1.8-10 .9-4.3.3-17.3 1.5-22 2-1.9.2-6.4.7-10 1-3.6.3-8.1.8-10 1-12.9 1.3-16.7 1.8-18 2-.8.1-4.9.6-9 1s-8.2.9-9 1c-.8.2-4.4.6-8 1-3.6.4-7.4.9-8.4 1.1-1.1.2-4.7.6-8 .9-3.4.3-6.8.7-7.6 1-.8.2-3.7.6-6.5 1-2.7.3-6.4.8-8.1 1.1-1.7.3-4.6.7-6.5.9-5.1.7-10.6 1.4-17.9 2.6-3.6.5-7.8 1.1-9.5 1.4-3.5.4-14.9 2.3-18.5 3-1.3.2-4.2.7-6.5 1-2.2.3-6.2 1-9 1.5-2.7.5-6.6 1.2-8.5 1.5-1.9.3-6.2 1.1-9.5 1.7-3.3.6-6.9 1.2-8 1.3-1.9.3-5.1.9-10.5 2-1.4.3-9.7 1.9-18.5 3.6-8.8 1.7-22.1 4.4-29.5 6.1-7.4 1.6-14.4 3.1-15.5 3.4-46.4 9-143.2 36.6-196.5 56.1-17.9 6.5-41.5 15.4-43.5 16.3-1.1.5-7.2 3-13.5 5.5s-13.4 5.5-15.7 6.5c-2.4 1.1-4.5 2-4.8 2-.2 0-2.8 1.1-5.7 2.4-2.9 1.3-9.8 4.4-15.3 6.9-30.9 13.9-66.2 31.7-92 46.2-2.7 1.6-5.9 3.3-7 3.9-1.1.6-11.3 6.6-22.5 13.4-25.3 15.3-39 24.2-66.5 43.3-28.2 19.7-62.6 47.6-95.5 77.4-8.6 7.8-47.7 47.1-55 55.4-4.1 4.6-8.4 9.3-9.5 10.5-5.3 5.5-29.3 34.6-38.9 47.1-5.9 7.7-11.3 14.7-11.9 15.5-6.1 7.5-29.6 42.1-44.3 65-5 7.9-13.4 22.4-13.4 23.2 0 .4-.4.8-1 .8-.5 0-1 .4-1 .9s-2.2 4.7-4.8 9.3c-2.6 4.6-5.1 9-5.5 9.8-.4.8-1.9 3.5-3.3 6-9.2 16-31.3 61.3-42.1 86.5-3.6 8.2-7.1 16.3-7.8 18-2 4.6-6.6 15.9-6.9 17-.2.5-.9 2.3-1.5 4-8.7 20.9-33.4 93.5-38.6 113.5-.2.8-2.3 8-4.5 16-3.8 13.3-8.4 30.6-9.5 35.5-.2 1.1-.9 4-1.6 6.5-.6 2.5-1.3 5.6-1.5 6.9-.3 1.4-.7 2.8-.9 3.1-.2.4-1.3 4.7-2.4 9.6-1.2 4.9-3.6 15.6-5.5 23.9-1.9 8.2-3.6 16.3-3.9 18-.3 1.6-1.7 8.6-3.2 15.5-1.4 6.9-2.8 13.8-3.1 15.5-.2 1.6-1.1 6.1-1.9 10-1.6 7.8-2.5 12.7-3 16.5-.2 1.4-1.3 7.8-2.5 14.2-1.1 6.4-2.3 12.9-2.5 14.5-.3 2.9-1.2 7.9-2 12.3-.6 3.2-1.2 7.3-2 13-.3 2.5-.8 5.2-1 6-.2.8-.7 4-1 7-.3 3-.8 6.2-1 7-.2.8-.6 3.7-1 6.5-.6 5-1.3 9.7-2 14.5-.4 2.1-3.9 28.9-5 37-.2 1.4-.6 5.4-1 9-.4 3.6-.8 7.6-1 9-.2 1.4-.7 5.4-1 9-.4 3.6-.9 7.2-1 8-.3 1.5-1.4 12.1-2 19-.2 1.9-.6 5.5-.9 8-.3 2.5-.8 7.1-1.1 10.2-.3 3.2-.7 8.4-1 11.5-.3 3.2-.8 7.8-1.1 10.2-.3 2.4-.7 6.7-.9 9.5-.7 8-1.5 17.7-2 22.6-.4 4-.7 7.4-2 23-.2 2.5-.6 8.1-.9 12.5-.4 4.4-.8 10-1.1 12.5-.2 2.5-.7 8.5-1 13.5-.4 4.9-.8 11.2-1 14-.2 2.7-.6 8.6-1 13-.3 4.4-.7 10.7-1 14-.3 3.3-.7 9.6-1 14-.4 7.6-.7 11.2-2 31.5-.3 4.7-.8 11.4-1 15-.3 3.6-.7 10.3-1 15-.4 7.9-.6 11.9-2 32.5-.6 9.3-1.3 21.7-2 33-.2 4.4-.7 11.1-.9 15-.3 3.8-.8 11.3-1.1 16.5-.3 5.2-.8 12.2-1 15.5-.3 3.3-.7 10.3-1 15.5-.3 5.2-.7 12.2-1 15.5-.3 3.3-.7 9.8-1 14.5-.3 4.7-.8 11.4-1 15-.3 3.6-.7 9.2-1 12.5-.2 3.3-.6 9-.9 12.5-.3 3.6-.8 9.9-1.1 14-.7 8.3-1.2 14.5-2 23.5-.3 3.3-.7 8.9-1 12.5-.7 9.3-1.5 18-2 22-.2 1.9-.7 6.6-1 10.5-1.1 12.4-1.3 13.9-1.9 19-.3 2.7-.8 7.5-1.1 10.5-.3 3-.8 7.1-1 9-.2 1.9-.7 6-1 9-.7 6.4-1.3 11.5-2 16.7-.3 2.1-.7 5.8-1 8.3-.4 4.6-.8 7.4-2.5 19-1.4 9.5-1.9 13.6-2.5 18.3-.3 2.3-.8 5.3-1 6.7-.3 1.4-.8 4.3-1.1 6.5-.2 2.2-.9 6.5-1.4 9.5-.5 3-1.2 7.2-1.6 9.4-.3 2.1-.8 4.8-1 6-.2 1.1-.9 4.8-1.4 8.1-1.6 9.7-8.7 45.1-11.5 57-1.4 6-2.8 12.1-3.1 13.5-.3 1.4-1 4.3-1.6 6.5-.5 2.2-1.1 4.7-1.3 5.5l-2 8c-.9 3.6-1.9 7.2-2.1 8-3.1 13.4-16.3 54-23.9 74-11.2 29.4-27 62.3-41.2 85.5-.7 1.1-1.5 2.7-1.9 3.5-2 4.1-25.8 38.5-28.4 41-.3.3-3.9 4.5-7.9 9.5-8.2 9.8-30.9 32.9-40.9 41.6-7.7 6.5-30.4 23.8-31.2 23.6-.6-.1-14.4 1.3-17.3 1.8-.9.2-5 .6-9 1-3.9.3-7.9.8-8.7 1-.8.2-4.4.7-8 1-8.2.8-13.5 1.4-16.9 1.9-1.4.3-5.5.7-9.1 1.1-3.6.4-7.6.8-9 1-1.4.2-5.4.6-9 .9-3.6.3-7.4.8-8.5 1-1.1.2-5.6.7-10.1 1-4.4.4-9.2.8-10.5 1.1-1.3.2-6 .6-10.4 1-4.4.3-9.8.8-12 1-6.8.7-15.6 1.4-25.5 2-5.2.4-12.2.8-15.5 1-33.4 2.3-91.9 2.3-115 0-2.2-.2-7.1-.6-11-.9-3.8-.4-8.6-.9-10.5-1.1-1.9-.3-5.7-.7-8.5-1-5.9-.7-7-.9-19.5-3-5.2-1-10.8-1.9-12.5-2.2-1.6-.2-4.8-.9-7-1.5-2.2-.5-4.8-1.2-5.9-1.4-6.8-1.3-23.4-6.1-34.5-9.9-40.2-14-70.1-32.3-97.1-59.4-23.1-23.2-41.3-51.8-54.7-85.9-4.5-11.4-4.6-12.1-5-24.7-.8-22.3-.7-231.1.1-290.5 1-76.4 2-133.6 3.1-183 1.2-49.7 1.6-66.8 2-86 .3-11.3.7-30 1-41.5.3-11.6.7-29.3 1-39.5.7-24.7 1.4-51.2 2-75.5.3-11 .7-27.2 1-36 .3-8.8.7-26.4 1-39 .3-12.7.7-29.5 1-37.5.4-13.3 1.2-46.2 2-82 .7-29.9 1.6-69.1 2-86 2.4-94.9 3.8-222.7 3.8-336 0-141.8-1.4-224.7-5.8-342.5-.2-5.5-.6-17.9-1-27.5-.3-9.6-.8-19.5-1-22-.3-2.5-.7-11.9-1.1-21-.3-9.1-.7-18.3-.9-20.5-.4-6.2-1.6-28.2-2-36-.9-17.3-1.5-28.4-2-33.5-.2-3-.7-9.8-1-15-.4-5.2-.8-11.5-1-14-.7-8.7-11.3-36.7-20.3-54-10.9-20.6-22.7-36.6-39.7-53.6-11.9-11.9-30.6-27.4-33.1-27.4-.3 0-1.4-.8-2.5-1.8-1-1.1-3.2-2.5-4.7-3.3-1.5-.7-3.8-2.1-5.2-3-9.2-6-33.2-17.2-50.2-23.2-9.9-3.6-28.6-9.3-32.8-10-1.4-.3-5.2-1.2-8.5-2-5.6-1.5-17.2-4-24-5.2-1.6-.2-4.1-.7-5.5-1-1.3-.2-4.2-.7-6.5-1-2.2-.3-5.1-.8-6.5-1-1.4-.2-4.5-.7-7-1-2.5-.4-5.6-.8-7-1-1.4-.2-5.6-.7-9.5-1-3.8-.3-7.7-.8-8.5-1-.8-.2-5.5-.7-10.5-1-4.9-.4-10.6-.8-12.5-1-14.9-1.4-40.5-1.9-89.5-1.9-49.7 0-72.4.3-117 1.9-69.7 2.5-160.3 2.6-182.5.1-1.9-.3-7.9-.7-13.3-1.1-5.3-.3-10.7-.8-12-1.1-1.2-.2-5-.6-8.5-.9-3.4-.2-7.2-.7-8.5-.9-1.2-.3-4.4-.8-7.2-1.1-2.7-.3-5.9-.8-7-1-1.1-.3-3.6-.7-5.5-1-1.9-.2-4.4-.6-5.5-.9-13.5-2.8-37.2-4-50-2.5-10 1.1-14.5 1.8-16.4 2.3-.9.3-3.2.8-5.1 1.1-15.3 2.5-41.5 13.8-59 25.3-20.5 13.5-43.3 34.6-60.6 56.1-1 1.3-2.3 2.8-2.9 3.5-.5.6-3 3.8-5.4 7.1-2.5 3.3-5.7 7.7-7.3 9.7-1.5 2-2.8 4-2.8 4.3 0 .4-.6 1.2-1.3 2-.7.7-4.6 6.6-8.7 13.1-4 6.6-8.1 13.1-9.2 14.6-1 1.5-2.3 3.8-2.9 5-.5 1.3-2.8 5.4-5 9.3-10.1 17.7-26.2 51.5-36.6 77-8.4 20.7-27.5 72.5-28.8 78.5-.2.8-1.9 6.4-3.8 12.5-6.9 21.6-9.7 31.3-16.1 54-5.5 19.9-7.2 26.3-8.2 31-.1.5-.9 3.5-1.8 6.5-.8 3-1.7 6.6-2 8-.3 1.4-1.2 5.2-2 8.5-3.5 13.6-9.8 40.8-11.2 47.8-.2 1-.5 2.6-.8 3.5-.3.9-.7 2.8-1 4.2-.2 1.4-1.1 5.7-2 9.5-1.8 8.5-1.6 7.6-6.1 30-2 9.9-3.9 19.3-4.2 21-.2 1.6-.8 4.6-1.3 6.5-.5 1.9-1.2 5.5-1.5 8-.3 2.5-.8 5.2-1 6-.2.8-.7 2.8-1 4.5-.2 1.6-.7 4.1-1 5.5-.3 1.4-.8 4.1-1.1 6-.2 1.9-.7 4.6-.9 6-.3 1.4-.8 4-1.1 5.9-.3 1.8-.8 4.3-1 5.5-.5 2.9-2.2 12.4-2.9 16.3-.3 1.8-.7 4.5-1 6-.2 1.6-1.4 8.6-2.5 15.8-2.3 14-2.8 17-3.5 21.2-1 6.5-1.4 9-2 13.3-.3 2.5-.8 5.8-1.1 7.5-.3 1.6-.7 4.1-.9 5.5-.8 6.5-2.3 16.3-3 20-.2 1.4-.7 4.9-1 7.9-.4 3-.8 6.1-1 7-.1.9-.6 4.5-1.1 8.1-.4 3.6-.8 6.7-.9 7-.1.3-.5 3-.9 6s-.9 6.6-1.1 8c-.3 1.4-.7 5-1 8-.3 3-.7 6.6-1 8-.2 1.4-.7 5-1 8-.4 3-.9 6.2-1 7-.2.8-.6 4.2-.9 7.5-.4 3.3-.9 7.8-1.2 10-1 7.9-1.3 11.1-2 17-.3 3.3-.8 6.9-1 8-.2 1.1-.7 4.9-1 8.5-.3 3.6-.7 7.6-.9 9-.2 1.4-.7 5.2-1 8.5-.4 3.3-.8 7.1-1 8.5-.2 1.4-.7 5.8-1 9.9-.4 4.1-.8 8.2-1 9-.1.9-.6 5-.9 9.1-.4 4.1-.9 9.1-1.2 11l-.9 9c-.3 3-.7 7.5-.9 10-.3 2.5-.8 7.6-1.1 11.5-.3 3.8-.8 8.8-1.1 10.9-.3 2.2-.7 6.2-1 9-.5 7.5-1.4 17.4-1.9 23.1-1.2 13.5-1.6 17.4-2 22.5-.3 3-.7 8-1 11-.3 3-.7 8.9-1 13-.3 4.1-.7 9.7-1 12.5-.2 2.7-.7 8.6-1 13-.3 4.4-.8 10.2-1 13-.3 2.7-.7 8.8-1 13.5-.3 4.7-.8 11-1 14-.2 3-.7 9.5-1 14.5-.3 4.9-.8 11.7-1 15-.2 3.3-.7 10-1 15-.3 4.9-.8 11.7-1 15-.2 3.3-.7 10.9-1 17-.3 6-.8 13.7-1 17-.3 3.3-.7 11.6-1 18.5-.3 6.9-.8 15.4-1 19-.6 9.3-1.4 24.4-2 39.5-.3 7.1-.8 16.6-1 21-.5 9.3-1.3 27.1-2 47-.3 7.7-.7 18.9-1 25-.4 10.2-1.3 35.4-2 62-.3 9.9-.8 30.1-2 80-2.5 100.5-2.5 288.2 0 408 1.1 51.7 3.2 120.8 5 164.5.3 6.3.7 17.6 1 25 .3 7.4.7 17.5 1 22.5.3 4.9.7 13.3 1 18.5.3 5.2.7 14.2 1 20 .2 5.8.7 14.3 1 19 .2 4.7.7 13 1 18.5 1.4 25.8 1.3 25.4 6.9 42.5 24.5 75.5 59.6 140.2 107.3 198 12.6 15.2 46 49.7 57.8 59.8 3.3 2.8 7.1 6.1 8.5 7.3 26.9 23.5 66.7 50.8 106.2 72.7 14.1 7.9 67 33.2 69.3 33.2.4 0 2.6.9 5 2 10.4 4.7 34.5 13.7 58 21.5 14.7 5 47 14.9 51.9 16 1.2.3 11.7 2.9 23.5 5.9 11.7 3 22.7 5.7 24.5 6 1.7.3 5.6 1.2 8.6 2s12.5 2.8 21.1 4.5c8.5 1.7 16.6 3.4 18 3.6 1.3.3 3.9.8 5.8 1.1 1.8.3 4.3.8 5.5 1 1.1.2 3.5.6 5.1.9 1.7.3 5.3 1 8 1.5 2.8.5 6.4 1.1 8 1.3 1.7.3 4.6.8 6.5 1.1 7.4 1.3 9.7 1.7 16.5 2.6 3.9.6 8.1 1.2 9.5 1.5 1.4.2 5 .7 8 1.1 3 .4 5.7.8 6 .9.3.1 3.4.5 7 .9 3.6.5 7.2 1 8 1.1.8.2 4.4.6 8 1 3.6.4 7.2.8 8 1 .8.1 4.7.6 8.5.9 3.9.4 8.1.9 9.5 1.1 1.4.2 5.2.6 8.5 1 3.3.3 7.9.8 10.3 1 9.6 1.1 13 1.4 19.7 2 3.9.3 9.3.8 12 1 8.6.8 15.7 1.4 24 2 11.3.7 19.8 1.3 28.5 2 4.1.3 12 .8 17.5 1 5.5.3 13.6.8 17.9 1 17.7 1 42.2 2 80.6 3.2 32.5 1 210.2 1 257.5 0 19.8-.5 43.9-1 53.5-1.2 9.6-.2 28.3-.6 41.5-.9 13.2-.3 34.6-.8 47.5-1.1 12.9-.3 32.3-.8 43-1 124-2.7 251.9-2.3 313.5 1 5.5.3 14.5.8 20 1.1 15.1.7 37.2 2.2 45.5 2.9 3 .3 8.9.8 13 1 4.1.3 8.9.7 10.5 1 1.7.2 6.6.7 11 1 4.4.3 9.1.8 10.4 1 1.4.3 5.4.7 9 1.1 4.9.4 9.2 1.8 17 5.5 8.9 4.2 25.3 13.4 28.6 16 .5.5 4.6 3.8 9.1 7.3 31.8 25.3 51.5 66.3 57.9 121.1.3 2.7.7 6.6 1 8.5 2.3 18.5 3.3 67.9 2.1 97.5-.6 14.3-1.7 36.5-2.1 42-.2 2.7-.6 9.7-.9 15.5-.4 5.8-.8 12.1-1.1 14-.2 1.9-.7 8-1 13.5-.4 5.5-.8 12-1 14.5-.2 2.5-.6 8.1-1 12.5-.3 4.4-.8 9.8-1 12-.2 2.2-.7 8-1 13-.4 4.9-.8 10.5-1 12.4-.3 1.8-.7 7.2-1 12-.4 4.7-.8 9.7-1 11.1-.2 1.4-.7 6.3-1 11-1.2 15.2-1.4 18.4-2 24-.3 3-.7 8.6-1 12.5-.3 3.8-.7 9-1 11.5-.2 2.5-.7 7.6-1 11.5-.8 10.4-1.5 19.4-2 25-.2 2.7-.7 8.6-1 13-.3 4.4-.8 10.5-1 13.5-.3 3-.7 8.6-1 12.5-.3 3.8-.7 9.7-1 13-1.3 17.7-2.1 28.5-3.1 43.5-.3 5.8-.7 12.3-.9 14.5-.1 2.2-.6 8.9-.9 15-.4 6-.9 13.7-1.1 17-.3 3.3-.7 10.5-1 16-.3 5.5-.7 13.6-1 18-.7 13.8-1.5 29.5-2.1 42-1.2 27.4-1.3 31.8-1.9 48.5-.3 9.6-.7 22.2-1 28-1.7 38.7-2.3 159-1.4 263 .2 20.6.1 44.2-.3 52.5-3.1 61.9-2.8 165.5.8 328 1.4 65.9.9 152.9-1.1 186.5-.9 14.7-1.6 24.6-2 28.5-.2 2.2-.6 6.7-1 10-.9 9.3-2.2 20.5-3 24.5-.2 1.4-.7 4.5-1 7-.3 2.5-.7 5.6-1 7-.3 1.4-.7 4.1-1 6-.4 2.9-1.8 10.2-4.9 25.4-.5 2.1-6.5 23.9-9 32.6-4 13.8-20.1 49.5-26.4 58.7-1.1 1.5-3.5 5.3-5.5 8.3-10.6 16.7-31.5 39.6-48.2 53-8.4 6.8-25.4 18.7-32 22.4-1.6.9-4.3 2.5-6 3.5-17.3 10.4-47.3 23.4-75.3 32.7-8.8 2.9-35.2 10.7-40.2 11.9-4.6 1.1-11.7 2.7-13 3-9.9 2.4-41.2 8.8-48.5 9.9-2.2.4-6.5 1.1-9.5 1.6-8.5 1.5-11.2 1.9-15.5 2.4-2.2.3-4.9.8-6 1-1.1.2-4.9.7-8.5 1.1-3.6.4-6.7.8-7 1-.3.1-3.6.6-7.3 1-3.7.3-7.8.8-8.9 1-1.2.3-4.6.7-7.7 1-3.1.3-7.6.8-10.1 1-7.8.9-12.3 1.4-20.5 2-4.4.4-9.1.8-10.5 1-1.4.2-7 .7-12.5 1-5.5.4-11.8.9-14 1.1-16.2 1.6-61.3 3.7-108 5-55.3 1.6-209.8.3-238.5-2.1-14.9-1.2-33-2.2-69-4-53.3-2.6-143.8-2.6-191 0-13.3.8-24.4 1.5-30.5 2-3.3.3-8.9.7-12.5 1-10.4.8-18.3 1.6-21 2-1.4.2-5.2.7-8.5 1-3.3.2-7.6.7-9.5 1-1.9.2-5.5.7-8 1-2.5.3-6.3.8-8.5 1.1-2.2.3-5.1.7-6.5.9-3.7.5-11.2 1.7-13.5 2.1-1.1.2-4 .7-6.5 1-6.2.8-8.7 1.2-10.8 1.8-.9.3-3.3.7-5.2 1-4.1.6-19.8 3.8-29 6-3.6.8-7.6 1.7-9 2-13.2 2.6-50.8 14.6-66.7 21.2-27 11.1-49.6 25-64.7 39.8-14.8 14.4-22.6 26.8-26.7 42.6-2.1 8.2-2.9 22.2-1.6 29 .4 1.9.9 4.8 1.2 6.4 1.8 9 8 22.8 14.9 33.1 9.1 13.5 26.1 31.4 39.5 41.5 1.8 1.4 3.8 3 4.4 3.5 3.1 2.7 19.2 13.9 28 19.5 19.2 12 50.8 28.5 72.1 37.7 4.4 1.9 9.4 4 11 4.7 12.2 5.5 14.6 6.4 14.6 6 0-.2 1.2.2 2.7 1 5.3 2.7 35.4 13.7 58.8 21.5 26.7 8.9 73.4 22.6 83.8 24.6 1 .2 3.2.8 5 1.4 4.9 1.5 14.1 3.8 26 6.6 5.9 1.4 15.5 3.6 21.5 5 5.9 1.4 13.7 3.2 17.5 4 3.7.8 9.7 2.2 13.5 3 8.9 2 35 7.3 39.3 8 1.9.3 6.6 1.2 10.4 2 8.1 1.6 18.4 3.4 22.3 4 1.5.2 5 .8 7.7 1.4 2.8.6 6.4 1.2 8 1.5 1.7.2 7.5 1.2 13 2.1 5.5.9 11.1 1.8 12.5 2 1.4.2 4.1.7 6 1 1.9.4 5.1.8 7 1.1 1.9.2 7.3 1 12 1.8s11 1.7 14 2.1c3 .4 6.4.9 7.5 1.1 1 .2 3.5.6 5.5.8 8.8 1.3 20.9 2.8 24.5 3.2 2.2.3 6.5.9 9.5 1.4 3 .5 8.4 1.2 12 1.6 3.6.3 7.2.7 8.1.9.8.2 4 .6 7 .9 3 .3 7.2.8 9.4 1.1 2.2.2 6.3.7 9 1 2.8.4 6.6.8 8.5 1.1 4.2.5 11.4 1.2 19.5 2 3.3.3 7.1.7 8.5.9 1.4.2 6.1.7 10.5 1.1 4.4.3 8.7.8 9.6.9.9.2 5.6.6 10.5 1 4.9.3 10 .8 11.4 1 2.3.3 8.8.9 22 2 3 .2 8 .7 11 .9 3 .3 8.7.8 12.5 1.1 3.9.3 9.3.8 12 1 2.8.2 9.5.7 15 1 5.4.3 12.2.8 15 1 2.7.2 9.1.6 14 .9 5 .3 12.8.8 17.5 1.1 10 .7 22.7 1.4 36 2 5.2.2 14.7.7 21 1 24.8 1.2 36.4 1.7 78.5 3 72.6 2.4 221 2.4 298 0 6.6-.2 21.9-.6 34-1 12.1-.3 25.4-.8 29.5-1 4.1-.2 14.9-.6 24-1 9.1-.3 20.8-.8 26-1.1 5.2-.2 14-.7 19.5-.9 23.8-1.1 32.4-1.5 39.5-2 4.1-.3 11.6-.7 16.5-1 17.3-.9 28.1-1.6 35-2 3.9-.2 10.8-.7 15.5-1 37-2.3 49-3.2 57.5-4.5 9.6-1.4 17.3-2.4 27.5-3.5 3-.3 7.1-.8 9-1 3.8-.4 12.5-1.4 18-2 1.9-.2 6.9-.7 11-1 4.1-.3 9.1-.8 11-1 1.9-.2 7.3-.7 12-1 4.7-.4 10.5-.8 13-1 46.9-3.7 106.7-6 204-8 61.2-1.2 78.5-1.6 92.5-2 28.2-.8 51-1.5 61-2 40.2-2 46.8-2.4 67.8-4 3.8-.3 9.6-.7 13-1 5.5-.4 15.1-1.3 22.7-2 1.4-.1 5.9-.6 10-1s8.2-.8 9-1c.9-.2 4.6-.6 8.2-.9 3.7-.4 7.5-.8 8.5-1 1-.2 4.3-.7 7.3-1.1 3-.4 6.2-.9 7-1 .8-.2 3.8-.6 6.5-.9 2.8-.4 8.6-1.3 13-2.1 4.4-.7 9.7-1.6 11.8-1.9 2.1-.4 7.1-1.3 11-2.1 8.2-1.6 11.5-2.3 15.5-3 1.5-.3 3.8-.8 5.2-1.1 1.4-.3 3.2-.7 4-.9 25.4-5.2 86-24.2 91.8-28.8.6-.5 1.2-.7 1.2-.4 0 1.3 30.1-13.2 44.9-21.6 46-26 83.6-60 112.2-101.7 18.7-27 34.8-60.1 46.7-95.7 2.8-8.4 5.4-16.3 5.6-17.5.3-1.3 2.1-8.3 4-15.7 2-7.4 3.7-14.6 4-16 .3-1.4 1.6-8.2 3-15.1s2.8-14.3 3.1-16.5c.2-2.2.7-5.1.9-6.5.5-2.9 2.3-15.7 3-21.5 1-7.9 1.5-13.6 3.1-31.5 1.4-16.4 1.9-33.3 1.9-68.5 0-39.5-.8-64.3-2.9-86.5-.2-2.5-.7-8.3-1-13-.3-4.7-.8-9.6-1-11-.4-2.8-1.8-17.9-1.7-19.5 0-.6.7-5.3 1.5-10.5.9-5.2 1.8-11.5 2.2-14 .3-2.5.8-5.6 1-7 .2-1.4.7-5.4 1-9 .4-3.6.8-7.6 1-9 .2-1.4.7-5.7 1-9.5.3-3.9.7-9.3 1-12 1.4-14.5 2.9-42 4.2-77.5.9-27.5.9-150.4-.1-198-.4-20.1-.9-44.4-1.1-54-.3-17-1.2-51.1-2-83.5-.3-8.8-.7-28.6-1.1-44-.3-15.4-.7-34.3-.9-42-2.6-110.8-2.6-293.5 0-356.5.3-5.8.7-17.7 1-26.5.2-8.8.7-20.3 1-25.5.3-5.2.7-14 1-19.5 1.5-31.2 1.5-29.9 3.1-53 .3-5.5.8-11.8.9-14 .3-5.8 1.6-23.4 2-27.5.2-1.9.6-7.6 1-12.5.4-5 .8-10.1 1-11.5.2-1.4.7-6.4 1-11.2.3-4.8.8-9.6 1-10.6.2-1.1.6-5.5 1-9.8.4-4.3.8-9 1-10.4.2-1.4.7-5.5 1-9.2.3-3.7.8-7.6 1-8.8.2-1.2.7-5.1 1-8.8.4-3.7.8-7.8 1-9.2.2-1.4.6-4.8 1-7.5.3-2.8.7-5.9.9-7 .2-1.1.7-4.5 1-7.6.4-3.1.8-6.6 1.1-7.7.2-1.2.6-4.5.9-7.4.4-2.9.8-6.2 1-7.3.2-1.1.7-4.7 1.2-8 .4-3.3.8-6.2.9-6.5.1-.3.5-3 .9-6 .5-3 1-6.2 1.1-7 .2-.8.6-3.8.9-6.5.4-2.8.9-5.7 1.1-6.5.2-.8.6-3.3 1-5.5.3-2.2 1.2-7.6 2-12s1.7-9.8 2-12c.4-2.2.8-4.7 1-5.5.2-.8.7-2.9 1-4.5.5-2.9.8-4.8 2-10.5.2-1.4.7-4.1 1-6 .3-1.9 1-5.1 1.5-7 .5-1.9 1.1-4.9 1.3-6.5.3-1.7 2.6-12.5 5.2-24 2.6-11.6 4.8-21.7 5-22.5.2-.8 2.2-8.7 4.5-17.5s4.3-16.7 4.5-17.6c.2-.8 1.7-6.5 3.5-12.5 1.7-6 3.3-11.6 3.5-12.4 1.6-7 21.7-67.5 24.4-73.5.5-1.1 2.3-5.6 3.9-10 2.9-7.6 11.7-28.7 17.8-42.5 5.2-11.8 22.2-45.3 29-57 9.7-16.9 9.7-16.9 14.9-25 10-15.6 13.9-21.5 15.2-22.8.7-.7 1.3-1.7 1.3-2.2 0-.4 1.9-1.5 4.3-2.3 20.3-7.3 31-11 35.2-12.2 2.8-.8 10.6-3 17.5-5 6.8-2.1 13.1-3.8 14-4 .8-.2 5.1-1.2 9.5-2.3 6.7-1.8 13.5-3.3 30-6.7 6.4-1.4 9.8-2 22.5-4.1 12.9-2.1 13.9-2.2 19-2.9 2.5-.3 5.6-.8 7-1 2.3-.3 7.8-1 16-2 1.9-.2 6.7-.7 10.5-1 3.9-.4 8.6-.8 10.5-1 39.3-4.1 135.7-5.2 190-2 3.6.2 12.8.7 20.5 1 15 .7 18.8.9 39 1.9 12.1.6 17.2.9 38 2.1 4.4.2 14.3.7 22 1 7.7.3 17.6.8 22 1 47.1 2.2 129.3 2.2 153 0 2.2-.2 8.7-.6 14.5-1 5.8-.3 12.1-.8 14-1 1.9-.2 6.2-.7 9.5-1 11.7-1.1 14.3-1.3 19.1-2 2.7-.3 6.5-.8 8.4-1.1 1.9-.2 6.3-.9 9.8-1.5 3.4-.5 8.4-1.2 11-1.5 2.6-.3 5.4-.7 6.2-.9.8-.3 3.3-.7 5.5-1.1 2.2-.3 7.2-1.2 11-2 3.9-.8 8.6-1.7 10.5-2 1.9-.3 7.1-1.4 11.5-2.5s8.9-2.1 10-2.4c1.1-.2 3.5-.8 5.3-1.4 1.8-.5 3.5-1 3.7-1 8-.8 53.1-15.3 77-24.8 7.7-3.1 18.5-6.9 24-8.5 40.6-11.7 107.6-35.4 134.9-47.8 2.2-1 8.8-3.9 14.6-6.3 18.1-7.8 71.9-33.8 81-39.2 1.4-.8 9.9-5.6 19-10.6s24.7-14.2 34.8-20.3c10.1-6.1 19.2-11.5 20.3-12.1 1-.5 1.9-1.3 1.9-1.7 0-.5.5-.8 1.1-.8 2.3 0 47.4-30.9 72.9-49.9 13.6-10.2 50.6-39.4 52-41 .3-.4 3-2.6 6-5.1 3-2.5 6.2-5.2 7-6 .9-.8 4.7-4.2 8.5-7.5 32.4-28.3 67.9-63.1 97-95.1 4.9-5.4 9.3-10.1 9.6-10.4.3-.3 5.2-5.9 10.8-12.5 5.7-6.6 12.3-14.3 14.6-17 10.2-11.8 31-37.9 40-50 1.6-2.2 3.5-4.7 4.2-5.5 3.8-4.6 27.3-37.2 33.8-46.9 15.5-22.9 24.6-36.8 25.2-38.1.3-.8 1.2-2.2 1.9-3 .6-.8 6.7-10.5 13.3-21.5 6.7-11 12.6-20.7 13.1-21.5.6-.8 1.3-2.2 1.7-3 .4-.8 2.3-4.2 4.3-7.5s5-8.5 6.7-11.5c3.3-6.1 12.9-23.6 18.8-34.5 11.3-20.8 33-65.7 46.2-95.5 3-6.9 6.1-13.9 6.8-15.5.8-1.7 2.6-5.9 4-9.5 1.4-3.6 3.2-7.9 4-9.5 4.2-9.4 17.4-43.3 26.7-69 5.9-16.3 23.1-68.2 27.3-82.5 2-6.9 4.8-16.3 6.2-21 1.4-4.7 2.7-9.2 2.9-10 .1-.8 1.5-5.8 2.9-11 8.5-30.7 16.9-65.9 24.1-100 2.5-11.8 4.7-22.4 5-23.5.2-1.1.8-4.5 1.4-7.5.5-3 2.3-13.2 4-22.5 2.8-15.9 7.4-43.6 8.4-51.5.3-1.9.9-6.9 1.5-11s1.4-9.3 1.6-11.5c.3-2.2.7-5.6 1-7.5.3-1.9.7-5.3.9-7.5.3-2.2.8-5.8 1-8 .6-4.2 1-7.5 2.2-18.5 1-9.8 1.1-11 1.8-18 .4-3.6.9-8.1 1.1-10 .2-1.9.7-7.3 1-12 .4-4.7.9-10.2 1.1-12.4.2-2.1.6-7.9.9-13 .4-5 .8-11.4 1-14.1.2-2.8.7-10.4 1-17 .3-6.6.8-16.7 1.1-22.5 1.9-38.3 1.9-110.7 0-151.5-.3-6.1-.8-16-1.1-22-.3-6.1-.8-13.5-1-16.5-.3-3-.7-9.1-1-13.5-.3-4.4-.7-10.7-1-14-.5-5.6-.8-8.9-2-22-1.1-12.9-1.5-17.3-1.9-20.5-.3-1.9-.7-5.8-1-8.5-.9-8.1-2.7-22.8-3.1-26-.3-1.7-.9-6.8-1.5-11.5s-1.3-9.9-1.6-11.5c-.5-3.1-1-7.2-1.9-14-.3-2.2-1.9-11.9-3.5-21.5s-3.2-19.3-3.5-21.5c-.4-2.2-.8-4.7-1-5.5-.2-.8-.7-3.1-1-5-.3-1.9-1-5.5-1.5-8s-1.1-5.9-1.4-7.5c-.2-1.7-1.1-6.3-2-10.2-.9-4-1.8-8.7-2.1-10.5-.4-1.8-2.6-12.3-5.1-23.3-2.5-11-4.8-21.1-5-22.5-.3-1.4-1.4-5.9-2.5-10.1-1.1-4.2-2.1-8.5-2.3-9.5-.4-1.9-5.4-21-8.1-30.9-5.9-21.5-14.5-50.6-16.9-57.3-.8-2.3-1.5-4.5-1.5-4.7.1-1.1-18.3-55.4-21.5-63.5-.8-1.9-2.9-7.3-4.7-12-1.7-4.7-3.7-9.9-4.4-11.5-.7-1.7-2.8-6.8-4.6-11.5-20.2-52.5-53.2-120.7-84.7-175-14-24.2-43.7-71.2-49.5-78.5-.4-.6-4.8-6.8-9.9-14-12.6-18.1-46-61.9-49.8-65.5-.3-.3-2.7-3.2-5.5-6.5-34.8-41.9-84-92-120.5-122.7-1.4-1.2-5.4-4.7-9-7.8-8.9-7.6-34.4-28-42-33.5-1.5-1.1-9.7-7-18.1-13.1-29.3-21.1-64.5-43.8-87.4-56.3-3.3-1.8-7.8-4.3-10-5.6-40.9-23.7-111.2-54.7-162.5-71.8-13.9-4.6-36.1-11.6-38.6-12.2-1-.2-7.5-2-14.4-4-11.3-3.2-48.9-12.7-55-13.9-1.4-.2-10.1-2-19.5-3.9-9.3-2-18.8-3.8-21-4.1-3.8-.6-5-.8-11.5-2-1.4-.3-4.3-.8-6.5-1.1-2.2-.3-6.5-1-9.5-1.5s-7.7-1.2-10.5-1.5c-2.7-.4-7.5-1-10.5-1.5s-8.2-1.2-11.5-1.5c-9.7-1.1-11.7-1.3-17-1.9-9.8-1.2-13.1-1.5-20-2.1-3.8-.4-8.8-.8-11-1-25.9-2.3-60.9-3.7-97.8-3.9h-27zm-41.2 496.9c16 .3 30.6.8 32.5.9 1.9.2 9.4.7 16.7 1 7.2.4 14 .8 15 1 1 .2 6.1.7 11.3 1 5.2.4 10.6.9 12 1.1 1.4.2 5.4.7 9 1 3.6.4 7.6.8 9 1 1.4.2 6.3.9 11 1.5s9.7 1.3 11.3 1.6c4.5.7 8 1.3 11.7 1.9 1.9.4 5.1.8 7 1.1 1.9.2 4.2.7 5.1 1l4.5.9c1.6.2 4.9.8 7.4 1.4 2.5.5 5.9 1.2 7.6 1.5 1.7.3 9.6 2.2 17.5 4.1 53.2 13.2 100.3 33.5 137.9 59.4 7.8 5.3 22.3 16.4 26.5 20.2 1.7 1.5 5.2 4.6 7.9 7 13.2 11.7 31.8 32.1 41.9 46 31.8 43.6 53.3 91.6 67.7 151.1 3.4 14 3.4 14.1 5.5 24.8.8 4.1 1.7 8.6 2 10 .9 4.5 2.4 13.4 3 17.5.3 2.3.7 5 .9 6 1.4 7.3 1.9 15.7 1.6 27-.6 23.9-.3 100.7.4 123.5 1 31.4 2.2 62.9 3 78 .3 4.7.8 13.9 1.1 20.5.3 6.6.8 14.7 1 18 .2 3.3.7 11.2 1 17.5.3 6.3.8 14.2 1 17.5.3 3.3.7 10.5 1 16 .8 14.7 1.4 24 1.9 30.9.3 3.3.8 11 1.1 17.1.3 6 .8 13.2 1 16 .3 2.7.7 9.7 1 15.5.2 5.8.7 13.6 1 17.5.4 6.5.7 11.1 2 32 .3 4.4.7 12.7 1 18.5.2 5.8.7 14.3.9 19 .3 4.7.8 14.8 1.2 22.5.3 7.7.7 17.1.9 21 2.7 57.3 2.7 173.6 0 211.5-.2 3.6-.7 10.8-1 16-.3 5.2-.8 12-1 15-.3 3-.7 8-1 11-1.7 20.5-2.9 31-5.6 51-.5 4.1-1.2 8.8-1.4 10.5-1.1 8.4-1.7 12.5-2.5 17.5-.5 3-1.2 7.3-1.6 9.5-.3 2.2-1.2 7.1-1.9 11-.8 3.8-1.7 8.6-2 10.5-5.1 30.2-23.9 97.2-34.5 123-1 2.5-3.2 7.9-4.8 12-1.6 4.1-4 9.7-5.2 12.5-1.2 2.7-3.2 7-4.3 9.5-5 11.5-13.9 28.9-21.9 43.3-23.5 42.3-51.5 79.4-85.8 113.7-17.4 17.5-19.6 19.5-32 30-3.6 3-6.7 5.7-7 6-.3.3-2.5 2.1-5 4s-4.7 3.7-5 4c-3.6 4.2-44.8 32.5-64 44-21.6 12.9-19.6 12.2-52.5 18.5-1.1.2-14.6 2.8-30 5.9-15.4 3-29.6 5.8-31.5 6.1-1.9.3-5.3 1-7.5 1.5s-5.6 1.1-7.5 1.4c-1.9.3-4.4.7-5.5.9-1.1.3-3.6.7-5.5 1.1-1.9.3-4.6.8-6 1.1-1.4.3-7.4 1.4-13.5 2.5-6 1.1-12.1 2.2-13.5 2.5-1.4.3-5.2 1-8.5 1.5s-6.9 1.2-8 1.4c-3.7.7-10 1.8-12 2.2-20.9 3.6-31.7 5.4-34.5 5.9-1.9.3-6.1 1-9.2 1.6-6.6 1.1-6.9 1.2-19.8 3.3-5.2.9-11.3 1.8-13.5 2.1-2.2.3-4.9.8-6.1 1-1.2.3-3.9.7-6 1-2.1.3-4.8.7-5.9 1-1.1.2-8.2 1.3-15.7 2.4-7.6 1.1-15 2.3-16.5 2.5-1.6.3-4.8.8-7.3 1.1-3.9.5-9.5 1.3-20 3-1.4.2-6.3.9-11 1.5s-9.6 1.3-11 1.5c-1.4.2-4.5.7-7 1-2.5.3-5.6.8-7 1-1.4.2-8.3 1.1-15.5 2-7.1.9-14.1 1.8-15.5 2-1.4.2-5 .7-8 1-3 .3-7.3.8-9.5 1.1-7.6 1.1-9 1.2-15.5 1.9-3.6.4-7.6.8-9 1-1.4.2-5.2.6-8.5 1-3.3.3-7.6.7-9.5 1-3.4.4-9.3 1-20.7 2-3.2.3-7.4.8-9.3 1-1.9.3-6.4.7-10 1-3.6.3-8.5.8-11 1-7.6.8-17 1.6-23.4 2-3.4.2-8.6.6-11.6.9-5.7.5-16.2 1.3-29 2.1-4.1.2-11.5.7-16.5 1-69.6 4.6-173 4.6-229.8 0-9.8-.8-19.7-1.5-26.7-2-3.6-.3-8.1-.7-10-.9-4.5-.6-12.2-1.5-18.5-2.1-4.6-.5-8.6-.9-17-2-1.6-.2-5.2-.7-8-1-2.7-.3-6.1-.8-7.5-1-1.4-.3-4.3-.7-6.5-1-2.2-.4-6.5-1-9.5-1.5s-7.7-1.2-10.5-1.6c-2.7-.3-5.2-.8-5.5-.9-.3-.2-2.4-.6-4.6-.9-2.2-.4-5.1-.9-6.4-1.1-1.4-.3-3.8-.8-5.5-1.1-1.6-.3-4.8-.9-7-1.4-2.2-.5-6-1.2-8.5-1.5-2.4-.4-4.7-.8-5.1-1-.3-.2-2-.7-3.7-1-6-1-35.9-8.4-50.7-12.5-58.8-16.2-124-44.2-165-70.9-2.2-1.4-4.9-3.2-6-3.9-6.5-4.1-8.7-5.6-15.5-10.3-52.2-36.7-91.5-78.6-127.5-135.9-12.6-20-29.8-56.1-40-83.9-3.7-10.1-11.9-35.2-13.1-40-.2-.9-2-7.8-3.9-15.5-3.6-13.7-8.4-36.1-10.5-48.6-.6-3.6-1.3-7.6-1.6-9-.2-1.4-.7-4.5-1-7-.3-2.5-.8-5.2-.9-6-.2-.9-.6-4.3-1-7.5-.4-3.3-.9-6.9-1.1-8-.2-1.1-.7-4.9-1-8.5-.3-3.6-.7-7.6-.9-9-.2-1.4-.6-6.1-1-10.5-.3-4.4-.8-10.3-1-13-2.5-31.2-2.5-91.6 0-131.5.7-12.7 3.4-44.7 4-49 .2-1.4.6-5.4 1-9 .4-3.6.8-7.6 1-9 .2-1.4.6-5.2 1-8.5.3-3.3.8-7.1 1-8.5.8-5.5 1.5-10.7 2-15 1.2-10.1 3-21.9 3.9-26.5.2-1.1.7-4 1-6.5.3-2.5.8-5.6 1.1-7 .2-1.3.7-4.2 1.1-6.5.3-2.2 1.1-7.2 1.9-11 1.5-7.9 1.1-8.5-4.4-8.5-4.8 0-3.2-1.1 1.8-1.2h4.1l-.5-9.7c-.3-5.3-.7-13.2-.9-17.6-.4-7.3-1.2-25.6-2.1-47.5-1.4-35-1.9-63.3-1.9-115 0-58.7.7-85.3 2.9-118 .2-3.6.7-10.6 1-15.5.3-5 .7-11 1-13.5.2-2.5.6-7.2.9-10.5 1-11.3 1.7-18 2.2-22.5.2-2.5.7-6.5.9-9 .5-4.8 1.3-11.8 2-16 .2-1.4.6-4.8 1-7.5 1-8.2 1.7-13.9 2-15.5.2-1.3.6-3.8 2.1-13.5.7-4.6 1.4-8.5 2.4-14.5.5-3 1.2-7 1.5-8.9.3-1.9 1.9-10 3.6-18 1.6-8 3.2-15.7 3.5-17.1.2-1.4 2.3-9.9 4.5-19 2.3-9.1 4.2-17.2 4.4-18 3.5-15 18.2-59.2 26.8-80.5 25-61.9 57.8-114.9 97.2-157.4 6.7-7.2 28-28.1 33-32.2 2.2-1.9 4.5-3.9 5.1-4.5.6-.5 3.1-2.6 5.4-4.5 2.4-1.8 5.7-4.6 7.4-6 5.5-4.6 25.6-19 35.5-25.4 18.7-12.1 47.3-27.5 70.2-37.8 17.5-7.9 58.6-22.7 75.9-27.3 14.5-3.9 36.3-9.4 43.5-10.9 4.4-.9 8.9-1.9 10-2.1 5.2-1.1 29.4-5.5 32.5-5.9 1.9-.3 4.4-.7 5.6-.9 1.2-.2 4.5-.7 7.5-1.1 3-.3 7.9-1 10.9-1.5s8.7-1.2 12.5-1.6c3.9-.3 7.7-.8 8.6-.9.9-.2 4.9-.6 9-1s9.4-.8 11.9-1.1c2.5-.2 7.9-.6 12-.9 4.1-.2 10.7-.7 14.5-1 33.2-2.3 117.9-2.4 142 0 14.6 1.4 15.9 1.5 37.5 3 36.6 2.4 105.4 2.4 168 0 34.6-1.3 64.5-2.6 94-4 20.8-1 45-2 70.5-3 5.5-.2 24.4-.7 42-1.1 17.6-.3 32.1-.7 32.2-.8.3-.2 27.6.2 57.8.9z"/><path d="M3525.2 995.5c-25.8 8.2-39.6 13.8-63.2 25.8-16.3 8.3-18.9 9.7-36.5 21.2-50.3 32.8-92.6 80.9-120.9 137.3-3.6 7.2-6.6 13.3-6.6 13.6 0 .3-1.3 3.4-2.8 6.8-12.8 28.3-24.7 72-28.7 105.8-.4 3-.8 6.6-1 8-2.6 16.6-2.6 76.9 0 94 .2 1.4.7 5 1 8 .4 3 .9 6.4 1 7.5.2 1.1.6 4 1 6.5s1.4 7.9 2.2 12c.8 4.1 1.6 8.8 1.9 10.5.3 1.6 2.1 9.1 4 16.5 29.6 113.9 101.1 205.3 199 254.4 40.3 20.1 88.1 34.6 129.4 39.1 3 .3 6.9.8 8.5 1 13.9 1.9 39.1 2.7 48.5 1.5 3.6-.5 9.4-1.1 13-1.5 3.6-.3 7.2-.8 8-1 .8-.2 3.8-.7 6.5-1 6.9-.8 25.3-4.2 35.5-6.6 4.7-1.1 9.6-2.2 11-2.5 9.3-2 34-9.9 49-15.7 29.1-11.3 59-28.4 83-47.6 8.9-7 32.9-30.3 39.4-38.1 18.2-22 35.7-51.3 45.1-75.5 1.3-3.3 3.5-9 4.9-12.6 2.3-5.9 8.8-28.6 10-34.9.3-1.4 1.4-7 2.5-12.5 4-20.5 5.6-38.5 5.5-64.5 0-17.3-.9-37.3-1.9-43-.2-1.4-.7-4.8-1-7.5-1-9.1-3.5-23.9-6-35.5-2.4-11-3.7-16.4-5.9-24.5-.1-.6-.8-3-1.5-5.5-13.4-49.6-42.4-108.5-75.5-153.8-24.8-33.9-60.9-72-87.6-92.2-2.5-1.9-4.7-3.7-5-4.1-.3-.3-5.2-4-11-8.2-5.8-4.2-10.9-8-11.5-8.4-.5-.5-3.2-2.3-6-4l-6-4c-3.4-2.7-25.2-15.2-37.5-21.5-36.4-18.7-68.9-30.3-110.5-39.4-7-1.5-30.1-5.3-36-5.9-3.8-.4-7.9-.9-9-1.1-1.1-.2-6.9-.6-13-.9-10.9-.5-11.1-.5-25.3 4zM825.8 3341.5c-.2.1-4.3.5-9.3.9-4.9.4-10.3.8-12 1-1.6.2-5.7.7-9 1-3.3.4-10 1.4-15 2.2-4.9.8-10.3 1.7-12 2-1.6.2-4.3.7-6 1.1-1.6.3-3.7.7-4.5.8-.8.1-4.6 1-8.5 1.9-3.8 1-8.1 2-9.5 2.2-4.3.8-26.4 7.3-34.1 10-56.5 19.8-99.7 48.6-134.5 89.9-5.4 6.4-18 24-20.8 29-.9 1.6-2.5 4.3-3.5 6-11.7 19.7-24.2 50.5-29.7 73.5-.2.8-1 4.2-1.8 7.5s-1.7 7.8-2 10c-.4 2.2-.8 4.7-1.1 5.5-.4 1.7-1.1 5.9-2.1 14.5-.3 3.3-.8 6.8-1 7.9-2.2 12-2.2 59 0 75.6.2 1.4.7 5.6 1 9.3.4 3.7.9 7.6 1.1 8.6.2 1 .6 3.6.9 5.7 1.8 11.6 4.7 26.1 8.2 40.6 4.3 18.3 14.3 48.6 22.9 69.3 11.7 28.3 31.6 65.7 47.1 88.3 3.5 5.1 6.4 9.5 6.4 9.7 0 .6 21 28.8 22.4 30 .6.5 2.7 3 4.6 5.5 1.9 2.4 4.2 5.2 5 6 .8.9 4 4.5 7 8 7.7 9 31.9 33.1 41.9 41.9 12.9 11.3 44.9 36.1 46.6 36.1.3 0 2.9 1.7 5.8 3.8 13.3 9.7 46.1 27.2 67.7 36.1 5.8 2.4 11.9 4.9 13.5 5.6 11 4.7 42.9 13.9 59.2 17.1 14.6 3 34 5.6 49.8 7 2.2.1 14.2.3 26.7.4l22.8.1 11.7-4.6c11.9-4.7 43.1-19.7 53.3-25.5 13.1-7.5 45.2-29.7 49-34 .3-.3 2.5-2.1 5-4.1 4.9-4 8.4-7.2 17.5-15.9 48-46.1 82.5-105.5 99.9-172.1 3.4-12.9 6.3-25.7 7.1-30.9.2-1.4 1-6.8 1.9-12 .8-5.2 1.8-12.4 2.1-16 .3-3.6.8-8.1 1.1-10 2-14.8 1.9-66.6-.2-77.3-.2-1.2-.7-5.5-1-9.6-.3-4.2-.8-8.4-1-9.6-.2-1.1-.7-4-1-6.5-.3-2.5-.8-5.4-1-6.5-.3-1.1-.7-3.5-1-5.4-.3-1.8-.8-4.3-1-5.5-.2-1.1-.7-3.5-1-5.1-2.4-14.1-15-57-20.5-70-.6-1.7-1.3-3.5-1.4-4-.6-2.5-11.5-26.2-17.2-37.2-9.2-18-22.7-40.1-32.5-53.3-11.7-15.7-26.2-32.4-39.8-46-9.1-9.1-18.1-17.8-20-19.4-23.7-19.2-36.1-28-54-38.6-9.1-5.4-33.3-17.6-42.5-21.5-1.6-.7-4.1-1.7-5.5-2.4-13.1-5.9-54.4-18.4-68.1-20.5-2-.3-4.2-.8-5-1-.8-.3-3.2-.8-5.4-1.1-2.2-.3-6.5-1-9.5-1.5-6.7-1.1-14-2-20-2.6-2.5-.2-7.2-.6-10.5-1-6.5-.6-33.1-1.4-33.7-.9zM4072.7 3435.6c-.1.1-3.8.5-8.2.9-8.2.6-13 1.2-17.5 2-1.4.3-4.3.8-6.5 1.1-2.2.3-7.6 1.4-12 2.4-4.5 1.1-9.2 2.1-10.5 2.4-1.4.2-4.5 1.1-7 1.9-2.5.8-6.5 2-9 2.7-8.9 2.6-30.7 11.3-41 16.4-38.1 18.8-65.3 38.6-96.7 70.3-20.1 20.4-38.3 43-54.1 67.3-4.5 6.9-8.6 13-9.2 13.7-.5.7-1 1.4-1 1.7 0 .2-2.8 5.1-6.2 10.8-8.5 14.3-23.4 44.1-31.8 63.7-3.8 9.1-7 16.8-7 17.3 0 .4-1.1 3.2-2.5 6.2-5.3 11.6-22.3 65-28 87.9-1.6 6.5-1.6 13.9 0 22.7.3 1.4.6 4.4.9 6.5.2 2.2.7 5.6 1 7.5.3 1.9.8 4.8 1.1 6.5.3 1.6 1 5.7 1.6 9 .6 3.3 1.3 6.9 1.5 8 3.4 20.8 15.6 62.8 25.4 87.5 8.3 20.7 23.7 52.6 27.6 57.1.8.8 1.4 1.9 1.4 2.2 0 1.7 19.6 31.7 26.2 40.2 5.1 6.5 14.2 17.6 18.7 23 4.2 4.8 29.4 30 33.6 33.5 1.7 1.4 5.7 4.7 9 7.5 10.2 8.6 28.4 21.8 39 28.2 15.3 9.2 30 16.9 44.1 23.1 13.1 5.8 41.6 15.8 50.7 17.8 3.2.7 4 .9 6.2 1.7 1.1.3 3.1.8 4.5 1.1 1.4.3 6.1 1.2 10.5 2.1 4.4.9 9.5 1.8 11.4 2.1 1.8.3 4.1.7 5 .9.9.2 4.4.6 7.6 1 3.3.4 7.1.9 8.5 1.1 13.2 2.1 62.2 2.1 74-.1.8-.1 4.4-.6 8-1 3.6-.4 7.4-.9 8.5-1.1 1.1-.3 3.6-.7 5.5-1 42.1-6.6 88.4-24 128.3-48 36.9-22.3 75.2-55.9 102.4-89.9 10.1-12.7 12.5-15.8 17.8-23.5 3.2-4.7 6.9-9.9 8.1-11.5 8.2-11 28.3-47.5 37.4-68 10.4-23 24.4-60.6 27.6-74 .1-.6 2.5-9.4 5.3-19.7 2.8-10.8 4.8-20 4.5-21.5-.3-1.6-1.8-8.4-3.5-15.3-1.6-6.9-3.2-13.3-3.4-14.2-3.6-15.6-16-55.1-22.7-71.8-17.8-45.1-36.5-81.7-58.2-114-13.9-20.7-30.7-42.5-44-57-6.6-7.1-29-29.5-34.1-34-30.3-26.5-52.9-41.9-86.5-58.8-36.7-18.5-73.6-29.2-116-33.8-6-.6-45.7-1.4-46.3-.8z"/></svg>