<?xml version="1.0" encoding="UTF-8" standalone="no"?>
<svg
   xmlns:dc="http://purl.org/dc/elements/1.1/"
   xmlns:cc="http://creativecommons.org/ns#"
   xmlns:rdf="http://www.w3.org/1999/02/22-rdf-syntax-ns#"
   xmlns:svg="http://www.w3.org/2000/svg"
   xmlns="http://www.w3.org/2000/svg"
   viewBox="0 0 2000 2000"
   height="2000"
   width="2000"
   xml:space="preserve"
   id="svg2"
   version="1.1"><metadata
     id="metadata8"><rdf:RDF><cc:Work
         rdf:about=""><dc:format>image/svg+xml</dc:format><dc:type
           rdf:resource="http://purl.org/dc/dcmitype/StillImage" /></cc:Work></rdf:RDF></metadata><defs
     id="defs6"><clipPath
       id="clipPath18"
       clipPathUnits="userSpaceOnUse"><path
         id="path16"
         d="M 0,1500 H 1500 V 0 H 0 Z" /></clipPath></defs><g
     transform="matrix(1.3333333,0,0,-1.3333333,0,2000)"
     id="g10"><g
       id="g12"><g
         clip-path="url(#clipPath18)"
         id="g14"><g
           transform="translate(392.7057,233.2982)"
           id="g20"><path
             id="path22"
             style="fill:#000000;fill-opacity:1;fill-rule:nonzero;stroke:none"
             d="m 0,0 c -0.013,0.409 -0.027,0.817 -0.04,1.226 -37.333,-1.291 -74.672,-2.446 -111.997,-3.951 -11.791,-0.476 -21.819,-4.911 -25.93,-17.047 -4.265,-12.595 -3.344,-24.716 7.812,-33.567 5.857,-4.648 12.519,-9.372 19.564,-11.227 20.895,-5.501 42.204,-9.404 63.272,-14.276 56.452,-13.054 113.785,-19.27 171.561,-20.448 22.366,-0.456 44.789,3.56 67.229,4.621 27.975,1.324 56.082,0.581 83.976,2.74 44.378,3.434 88.71,7.852 132.907,13.142 34.034,4.074 59.41,32.259 61.263,66.56 1.464,27.117 2.022,54.287 2.7,81.44 0.986,39.475 2.408,78.956 2.386,118.434 -0.029,50.567 -0.024,101.016 7.841,151.206 4.522,28.859 5.954,58.224 10.997,86.972 5.225,29.784 29.534,48.336 59.92,48.454 40.814,0.158 81.633,-0.343 122.442,0.15 37.379,0.45 71.438,10.217 102.274,33.153 20.558,15.291 43.299,28.813 66.958,38.499 37.694,15.433 62.558,39.984 74.703,79.182 14.058,45.373 30.201,90.102 45.619,135.05 6.191,18.049 8.68,36.216 4.319,55.082 -10.7,46.292 -22.129,92.439 -31.609,138.982 -9.572,46.994 -34.837,83.135 -68.528,116.369 -54.51,53.77 -120.983,64.566 -192.652,60.775 -27.071,-1.432 -54.03,-5.47 -81.101,-6.271 -37.381,-1.107 -74.829,0.285 -112.229,-0.397 -64.924,-1.185 -122.106,-24.361 -167.27,-70.126 -24.382,-24.708 -41.712,-56.461 -61.682,-85.409 -14.274,-20.692 -21.887,-44.357 -24.7,-68.998 -3.796,-33.257 -4.606,-66.859 -8.587,-100.087 -6.104,-50.946 -15.622,-101.427 -15.034,-153.141 0.314,-27.605 -16.801,-49.046 -43.41,-54.255 -34.367,-6.729 -69.405,-7.155 -103.479,2.606 -22.742,6.514 -39.763,33.955 -38.185,56.222 2.038,28.756 4.197,57.57 4.42,86.374 0.603,77.798 -0.022,155.604 0.326,233.405 0.131,29.278 2.52,58.56 2.235,87.824 -0.389,39.928 -23.329,70.766 -68.953,68.591 -34.186,-1.63 -68.374,-3.869 -102.827,1.477 -21.003,3.259 -40.303,-5.739 -56.828,-20.691 -24.275,-21.965 -28.893,-50.674 -31.63,-80.747 -5.109,-56.134 -8.821,-112.482 -16.518,-168.272 -10.74,-77.855 -9.877,-155.675 -6.956,-233.826 1.693,-45.315 27.248,-74.598 61.191,-98.76 32.58,-23.192 70.167,-31.76 109.542,-32.143 34,-0.33 67.836,-0.114 101.513,-6.826 13.026,-2.595 27.087,-0.748 40.615,0.078 30.445,1.86 60.824,5.592 91.281,6.27 39.981,0.89 63.097,-28.208 57.094,-67.794 -3.94,-25.981 -8.186,-52.177 -8.765,-78.355 -1.852,-83.669 -2.062,-167.374 -2.891,-251.065 -0.068,-6.802 0.108,-13.608 -0.057,-20.407 C 193.367,46.65 178.005,25.055 149.784,14.961 122.413,5.17 94.431,-1.009 65.044,-0.128 43.381,0.522 21.683,0 0,0 m 45.474,841.533 c 0,-36.134 0.448,-72.275 -0.146,-108.398 -0.452,-27.537 -2.017,-55.064 -3.492,-82.573 -0.822,-15.33 10.204,-32.386 25.999,-36.744 27.853,-7.684 56.391,-7.732 84.548,-2.959 23.475,3.98 35.417,17.887 34.934,41.611 -1.062,52.074 8.775,102.871 15.091,154.13 3.206,26.02 3.788,52.361 5.614,78.552 2.621,37.578 13.209,72.627 35.028,103.56 19.738,27.984 37.328,58.432 61.376,82.224 47.808,47.298 107.234,72.064 175.251,73.188 36.975,0.611 73.984,-0.537 110.948,0.335 24.94,0.588 49.951,2.306 74.715,5.299 52.035,6.289 102.752,1.186 151.177,-18.361 17.674,-7.135 34.531,-18.432 48.953,-31.042 31.263,-27.334 64.417,-54.549 77.849,-95.68 12.341,-37.789 20.702,-76.891 30.435,-115.511 4.239,-16.822 6.435,-34.217 11.471,-50.77 10.65,-35.004 6.337,-68.269 -6.358,-101.953 -14.207,-37.695 -27.339,-75.882 -38.907,-114.464 -13.966,-46.582 -42.643,-77.15 -88.115,-94.874 -22.532,-8.783 -43.757,-22.395 -63.394,-36.794 -32.125,-23.555 -67.501,-34.978 -106.713,-35.411 -41.232,-0.456 -82.472,-0.076 -123.708,-0.117 -26.105,-0.026 -41.032,-10.875 -45.508,-36.651 -4.765,-27.448 -6.425,-55.421 -10.551,-82.999 -7.625,-50.968 -7.901,-102.201 -7.827,-153.55 0.058,-39.876 -1.31,-79.757 -2.298,-119.629 -0.662,-26.704 0.655,-53.752 -3.204,-80.016 -6.972,-47.461 -33.392,-73.397 -77.449,-80.552 -77.212,-12.541 -154.949,-16.687 -233.102,-15.745 -16.812,0.203 -33.681,-4.684 -50.5,-4.533 -61.981,0.557 -123.328,7.507 -183.8,21.473 -21.851,5.045 -44.286,8.34 -65.45,15.433 -46.363,15.536 -47.408,66.813 -21.618,88.266 6.124,5.094 14.846,8.854 22.743,9.677 20.625,2.15 41.449,2.932 62.206,3.174 38.681,0.45 77.382,0.729 116.051,-0.07 28.486,-0.588 55.672,4.628 82.375,13.757 22.627,7.736 33.715,22.44 34.762,46.344 0.13,2.97 0.005,5.951 0.034,8.926 0.861,87.921 1.14,175.854 2.948,263.756 0.546,26.565 4.731,53.127 8.358,79.538 3.368,24.525 -11.889,44.522 -36.681,43.543 -29.124,-1.15 -58.131,-5.259 -87.255,-6.404 -21.093,-0.83 -42.312,0.751 -63.443,1.848 -24.5,1.273 -48.974,4.658 -73.444,4.521 -47.904,-0.269 -93.452,8.209 -132.583,36.7 -36.026,26.23 -66.22,57.63 -66.901,106.721 -0.778,56.036 -4.261,112.206 -1.515,168.069 2.529,51.431 12.213,102.483 17.862,153.799 3.147,28.591 4.618,57.371 6.608,86.083 1.672,24.12 2.7,48.249 15.776,69.862 22.401,37.024 54.359,57.955 98.179,52.486 33.11,-4.133 66.028,-3.268 98.805,-1.358 55.518,3.236 86.699,-40.547 86.499,-86.61 -0.318,-73.037 -0.085,-146.076 -0.085,-219.114 -0.849,0.002 -1.699,0.005 -2.548,0.007" /></g><g
           transform="translate(1201.6362,449.4728)"
           id="g24"><path
             id="path26"
             style="fill:#000000;fill-opacity:1;fill-rule:nonzero;stroke:none"
             d="m 0,0 c -3.256,11.218 -3.971,24.212 -10.306,33.279 -12.488,17.873 -26.385,35.567 -42.86,49.634 -18.607,15.888 -41.108,15.821 -63.185,3.793 -19.967,-10.878 -34.404,-27.403 -47.475,-45.238 -19.192,-26.187 -17.045,-65.004 8.76,-87.944 4.394,-3.907 7.649,-9.065 11.748,-13.34 17.515,-18.267 37.58,-32.73 64.066,-23.994 25.238,8.323 46.556,24.345 64.233,44.276 C -5.487,-28.786 -0.209,-15.727 0,0 m 16.896,0.579 c 3.087,-32.32 -12.654,-53.905 -35.65,-71.573 -9.055,-6.957 -18.617,-13.276 -28.135,-19.605 -34.96,-23.245 -73.386,-20.086 -103.356,9.203 -11.494,11.233 -23.052,22.881 -32.098,36.045 -21.92,31.901 -16.836,78.159 8.734,107.411 18.65,21.335 37.475,41.948 65.987,49.534 26.849,7.143 51.706,2.224 72.279,-16.833 C -22.639,82.994 -10.359,70.347 -0.122,56.449 12.114,39.838 20.103,20.921 16.896,0.579" /></g><g
           transform="translate(328.2454,564.9298)"
           id="g28"><path
             id="path30"
             style="fill:#000000;fill-opacity:1;fill-rule:nonzero;stroke:none"
             d="m 0,0 c -28.471,0.025 -58.233,-17.748 -71.461,-43.365 -13.264,-25.689 -7.954,-49.953 8.949,-71.466 13.843,-17.62 28.799,-34.646 45.103,-49.978 19.169,-18.026 47.83,-19.289 69.66,-4.77 17.506,11.642 25.645,30.173 32.544,49.033 C 105.641,-63.554 60.857,-0.053 0,0 m -98.931,-71.362 c 1.543,46.71 45.318,87.636 91.809,91.307 52.738,4.165 99.879,-39.338 112.577,-77.37 11.667,-34.947 3.823,-68.354 -15.337,-98.399 -8.331,-13.063 -20.154,-25.556 -33.286,-33.555 -27.204,-16.569 -57.13,-13.821 -81.425,4.757 -28.883,22.087 -54.661,48.631 -68.396,83.721 -3.605,9.211 -4.048,19.659 -5.942,29.539" /></g><g
           transform="translate(783.4512,1026.2761)"
           id="g32"><path
             id="path34"
             style="fill:#ffffff;fill-opacity:1;fill-rule:nonzero;stroke:none"
             d="m 0,0 c 0,-33.149 -0.519,-66.309 0.15,-99.445 0.632,-31.272 11.853,-57.905 41.015,-72.658 16.108,-8.149 33.549,-15.751 51.176,-18.436 67.078,-10.218 134.808,-8.101 202.011,-2.486 67.883,5.671 119.93,64.589 121.019,132.915 0.928,58.209 1.812,116.501 -0.233,174.653 -2.422,68.873 -40.31,115.524 -115.518,113.035 -51.368,-1.7 -102.864,-1.337 -154.252,0.011 -37.946,0.996 -69.92,-11.23 -97.883,-35.85 C 17.003,164.9 -1.413,132.599 -0.191,90.518 0.685,60.369 -0.021,30.174 0,0 m -390.745,-792.978 c 21.682,0 43.38,0.522 65.044,-0.128 29.386,-0.881 57.369,5.299 84.74,15.089 28.221,10.094 43.583,31.689 44.317,61.837 0.166,6.799 -0.01,13.605 0.057,20.407 0.83,83.691 1.039,167.396 2.891,251.065 0.58,26.178 4.826,52.375 8.765,78.355 6.003,39.586 -17.112,68.684 -57.093,67.794 -30.457,-0.678 -60.837,-4.41 -91.282,-6.27 -13.528,-0.826 -27.589,-2.673 -40.615,-0.077 -33.676,6.711 -67.512,6.495 -101.513,6.825 -39.375,0.383 -76.962,8.951 -109.541,32.143 -33.943,24.162 -59.498,53.445 -61.192,98.761 -2.92,78.15 -3.783,155.97 6.957,233.825 7.696,55.79 11.408,112.138 16.517,168.272 2.738,30.073 7.356,58.782 31.63,80.747 16.526,14.953 35.825,23.95 56.828,20.691 34.453,-5.345 68.642,-3.107 102.827,-1.477 45.625,2.175 68.564,-28.663 68.953,-68.591 0.285,-29.264 -2.103,-58.545 -2.234,-87.824 -0.349,-77.801 0.276,-155.607 -0.326,-233.405 -0.223,-28.804 -2.383,-57.618 -4.421,-86.374 -1.578,-22.267 15.444,-49.708 38.186,-56.222 34.074,-9.761 69.112,-9.335 103.479,-2.606 26.608,5.209 43.723,26.65 43.409,54.256 -0.588,51.713 8.93,102.194 15.034,153.14 3.981,33.228 4.791,66.831 8.588,100.087 2.813,24.641 10.425,48.306 24.699,68.998 19.97,28.948 37.3,60.701 61.683,85.409 45.163,45.765 102.345,68.941 167.269,70.126 37.401,0.682 74.849,-0.71 112.229,0.397 27.071,0.801 54.031,4.839 81.102,6.271 71.669,3.791 138.142,-7.004 192.651,-60.775 33.691,-33.234 58.956,-69.375 68.528,-116.369 9.481,-46.543 20.91,-92.69 31.61,-138.982 4.361,-18.866 1.872,-37.033 -4.319,-55.082 -15.418,-44.948 -31.561,-89.677 -45.619,-135.05 -12.145,-39.198 -37.01,-63.749 -74.704,-79.182 -23.658,-9.686 -46.4,-23.208 -66.957,-38.499 -30.836,-22.936 -64.896,-32.702 -102.275,-33.153 -40.808,-0.493 -81.628,0.008 -122.442,-0.15 -30.386,-0.118 -54.695,-18.67 -59.919,-48.454 -5.043,-28.748 -6.475,-58.113 -10.998,-86.972 -7.865,-50.19 -7.869,-100.639 -7.841,-151.206 0.023,-39.478 -1.399,-78.959 -2.385,-118.434 -0.678,-27.153 -1.237,-54.323 -2.701,-81.439 -1.852,-34.302 -27.228,-62.487 -61.262,-66.561 -44.198,-5.29 -88.529,-9.708 -132.908,-13.142 -27.894,-2.159 -56,-1.416 -83.975,-2.739 -22.441,-1.062 -44.863,-5.078 -67.229,-4.622 -57.777,1.178 -115.11,7.394 -171.562,20.448 -21.067,4.872 -42.377,8.775 -63.271,14.276 -7.045,1.855 -13.708,6.579 -19.565,11.227 -11.155,8.851 -12.077,20.972 -7.811,33.568 4.11,12.135 14.139,16.57 25.93,17.046 37.324,1.505 74.663,2.66 111.997,3.951 0.013,-0.409 0.026,-0.817 0.04,-1.226" /></g><g
           transform="translate(1201.6362,449.4728)"
           id="g36"><path
             id="path38"
             style="fill:#ffffff;fill-opacity:1;fill-rule:nonzero;stroke:none"
             d="m 0,0 c -0.209,-15.727 -5.487,-28.786 -15.019,-39.534 -17.677,-19.931 -38.995,-35.953 -64.233,-44.276 -26.486,-8.736 -46.551,5.727 -64.066,23.994 -4.099,4.275 -7.354,9.433 -11.748,13.34 -25.805,22.94 -27.952,61.757 -8.76,87.944 13.071,17.835 27.508,34.36 47.475,45.238 22.077,12.028 44.578,12.095 63.185,-3.793 16.475,-14.067 30.372,-31.761 42.86,-49.634 C -3.971,24.212 -3.256,11.218 0,0" /></g><g
           transform="translate(328.2454,564.9298)"
           id="g40"><path
             id="path42"
             style="fill:#ffffff;fill-opacity:1;fill-rule:nonzero;stroke:none"
             d="m 0,0 c 60.857,-0.053 105.641,-63.554 84.795,-120.546 -6.899,-18.86 -15.038,-37.391 -32.544,-49.033 -21.83,-14.519 -50.491,-13.256 -69.66,4.77 -16.304,15.332 -31.26,32.358 -45.103,49.978 -16.903,21.513 -22.213,45.777 -8.949,71.466 C -58.233,-17.748 -28.471,0.025 0,0" /></g><g
           transform="translate(803.4208,1027.6537)"
           id="g44"><path
             id="path46"
             style="fill:#000000;fill-opacity:1;fill-rule:nonzero;stroke:none"
             d="m 0,0 c 0,-33.159 -0.483,-66.327 0.165,-99.473 0.452,-23.111 7.752,-43.326 29.236,-55.889 24.449,-14.297 51.249,-21.113 79.07,-21.714 48.015,-1.039 96.077,-0.858 144.105,-0.153 72.198,1.06 123,53.171 123.027,125.157 0.018,50.163 0.257,100.329 -0.169,150.488 -0.111,13.08 -1.452,26.301 -3.757,39.184 -7.758,43.354 -37.925,68.21 -82.076,68.271 -58.665,0.081 -117.342,-0.691 -175.993,0.238 C 63.99,206.895 -3.384,150.779 -0.285,91.81 1.32,61.286 -0.003,30.608 0,0 m -19.98,-1.378 c -0.01,30.175 0.695,60.37 -0.18,90.519 -1.223,42.08 17.193,74.382 47.676,101.22 27.962,24.62 59.937,36.847 97.882,35.851 51.389,-1.348 102.885,-1.712 154.252,-0.012 75.209,2.489 113.096,-44.162 115.518,-113.034 2.045,-58.152 1.161,-116.445 0.233,-174.654 -1.089,-68.326 -53.135,-127.243 -121.019,-132.915 -67.203,-5.614 -134.932,-7.731 -202.011,2.486 -17.626,2.685 -35.068,10.288 -51.176,18.437 -29.161,14.753 -40.383,41.386 -41.014,72.658 -0.67,33.135 -0.151,66.295 -0.161,99.444" /></g><g
           transform="translate(1003.8284,949.9641)"
           id="g48"><path
             id="path50"
             style="fill:#000000;fill-opacity:1;fill-rule:nonzero;stroke:none"
             d="m 0,0 c 24.435,-1.845 42.866,11.265 59.561,28.937 19.941,21.108 24.809,46.445 11.71,72.505 -13.157,26.172 -31.425,48.342 -55.642,65.155 -27.959,19.411 -54.85,16.34 -78.759,-8.063 -13.622,-13.903 -20.327,-30.858 -24.7,-49.365 C -100.402,55.96 -56.199,-0.029 0,0 m -0.003,-19.984 c -70.484,0.016 -122.942,67.628 -106.946,135.48 5.747,24.378 16.508,45.13 34.667,62.383 22.848,21.708 55.506,28.221 83.593,14.023 C 51.339,171.668 79.179,139.201 94.092,97.479 104.857,67.361 97.465,39.168 74.707,15.271 53.883,-6.596 30.513,-21.777 -0.003,-19.984" /></g><g
           transform="translate(1003.8284,949.9641)"
           id="g52"><path
             id="path54"
             style="fill:#ffffff;fill-opacity:1;fill-rule:nonzero;stroke:none"
             d="m 0,0 c -56.199,-0.029 -100.402,55.96 -87.83,109.169 4.373,18.507 11.078,35.462 24.7,49.365 23.909,24.403 50.8,27.474 78.759,8.063 C 39.846,149.784 58.114,127.614 71.271,101.442 84.37,75.382 79.502,50.045 59.561,28.937 42.866,11.265 24.435,-1.845 0,0" /></g></g></g></g></svg>