<svg id="Layer_1" data-name="Layer 1" xmlns="http://www.w3.org/2000/svg" viewBox="0 0 1228.02 1237.91"><defs><style>.cls-1{fill:#fff;stroke:#000;stroke-miterlimit:10;stroke-width:7px;}</style></defs><title>chur_icon</title><path class="cls-1" d="M256.14,1133.37c240.78,7.77,187.65-55.6,195.22-222.75-4.85-179.69,34.26-245.22-19.87-267C291,627.14,51.43,689,3.48,528.94c-9.81-158.83-5.12-543,98.8-525.54,60,11.33,159.18-21.6,178.27,44.81,10.09,149.94-3.16,299.78-1,450.76,19.38,58.82,88.15,47.44,139.56,41.57C568.2,439.77,303.54-33,906.11,4c384-58.53,420.33,550.83,89.66,643.27C924,678,848.68,640.09,773.84,669.54c-71.57,99.43-31.3,331.13-45.72,408.19C747.43,1258.88,607.43,1210,489.62,1227,83.94,1255.83,9.27,1115.2,256.14,1133.37Zm390.74-793c-43.67,244.55,185.91,210.7,341.76,179.51,112.45-61.15,67.49-202.24,71.73-313.08-16.14-132-154.6-84.49-240.09-93.37-173.85-9.14-179.37,115.65-173.4,227Z" transform="translate(3.5 3.5)"/><path class="cls-1" d="M1065.07,917.2c-26.62,114.87-164.18,107.64-176.47-5.81C920.63,783.94,1041.13,805.48,1065.07,917.2Z" transform="translate(3.5 3.5)"/><path class="cls-1" d="M191.68,801.74C291.6,804,315,946.07,223.93,979.88,120.5,985.89,61.35,809.13,191.68,801.74Z" transform="translate(3.5 3.5)"/><path class="cls-1" d="M867.26,416.67c-105.14-3.47-121.72-152.8-25.27-179C947.62,243.79,990.43,407.67,867.26,416.67Z" transform="translate(3.5 3.5)"/></svg>