<svg xmlns="http://www.w3.org/2000/svg" viewBox="0 0 1221.02 1230.91"><defs><style>.a{fill:#fff;}</style></defs><title>chur_icon</title><path class="a" d="M392.71,1266.7c240.78,7.77,187.65-55.6,195.22-222.75-4.85-179.69,34.26-245.22-19.87-267C427.54,760.47,188,822.3,140.05,662.27c-9.81-158.83-5.12-543,98.8-525.54,60,11.33,159.18-21.6,178.27,44.81,10.09,149.94-3.16,299.78-1,450.76,19.38,58.82,88.15,47.44,139.56,41.57,149.09-100.77-115.57-573.59,487-536.59,384-58.53,420.33,550.83,89.66,643.27-71.75,30.74-147.09-7.13-221.93,22.32-71.57,99.43-31.3,331.13-45.72,408.19C884,1392.21,744,1343.3,626.19,1360.32,220.51,1389.16,145.84,1248.53,392.71,1266.7Zm390.74-793C739.78,718.25,969.36,684.4,1125.21,653.21c112.45-61.15,67.49-202.24,71.73-313.08-16.14-132-154.6-84.49-240.09-93.37C783,237.62,777.48,362.41,783.45,473.72Z" transform="translate(-136.57 -133.33)"/><path class="a" d="M1201.64,1050.53c-26.62,114.87-164.18,107.64-176.47-5.81C1057.2,917.27,1177.7,938.81,1201.64,1050.53Z" transform="translate(-136.57 -133.33)"/><path class="a" d="M328.25,935.07c99.92,2.27,123.35,144.33,32.25,178.14C257.07,1119.22,197.92,942.46,328.25,935.07Z" transform="translate(-136.57 -133.33)"/><path class="a" d="M1003.83,550c-105.14-3.47-121.72-152.8-25.27-179C1084.19,377.12,1127,541,1003.83,550Z" transform="translate(-136.57 -133.33)"/></svg>