<?xml version="1.0" encoding="utf-8"?>
<!-- Generator: Adobe Illustrator 24.0.0, SVG Export Plug-In . SVG Version: 6.00 Build 0)  -->
<svg version="1.1" id="Layer_1" xmlns="http://www.w3.org/2000/svg" xmlns:xlink="http://www.w3.org/1999/xlink" x="0px" y="0px"
	 viewBox="0 0 1314.5 572.3" style="enable-background:new 0 0 1314.5 572.3;" xml:space="preserve">
<style type="text/css">
	.st0{fill:#FFFFFF;stroke:#000000;stroke-width:3;stroke-miterlimit:10;}
</style>
<title>chur_logo</title>
<path class="st0" d="M61.3,10.1c12,0,23.9-0.1,35.9,0c5.5,0,10.9,0.3,16.4,0.8c1.7,0.2,3.4,0.8,4.9,1.8c7.3,4.2,10.7,10.9,12,18.9
	c1.1,6.5,2.1,13,2.9,19.5c1.8,13.8,4.7,27.5,8.7,40.9c5.4,18.8,10.9,37.5,18.1,55.7c8.3,20.4,20.2,43.9,35,70.2
	c3.2,5.8,7.1,11.2,11.7,15.9c4.6,4.4,10.1,7.8,16.2,9.8c2.1,0.8,4.4,0.3,6-1.3c6.4-5.9,10.5-13.1,10.7-22
	c0.4-17.3,0.6-34.6,0.8-51.8c0.2-13.7,0.4-27.4,0.5-41.2c0.1-16,0.1-32.1,0.3-48.1c0.2-15,0.5-30,0.8-45c0.1-2.9,0-5.9,0.7-8.7
	c0.7-2.8,2-5.4,3.8-7.7c3.6-4.8,9.2-7.5,15.2-7.4c24.2-0.1,48.3-0.2,72.5-0.3c3.7,0,7.4,0.2,11,0.8c7.1,1.2,11.6,5.8,15.1,11.7
	c0.4,0.8,0.6,1.7,0.6,2.5c0.1,1.7,0.3,3.3,0.3,5c0.2,74.9,0.4,149.8,0.5,224.8c0,11.5-0.1,22.9,0.1,34.4c0.1,2.4-1,4.8-2.9,6.2
	c-3.9,3.2-9.1,1.5-10-3.4c-0.5-3.1-0.7-6.3-0.6-9.5c-0.1-9.9-1.5-19.7-4.1-29.3c-3.4-11.2-9-21.6-16.6-30.6
	c-2.4-9.8-30.1-14.2-42.1-87.6c-0.8-2.5-2-4.9-3.6-7c-2.1-2.7-5.5-2.7-8.1-0.4c-1.1,0.9-2,2-2.7,3.2c-7.9,13.6-11.7,28.1-9.6,43.8
	c2.1,16.4,9.1,30.8,19.9,43.3c7.5,8.8,14.7,17.8,21.9,26.8c7.7,9.5,12.9,20.9,14.9,33c0.6,4.5,1,9,1,13.6c0.1,2.9-1.6,4.6-4.4,5.5
	c-4.5,1.5-9,0.9-13.6,0.8c-0.6-0.1-1.3-0.1-1.9-0.3c-6.3-0.8-8.3-2.8-9.1-9.2c-1-8.3-1.9-16.6-3.1-24.9c-0.7-4.6-1.9-9.2-2.8-13.8
	c-0.6-2.9-2-5-4.9-5.7c-3.3-0.8-6.5,0.1-8.4,3.1c-2,3.1-3.7,6.3-5.3,9.6c-4.1,8.5-6.7,17.6-7.5,27c-0.3,2.6-0.8,5.3-1.4,7.8
	c-0.6,2.7-2.6,4.8-5.3,5.5c-5,1.7-10.5,1.2-15.1-1.3c-2.4-1.2-3.2-3.4-4.3-5.6c-1.6-3.4-3.5-6.7-5.8-9.8c-1.8-2-4-3.5-6.4-4.5
	c-9.7-4.3-19.7-8.2-29.4-12.6c-20.7-9.5-40.6-20.5-59-34c-6.5-4.8-13-9.8-19.1-15.1c-10.4-9.7-18.2-27.2-32.7-42.8
	c-11.9-13.6-22.9-27.9-33.2-42.7c-7.4-10.8-14.1-22.1-20.1-33.7C17.6,78.4,9.8,61.4,3.9,43.7c-1.7-4.9-3-10-3.7-15.1
	c-1.3-10.3,5.7-18,16.1-18.1c15-0.1,30,0,45,0L61.3,10.1z M265.8,52.9h-0.2c0.2,3.5,0.5,7.1,0.7,10.6c0.5,9.8,4.1,19.3,10.3,26.9
	c6.4,7.9,13,15.6,20,23c9.9,10.3,16.8,23.1,20.1,37.1c1.2,26.8,18,75.2,35,5.1c-1.6-15-6.1-29.1-14.9-41.4
	c-5.3-7.4-11.3-14.4-16.9-21.5c-12.8-16.3-25.5-32.5-38.3-48.8c-0.8-1-1.7-1.9-2.6-2.8c-2.5-2.4-5.4-3.3-8.7-1.9s-4.3,4.1-4.4,7.4
	C265.8,48.6,265.8,50.8,265.8,52.9z M342.7,48.9c-0.1-3.7-1-6.3-2.9-8.4c-2.6-2.7-6.8-2.9-9.6-0.5c-1,1-1.8,2.1-2.3,3.4
	c-2,5.9-3.9,11.8-5.5,17.8c-0.9,2.9-0.9,6.1-0.1,9c1.3,4.4,5.4,6.5,9.5,4.3c1.9-1,3.5-2.4,4.7-4.2C340.3,63.5,341.4,55.8,342.7,48.9
	L342.7,48.9z"/>
<path class="st0" d="M951.9,241.7c0-14,0.1-28,0-42c-0.1-25.2-0.5-50.4-0.5-75.5s0.4-50.3,0.7-75.5c0.1-6.8,0.4-13.7,0.8-20.5
	c0.4-7.3,5-12,10.8-15.6c0.8-0.4,1.7-0.6,2.6-0.5c4.3-0.3,8.6-0.7,12.9-0.7c46.8-0.2,93.6-0.3,140.4-0.4c59.5-0.1,119-0.2,178.6-0.6
	c6.6,0,14.7,6.2,16,11.9c0.5,2.3,0.5,4.8,0,7.1c-1.7,8.9-4.3,17.5-7.8,25.8c-5.4,13.3-10.8,26.6-16.7,39.7
	c-3,6.3-6.4,12.4-10.3,18.2c-11.2,17.7-23.7,34.6-37.3,50.5c-13.1,12.5-26.2,36.7-45.8,54.7c-20.8,16.2-42.6,30.8-66.5,42.1
	c-11.6,5.5-23.4,10.5-35.2,15.5c-6.2,2.6-10.7,6.7-12.9,13.1c-0.4,1.1-0.8,2.1-1.4,3.1c-1.1,2-2.4,3.9-4.7,4.8
	c-4.2,1.8-9.1,1.9-13.3,0.1c-4.2-1.7-5.3-5.5-5.4-9.7c-0.1-5.6,0.1-11.2-0.3-16.8c-1.2-16.2-6.2-31-16.8-43.7
	c-14-16.5-36.1-38.7-39.7-68.6c-1.2-8.2-3.7-16.3-5.6-24.5c-0.6-2.5-2.1-4.7-4.2-6.1c-3-2-5.8-2.1-8.2,0.7c-2.5,2.9-4.7,6-6.6,9.3
	c-7,12.3-7.9,25.4-5.6,39.1c3.6,28.2,29.2,47.5,46.9,75.2c6.5,11,10.4,23.3,11.4,36c0.5,5.8-1.9,8.1-6.4,9.4
	c-5.4,1.4-11.1,1.5-16.6,0.1c-4-1-5.9-3.8-6.4-7.6c-0.2-1.8-0.3-3.5-0.3-5.3c-0.1-9.6-1.1-19.2-3.1-28.7c-0.6-6-7.3-18.6-16.7-6.7
	c-7,8.3-11.3,18.6-12.1,29.4c-0.3,4.2-0.7,8.3-1.3,12.5c-0.7,4.3-3.2,6.6-6.3,6.3s-6.3-4-6.3-7.5c-0.2-11.7-0.4-23.4-0.5-35.1
	C951.8,250.4,952.6,254.6,951.9,241.7z M1073.3,129.8h0.3c0,18.7,0,37.4,0,56.1c-4.2,96,42.7,55.4,72.3-20.6
	c6.9-14.6,13-29.5,18.3-44.7c5.9-17.3,10.2-35.1,12.9-53.2c1-6.2,2.1-12.4,1.2-18.9c-0.8-5.7-3.4-10-8.7-11.9
	c-5.1-1.9-10.4-3.3-15.7-4.4c-15.3-3.2-30.8-5.3-46.5-2.6c-7,1.2-14,2.7-20.8,4.6c-7.2,2-11.4,7-12.2,14.4
	c-0.4,3.9-0.7,7.8-0.8,11.8c-0.2,8.1-0.3,16.3-0.3,24.4C1073.3,99.8,1073.3,114.8,1073.3,129.8z M974.8,55.1h0.3c0,3.7-0.1,7.4,0,11
	c0.3,5.4,1.2,10.6,4.3,15.2c3.3,4.8,6.4,9.8,10.1,14.2c6.3,7.8,13.2,15.1,19.6,22.8s11.8,15.9,14.7,25.6c7,15.4,5.8,86.1,35.2,20.8
	c1.2-7.7,0.4-15.4-1.4-23c-3.6-15.3-11-28.6-21.1-40.4c-7.7-9-15.2-18.1-22.5-27.3c-8.1-10.1-15.9-20.5-23.9-30.6
	c-1.6-2-3.5-3.6-5.8-4.8c-3.9-2-9.4,1.7-9.5,6C974.8,48.2,974.8,51.6,974.8,55.1z M1051.5,48.1c-0.2-1.2-0.5-3.1-0.8-4.9
	c-0.9-4.6-8.6-7-11.8-2.3c-1.3,1.7-2.3,3.6-3.1,5.6c-1.9,5.9-3.4,11.9-5.3,17.9c-1,3.2,0.2,5.8,1.8,8.2c1.2,2,3.6,3.1,5.9,2.8
	c3.3-0.3,5.3-2.4,6.9-4.9C1049.3,63.9,1051,56.6,1051.5,48.1z"/>
<path class="st0" d="M888.7,50c-1,2.7,2.2,15.5-7,19.3c-78.9,31.2-125.3,158.9-147.2,206.2c-2.4,5.7-5.3,11.3-8,16.9
	c-1.3,2.7-3.9,4.6-6.8,4.9c-5.9,0.9-11.9,1-17.8,0.4c-3.8-0.3-6.4-2.4-8.2-5.5c-1.2-2.1-2.3-4.2-3.1-6.5c-1.9-5.3-5.5-8.9-10.4-11.6
	c-32.7-15.4-81.9,5.8-95.9-8.9c-53.6-72.4-111-151.4-148.8-235.7c-2.1-30.9,37.7-18,61.2-22c34.1-9.3,66.1-16.2,88.7,19
	c41.5,62.9,72.4,126.6,115.7,190.4c15.7,28.2,49.6-114.6,56.3-128C785.7,50.6,886.2-65.8,888.7,50z M527.4,126.6
	c17.1,67.3,68.5,60.6,112.5,84.6c14.1,4.5,33.4,49.9,41.8,24.7c-14.3-48.8-76.8-46.6-113.7-73.8C551.4,154.8,540.3,95.4,527.4,126.6
	z M618.8,148.9C604.1,79.8,538.9,84.2,508.4,64c-13-5.5-31.2-43.7-40.6-23.4C480.1,87.1,541,86.4,576.4,111
	C595.7,120.6,605.4,176.6,618.8,148.9L618.8,148.9z M614.2,235.9c2.4-10.2-19.8-22-16.7-1C599.4,242.2,611.9,249.3,614.2,235.9
	L614.2,235.9z M550.6,43.7c0.9-9.8-18-14.3-14.5,1.2C538.7,51.5,549.4,53.4,550.6,43.7z"/>
<path class="st0" d="M507.1,440.7c-50.8-10.4-28.5,79.1-31.8,108.4c-97.6,73.5-1.6-197.7-71.6-207.2c122.1-20.8,56.2,9.5,74.6,70.2
	c5.7,19.7,28.3,12.3,45.1,13.2c43.5,6.5,33.6-67.4,13.3-80.4c-4.7-12.3,44.8-7.7,52.5-8.7c7.4,0.2,14.9,1.1,22.3,1.7
	c1.9,0.2,3.8,0.5,5.6,1c1.8,0.4,3.5,1.1,3.5,3.4c0,2-1.8,2.5-3.2,3.1c-1.6,0.7-3.3,1.3-5,1.8c-5.5,1.7-8.7,5.4-10.2,10.9
	c-17,187.1,17.8,200.8-27.2,201.2c-10.4-0.1-25.1,0-24.7-15.2C563.6,422.9,542.1,443.9,507.1,440.7z"/>
<path class="st0" d="M334.5,409.4c-0.3-5-29.2,19.3-36-42c-1.5-5.7-4.3-11-8.4-15.2c-3.5-3.9-7.8-6.8-13.1-7.3
	c-4.4-0.4-8.7-0.5-13.1-0.2c-9.7,0.8-15.7,7.1-20.5,14.8c-22.9,42.4-6.3,99.3,3.7,153.8c1.7,10,2.3,20.3,3.4,30.5
	c0.3,3.2,0.7,6.4,1.4,9.5c1.1,4.7,4.1,6.7,8.8,5.6c3.1-0.7,6.1-2,8.8-3.7c8.9-5.6,14.8-14,20.2-22.8c6.8-11,10.4-23.1,12.5-35.8
	c2.4-1.7-3.3-27.7,19.2-30.7c8.9-0.4,17.9-0.2,26.8-0.1c4.7,0,8.8,2,12.5,4.8c2.2,1.7,3.5,4.5,3.4,7.3c0.2,8.7-1.7,17.3-5.7,25
	c-6,11.7-12.7,23.1-21.6,33c-6.3,6.7-13.4,12.6-21.2,17.5c-11.3,7.4-23.3,13.8-36.7,16.3c-7.7,1.5-15.7,1.8-23.5,2.4
	c-3.9,0.3-7.9,0.1-11.9,0c-8.9,0-13.5-3.6-15.8-12.2c-1.3-5-2.3-10-3.7-14.9c-2.9-10.3-8.2-19.4-14-28.2
	c-9.3-14.2-17.6-29-25.5-44.1c-1.5-3.5-25-33.4-4.1-85.4c8.1-13.1,17.2-25.5,27.2-37.2c6.9-8,16.2-12.4,25.6-16.5
	c11.2-4.8,23.3-7.3,35.4-7.4c14-0.2,27.7,0.6,41.1,5.5c9.7,3.4,18.7,8.6,26.5,15.3c4.9,4.3,8.1,10,11.1,15.7
	c4.2,7.7,8.4,15.5,12.5,23.2c1.2,2.2,2.2,4.5,3.2,6.8c3,6.8-1.2,14.2-8.7,15.6c-3,0.5-6.1,0.9-9.1,1
	C341.5,409.5,338,409.4,334.5,409.4z"/>
<path class="st0" d="M661.6,343.4c0.5-9.5,81.9-8.7,75.9-0.6c-17.5,25-9.9,55-10.1,84.1c3.1,44.3,2.3,104.5,40.5,120.6
	c73.2,25.3,72.2-180.2,66.6-194.8c-2.3-22.3,27.3-14.1,41.9-15.5c13.6,0.4,25.7-1.2,20,17.2c-7.5,47.2-1.5,94.4-18.8,139.7
	c-38.6,98.4-145.9,103.2-190.2,12.8C660,441.5,680.3,386.1,661.6,343.4z"/>
<path class="st0" d="M1061.4,440.3c11.7,14.1,33.3,17.6,46.9,32.5c30.2,44.1,53.9,104.3-22,83.4c-16.3-19.9-7.2-50.9-22.5-73.8
	c-8.7-18.7-45.2-46.9-52.6-16.4c-13.1,47.4,9.9,81.7-7.3,90.7c-50,15.1-41.1-16-40.8-38c0.4-86.4,6-145.7-9-171
	c-13.2-22.3,114.7-4.9,121.5-12.7c8.3-2,16.5-4.3,25.1-3.9c19.1,0.8,29.4,14,30.9,29.9C1132.4,401.2,1092.6,422.4,1061.4,440.3z
	 M1007.9,387.3c-1.3,68.4,72.7,12.4,62.4-26.7c-6.2-19-40.1-15.6-51.2-11.4C1008.5,358,1009.1,373.4,1007.9,387.3L1007.9,387.3z"/>
</svg>
