<?xml version="1.0" encoding="UTF-8" standalone="no"?>
<svg
   xmlns:dc="http://purl.org/dc/elements/1.1/"
   xmlns:cc="http://creativecommons.org/ns#"
   xmlns:rdf="http://www.w3.org/1999/02/22-rdf-syntax-ns#"
   xmlns:svg="http://www.w3.org/2000/svg"
   xmlns="http://www.w3.org/2000/svg"
   viewBox="0 0 2000 1000"
   height="1000"
   width="2000"
   xml:space="preserve"
   id="svg2"
   version="1.1"><metadata
     id="metadata8"><rdf:RDF><cc:Work
         rdf:about=""><dc:format>image/svg+xml</dc:format><dc:type
           rdf:resource="http://purl.org/dc/dcmitype/StillImage" /></cc:Work></rdf:RDF></metadata><defs
     id="defs6"><clipPath
       id="clipPath18"
       clipPathUnits="userSpaceOnUse"><path
         id="path16"
         d="M 0,750 H 1500 V 0 H 0 Z" /></clipPath></defs><g
     transform="matrix(1.3333333,0,0,-1.3333333,0,1000)"
     id="g10"><g
       id="g12"><g
         clip-path="url(#clipPath18)"
         id="g14"><g
           transform="translate(153.9008,704.2748)"
           id="g20"><path
             id="path22"
             style="fill:#000000;fill-opacity:1;fill-rule:nonzero;stroke:none"
             d="m 0,0 c 0,-0.112 0,-0.224 0,-0.336 -15.004,0 -30.008,0.054 -45.011,-0.019 -10.389,-0.05 -17.418,-7.752 -16.081,-18.072 0.662,-5.11 2.077,-10.189 3.714,-15.095 5.926,-17.749 13.758,-34.696 22.318,-51.307 5.999,-11.642 12.744,-22.848 20.12,-33.675 10.164,-14.921 21.49,-28.939 33.198,-42.654 8.748,-10.248 17.143,-20.7 23.785,-32.528 2.182,-3.887 5.545,-7.306 8.952,-10.268 6.123,-5.324 12.544,-10.335 19.094,-15.13 18.414,-13.483 38.294,-24.492 59.003,-33.989 9.682,-4.44 19.631,-8.293 29.365,-12.624 2.37,-1.055 4.845,-2.564 6.425,-4.54 2.339,-2.926 4.075,-6.379 5.772,-9.757 1.099,-2.186 1.962,-4.413 4.312,-5.576 4.88,-2.414 9.885,-2.966 15.137,-1.267 2.789,0.903 4.643,2.603 5.274,5.45 0.575,2.593 1.142,5.208 1.407,7.845 0.949,9.437 3.278,18.479 7.506,26.982 1.636,3.29 3.313,6.59 5.318,9.658 1.935,2.961 5.073,3.827 8.419,3.062 2.866,-0.656 4.339,-2.81 4.896,-5.685 0.891,-4.6 2.125,-9.145 2.79,-13.774 1.189,-8.276 2.05,-16.598 3.074,-24.898 0.786,-6.383 2.806,-8.409 9.084,-9.21 0.628,-0.08 1.252,-0.243 1.881,-0.26 4.552,-0.123 9.111,-0.726 13.6,0.774 2.757,0.922 4.433,2.659 4.349,5.518 -0.134,4.542 -0.227,9.134 -0.972,13.599 -2.043,12.256 -7.08,23.271 -14.853,32.97 -7.223,9.012 -14.409,18.062 -21.913,26.838 -10.772,12.596 -17.721,26.906 -19.855,43.343 -2.037,15.688 1.759,30.247 9.633,43.821 0.689,1.186 1.674,2.256 2.7,3.181 2.528,2.279 5.992,2.251 8.065,-0.433 1.586,-2.054 2.851,-4.514 3.627,-6.991 0.822,-2.624 0.721,-5.522 1.333,-8.231 1.815,-8.037 3.813,-16.032 5.683,-24.057 2.941,-12.624 8.855,-23.71 17.15,-33.604 6.032,-7.194 12.021,-14.425 17.963,-21.693 7.472,-9.138 13.268,-19.198 16.581,-30.603 2.779,-9.57 3.884,-19.368 4.166,-29.294 0.09,-3.159 0.065,-6.371 0.647,-9.455 0.93,-4.928 6.124,-6.577 10.002,-3.419 1.981,1.614 2.937,3.514 2.901,6.24 -0.149,11.449 -0.041,22.9 -0.066,34.351 -0.163,74.919 -0.335,149.837 -0.516,224.756 -0.004,1.65 -0.109,3.304 -0.264,4.947 -0.082,0.866 -0.182,1.824 -0.602,2.55 -3.44,5.93 -8.021,10.564 -15.081,11.727 -3.611,0.596 -7.325,0.8 -10.992,0.793 -24.165,-0.041 -48.33,-0.179 -72.494,-0.304 -6.244,-0.032 -11.431,-2.551 -15.199,-7.423 -1.725,-2.231 -3.022,-5.007 -3.748,-7.739 -0.734,-2.764 -0.645,-5.776 -0.703,-8.684 -0.3,-14.99 -0.604,-29.981 -0.766,-44.973 -0.173,-16.023 -0.152,-32.048 -0.285,-48.072 -0.115,-13.724 -0.312,-27.447 -0.501,-41.17 -0.239,-17.277 -0.4,-34.557 -0.805,-51.83 -0.209,-8.858 -4.289,-16.072 -10.672,-22.015 -1.651,-1.537 -3.686,-2.089 -6.01,-1.242 -6.041,2.203 -11.58,5.174 -16.182,9.773 -4.718,4.714 -8.457,10.158 -11.713,15.908 -5.068,8.95 -9.976,17.993 -14.794,27.081 -7.441,14.036 -14.316,28.344 -20.217,43.105 -7.262,18.167 -12.773,36.906 -18.145,55.688 -3.839,13.424 -7.07,26.976 -8.717,40.88 -0.774,6.538 -1.829,13.048 -2.906,19.545 -1.324,7.981 -4.751,14.728 -12.034,18.912 -1.498,0.86 -3.24,1.625 -4.925,1.764 -5.434,0.447 -10.893,0.749 -16.345,0.8 C 23.919,0.077 11.959,0 0,0 m 305.31,-138.667 c 0,-27.481 0.025,-54.962 -0.012,-82.443 -0.017,-12.589 -0.087,-25.18 -0.269,-37.767 -0.118,-8.121 -0.521,-16.238 -0.707,-24.359 -0.036,-1.54 -0.628,-2.536 -1.68,-3.611 -3.525,-3.607 -7.633,-4.767 -12.506,-3.595 -2.697,0.649 -4.639,2.194 -5.45,4.787 -0.713,2.28 -1.264,4.67 -1.445,7.045 -0.423,5.564 -0.412,11.163 -0.88,16.722 -1.445,17.182 -7.667,32.516 -18.49,45.907 -6.458,7.99 -13.297,15.671 -19.778,23.642 -8.546,10.512 -14.366,22.464 -17.496,35.62 -2.285,9.603 -4.035,19.333 -6.135,28.982 -0.426,1.952 -1.119,3.932 -2.116,5.651 -1.077,1.855 -2.539,1.793 -4.017,0.16 -0.591,-0.653 -1.106,-1.401 -1.53,-2.175 -3.87,-7.07 -6.524,-14.599 -8.31,-22.437 -1.881,-8.252 -0.756,-16.408 1.104,-24.484 3.079,-13.373 9.255,-25.075 18.43,-35.386 7.668,-8.618 14.941,-17.618 21.954,-26.781 8.061,-10.532 13.497,-22.406 15.347,-35.629 0.587,-4.193 1.235,-8.415 0.622,-12.832 -0.903,-6.492 -4.793,-8.827 -9.436,-9.302 -5.889,-0.602 -11.911,-0.512 -17.825,-0.062 -4.918,0.374 -8.109,3.502 -8.926,8.512 -1.058,6.494 -1.978,13.011 -2.888,19.528 -0.859,6.148 -1.559,12.318 -2.479,18.457 -0.26,1.728 -0.859,3.472 -1.64,5.041 -1.005,2.019 -2.715,2.388 -4.346,0.827 -1.533,-1.467 -2.916,-3.215 -3.93,-5.077 -5.21,-9.559 -8.758,-19.666 -9.855,-30.581 -0.304,-3.016 -0.944,-6.02 -1.682,-8.967 -1.292,-5.153 -3.987,-7.403 -9.367,-7.914 -2.901,-0.275 -5.825,-0.389 -8.74,-0.423 -5.278,-0.061 -9.294,2.306 -12.001,6.775 -1.446,2.385 -2.709,4.89 -3.928,7.401 -1.56,3.212 -3.775,5.586 -7.157,7.005 -7.487,3.143 -14.935,6.383 -22.327,9.743 -20.947,9.524 -41.363,20.066 -60.506,32.884 -7.378,4.94 -14.361,10.473 -21.48,15.793 -6.291,4.701 -11.44,10.519 -15.441,17.218 -8.578,14.362 -19.461,26.922 -30.26,39.566 -16.631,19.473 -31.383,40.243 -43.43,62.886 -9.914,18.636 -18.792,37.734 -26.06,57.568 -2.163,5.901 -3.623,11.887 -3.201,18.237 0.126,1.9 -0.171,3.841 0.081,5.716 0.213,1.579 0.59,3.346 1.499,4.585 4.423,6.024 10.22,9.883 17.932,9.996 14.998,0.221 29.999,0.424 44.999,0.434 13.091,0.008 26.183,-0.245 39.274,-0.415 4.19,-0.054 8.399,10e-4 12.566,-0.372 8.877,-0.795 15.078,-5.542 18.612,-13.638 2.714,-6.217 3.674,-12.915 4.479,-19.573 2.721,-22.486 7.44,-44.519 14.664,-65.991 4.777,-14.195 9.532,-28.403 14.643,-42.479 2.246,-6.188 5.197,-12.141 8.103,-18.066 8.836,-18.019 17.459,-36.158 28.045,-53.256 3.641,-5.881 8.002,-11.169 13.719,-15.157 2.175,-1.517 4.609,-2.661 6.931,-3.966 2.06,-1.158 3.952,-0.762 5.587,0.795 4.274,4.068 7.166,8.914 7.785,14.874 0.393,3.779 0.643,7.579 0.788,11.377 0.251,6.595 0.454,13.195 0.529,19.795 0.146,12.844 0.152,25.691 0.284,38.535 0.119,11.689 0.36,23.376 0.489,35.064 0.126,11.444 0.126,22.889 0.275,34.332 0.205,15.624 0.46,31.247 0.778,46.869 0.09,4.433 0.313,8.877 0.802,13.28 0.23,2.07 0.887,4.261 1.947,6.042 4.444,7.465 11.078,11.213 19.855,11.235 20.984,0.054 41.968,0.274 62.952,0.265 7.612,-0.003 15.223,-0.495 22.836,-0.708 2.773,-0.077 5.189,-0.945 7.397,-2.616 5.175,-3.916 9.22,-8.716 11.596,-14.793 0.443,-1.133 0.534,-2.46 0.543,-3.699 0.051,-6.615 0.024,-13.231 0.024,-19.847 v -100.75 z" /></g><g
           transform="translate(1044.5321,472.7028)"
           id="g24"><path
             id="path26"
             style="fill:#000000;fill-opacity:1;fill-rule:nonzero;stroke:none"
             d="m 0,0 c 0.085,0 0.17,0 0.255,-0.001 0,-4.319 -0.045,-8.638 0.008,-12.956 0.145,-11.684 0.316,-23.368 0.51,-35.051 0.059,-3.487 3.262,-7.199 6.317,-7.456 3.114,-0.261 5.606,2.033 6.276,6.301 0.646,4.117 0.98,8.288 1.328,12.445 0.927,11.096 4.919,20.924 12.091,29.434 1.221,1.449 2.554,2.857 4.041,4.019 2.967,2.318 5.523,2.211 8.138,-0.484 1.288,-1.328 2.298,-3.037 3.049,-4.743 0.757,-1.719 1.149,-3.627 1.507,-5.489 1.826,-9.476 3.056,-19.019 3.065,-28.693 0.002,-1.775 0.054,-3.567 0.292,-5.323 0.522,-3.847 2.44,-6.664 6.396,-7.617 5.525,-1.331 11.102,-1.345 16.579,0.128 4.543,1.222 6.894,3.53 6.412,9.358 -1.061,12.809 -4.891,24.83 -11.428,35.954 C 58.105,1.28 49.701,11.471 40.671,21.113 28.915,33.664 20.81,47.904 17.945,65.053 c -2.289,13.695 -1.438,26.834 5.581,39.092 1.878,3.278 4.132,6.398 6.584,9.275 2.333,2.739 5.174,2.732 8.161,0.672 2.196,-1.513 3.608,-3.52 4.208,-6.122 1.88,-8.152 4.325,-16.219 5.552,-24.468 2.574,-17.311 9.138,-32.65 20.537,-45.938 6.444,-7.513 12.843,-15.066 19.198,-22.654 10.577,-12.627 15.635,-27.434 16.791,-43.662 0.396,-5.569 0.171,-11.181 0.307,-16.772 0.102,-4.152 1.234,-7.98 5.418,-9.67 4.36,-1.76 8.911,-1.732 13.339,0.12 2.246,0.938 3.572,2.796 4.676,4.831 0.543,1 1.014,2.054 1.385,3.13 2.221,6.438 6.688,10.489 12.92,13.111 11.817,4.971 23.635,9.973 35.22,15.452 23.878,11.292 45.732,25.861 66.519,42.078 7.172,5.595 13.422,12.005 17.81,20.096 1.145,2.11 2.55,4.121 4.082,5.973 7.929,9.581 15.789,19.224 23.951,28.603 13.793,15.85 26.016,32.846 37.353,50.489 3.769,5.866 7.478,11.868 10.328,18.207 5.88,13.074 11.292,26.365 16.646,39.667 3.363,8.355 6.227,16.918 7.789,25.824 0.404,2.307 0.468,4.842 -0.04,7.109 -1.274,5.687 -9.41,11.935 -15.974,11.891 -59.525,-0.4 -119.052,-0.436 -178.579,-0.578 C 120.9,230.697 74.092,230.603 27.285,230.441 22.978,230.426 18.672,229.989 14.37,229.7 13.501,229.641 12.503,229.593 11.81,229.154 6.023,225.484 1.507,220.813 1.06,213.532 0.641,206.694 0.369,199.84 0.281,192.989 -0.038,167.824 -0.42,142.658 -0.462,117.492 -0.505,92.322 -0.138,67.152 -0.012,41.982 0.057,27.988 0,13.994 0,0 m -4.304,82.767 c 0,42.366 0.06,84.732 -0.087,127.098 -0.016,4.576 1.109,8.585 3.561,12.17 2.061,3.013 4.584,5.758 7.183,8.338 2.102,2.086 4.811,3.232 7.898,3.334 3.677,0.121 7.347,0.492 11.023,0.545 11.824,0.168 23.648,0.227 35.472,0.351 12.455,0.131 24.91,0.396 37.365,0.417 83.069,0.142 166.138,0.234 249.207,0.342 8.229,1.523 18.824,-8.635 19.244,-17.404 0.287,-6.018 -1.132,-11.59 -2.786,-17.169 -5.789,-19.523 -13.523,-38.301 -22.442,-56.57 -6.425,-13.159 -14.882,-25.128 -23.069,-37.227 -9.985,-14.756 -21.769,-28.07 -33.392,-41.519 -5.97,-6.908 -11.625,-14.088 -17.401,-21.163 -0.638,-0.781 -1.244,-1.624 -1.682,-2.527 -4.452,-9.16 -11.597,-15.97 -19.373,-22.215 -23.21,-18.642 -48.593,-33.722 -75.702,-45.932 -9.491,-4.274 -19.055,-8.387 -28.634,-12.459 -4.12,-1.751 -6.831,-4.363 -8.022,-8.905 -1.869,-7.132 -7.206,-13.004 -16.869,-12.329 -2.403,0.168 -4.827,0.251 -7.195,0.649 -5.47,0.917 -7.696,3.262 -8.246,8.836 -0.398,4.032 -0.548,8.093 -0.68,12.145 -0.224,6.851 -0.688,13.64 -2.123,20.393 C 96.177,-5.003 89.749,6.038 81.3,16.082 74.689,23.94 67.862,31.628 61.527,39.703 52.832,50.785 47.626,63.43 45.087,77.347 c -1.771,9.708 -4.47,19.248 -6.856,28.838 -0.445,1.788 -0.774,4.067 -2.955,4.549 -2.432,0.539 -3.613,-1.605 -4.692,-3.239 C 24.921,98.909 20.543,89.903 20.833,79.192 21.386,58.811 28.368,41.194 42.151,26.029 49.821,17.59 56.897,8.572 63.79,-0.527 c 8.425,-11.119 13.694,-23.748 15.428,-37.629 0.574,-4.589 1.471,-9.232 0.528,-13.995 -0.678,-3.423 -2.51,-5.467 -5.567,-6.586 -1.414,-0.517 -2.955,-0.929 -4.445,-0.95 -5.7,-0.08 -11.423,-0.264 -17.098,0.142 -4.343,0.31 -8.504,2.726 -8.942,9.089 -0.383,5.555 -0.914,11.1 -1.44,16.644 -0.681,7.193 -1.292,14.41 -3.787,21.272 -0.598,1.645 -1.341,3.306 -2.358,4.714 -1.534,2.125 -2.943,2.155 -4.6,0.111 -6.416,-7.909 -11.359,-16.512 -12.426,-26.917 -0.606,-5.914 -1.413,-11.808 -2,-17.724 -0.308,-3.103 -2.164,-4.725 -4.814,-5.768 -7.364,-2.9 -14.169,0.264 -16.379,7.715 -0.349,1.178 -0.187,2.522 -0.188,3.789 -0.008,43.129 -0.006,86.258 -0.006,129.387" /></g><g
           transform="translate(981.3668,664.38)"
           id="g28"><path
             id="path30"
             style="fill:#000000;fill-opacity:1;fill-rule:nonzero;stroke:none"
             d="m 0,0 c -0.258,6.23 -0.425,11.81 -0.733,17.382 -0.61,11.062 -4.046,20.832 -12.707,28.359 -3.312,2.879 -6.855,4.157 -11.175,3.516 -8.737,-1.297 -16.992,-4.111 -25.048,-7.654 -14.055,-6.184 -26.736,-14.601 -38.916,-23.827 -1.251,-0.948 -2.298,-2.356 -3.032,-3.763 -3.114,-5.976 -6.137,-12 -9.074,-18.065 -4.001,-8.262 -9.638,-15.153 -16.679,-21.029 -3.98,-3.322 -7.806,-6.883 -11.344,-10.67 -4.773,-5.109 -7.957,-11.158 -8.908,-18.198 -0.577,-4.264 -1.181,-8.535 -1.487,-12.823 -0.43,-6.022 -1.617,-11.787 -4.55,-17.128 -1.04,-1.893 -1.982,-3.842 -2.913,-5.793 -2.964,-6.204 -5.517,-12.509 -6.402,-19.442 -1.056,-8.287 -3.94,-15.908 -8.641,-22.932 -2.444,-3.652 -4.278,-7.782 -5.916,-11.885 -1.975,-4.945 -3.462,-10.086 -5.137,-15.15 -1.26,-3.809 -3.186,-7.182 -6.181,-9.915 -2.465,-2.249 -4.172,-2.457 -6.642,-0.227 -1.583,1.429 -2.989,3.135 -4.16,4.922 -4.593,7.014 -9.196,14.028 -13.547,21.192 -8.968,14.766 -17.683,29.687 -26.692,44.428 -4.304,7.044 -9.286,13.677 -13.519,20.76 -4.818,8.061 -9.01,16.493 -13.707,24.629 -11.429,19.8 -23.139,39.439 -34.456,59.303 -8.8,15.446 -20.372,28.474 -33.528,40.239 -1.381,1.234 -2.859,2 -4.753,2.077 -4.943,0.201 -9.879,0.544 -14.822,0.738 -5.457,0.213 -10.946,0.033 -16.369,0.565 -4.839,0.474 -9.235,-0.03 -13.599,-2.32 -6.867,-3.605 -14.368,-4.879 -22.067,-5.108 -8.252,-0.246 -16.505,-0.445 -24.753,-0.786 -5.955,-0.246 -11.922,-0.494 -17.848,-1.096 -7.834,-0.796 -12.77,-6 -13.643,-13.856 -0.069,-0.625 -0.344,-1.236 -0.359,-1.857 -0.125,-5.479 -0.101,-10.973 2.802,-15.884 10.794,-18.26 21.592,-36.518 32.487,-54.718 15.402,-25.728 30.929,-51.38 46.324,-77.112 6.083,-10.167 12.979,-19.667 20.934,-28.484 5.34,-5.92 10.268,-12.285 14.775,-18.866 6.025,-8.798 11.423,-18.023 17.167,-27.016 4.103,-6.424 8.375,-12.763 14.292,-17.699 5.418,-4.519 11.172,-7.268 18.834,-5.773 7.927,1.547 16.114,2.147 24.207,2.354 11.172,0.284 22.366,-0.083 33.546,-0.375 6.8,-0.177 13.291,-1.765 19.352,-5.055 4.894,-2.656 8.519,-6.278 10.442,-11.595 0.815,-2.252 1.874,-4.456 3.111,-6.507 1.843,-3.056 4.42,-5.138 8.214,-5.481 5.969,-0.538 11.902,-0.539 17.838,0.393 3.134,0.492 5.469,2.012 6.841,4.859 2.698,5.597 5.57,11.126 7.948,16.858 8.91,21.472 18.495,42.634 28.578,63.577 7.995,16.608 16.924,32.717 25.74,48.893 7.076,12.983 15.244,25.194 24.443,36.745 9.757,12.251 20.519,23.579 31.788,34.427 6.983,6.722 14.573,12.668 23.418,16.802 4.364,2.04 8.799,3.934 13.244,5.794 3.68,1.54 6.204,3.807 6.326,8.143 C -0.547,-7.209 -0.202,-3.289 0,0 m -181.789,-167.638 c 1.452,2.515 2.567,4.045 3.271,5.745 1.55,3.747 3.06,7.528 4.287,11.39 2.586,8.139 5.763,15.972 10.405,23.198 3.599,5.604 6.066,11.654 6.815,18.39 1.01,9.094 4.761,17.303 8.617,25.475 3.729,7.903 5.833,16.195 5.777,25.026 -0.016,2.479 0.516,5.089 1.384,7.419 1.81,4.858 3.808,9.672 6.108,14.315 2.477,4.999 6.602,8.697 11.095,11.847 9.309,6.527 15.896,15.21 20.878,25.291 2.137,4.325 4.5,8.539 6.794,12.785 2.828,5.235 6.719,9.547 11.581,12.953 13.996,9.803 28.691,18.249 45.068,23.529 6.337,2.044 12.813,3.045 19.403,3.554 3.058,0.237 5.801,-0.609 8.115,-2.622 C -4.564,44.025 0.555,35.871 2.29,25.84 4.38,13.755 3.843,1.539 3.813,-10.647 3.8,-15.889 1.354,-19.588 -3.286,-21.851 c -4.563,-2.225 -9.134,-4.44 -13.767,-6.514 -8.937,-4 -16.597,-9.819 -23.563,-16.568 -13.332,-12.919 -25.809,-26.608 -37.02,-41.437 -8.073,-10.678 -14.561,-22.296 -21.155,-33.906 -9.862,-17.363 -19.172,-35.013 -27.642,-53.064 -8.516,-18.149 -16.126,-36.723 -24.141,-55.107 -2.232,-5.12 -4.421,-10.262 -6.763,-15.332 -1.627,-3.52 -4.321,-5.936 -8.213,-6.768 -1.855,-0.396 -3.732,-0.921 -5.606,-0.949 -5.706,-0.086 -11.417,-0.019 -17.123,0.108 -4.33,0.097 -7.458,2.465 -9.622,5.976 -1.719,2.791 -3.256,5.746 -4.458,8.792 -1.536,3.895 -4.071,6.526 -7.798,8.407 -7.277,3.673 -14.781,5.822 -23.05,5.546 -10.925,-0.365 -21.868,-0.172 -32.798,-0.439 -8.242,-0.201 -16.489,-0.572 -24.709,-1.195 -6.738,-0.511 -12.075,2.011 -16.889,6.401 -6.251,5.701 -11.147,12.476 -15.682,19.524 -4.123,6.407 -8.075,12.925 -12.024,19.442 -5.617,9.269 -12.13,17.877 -19.541,25.754 -8.951,9.514 -15.872,20.4 -22.547,31.536 -15.085,25.172 -30.501,50.145 -45.543,75.342 -10.806,18.101 -21.32,36.379 -31.773,54.688 -4.385,7.681 -3.757,16.009 -1.157,24.01 2.318,7.133 7.71,11.188 15.339,11.759 6.07,0.454 12.155,0.705 18.233,1.059 11.269,0.656 22.551,1.171 33.801,2.077 3.351,0.27 6.893,1.108 9.852,2.643 4.384,2.274 8.954,2.712 13.635,2.876 7.489,0.263 14.985,0.406 22.479,0.444 4.058,0.02 8.119,-0.257 12.176,-0.451 2.076,-0.099 3.906,-0.812 5.571,-2.15 7.834,-6.299 14.959,-13.327 22.028,-20.464 6.223,-6.281 9.929,-14.082 14.347,-21.457 10.771,-17.979 21.383,-36.054 31.991,-54.129 2.635,-4.489 5.18,-9.047 7.479,-13.714 4.951,-10.051 10.945,-19.42 17.114,-28.771 9.015,-13.666 17.076,-27.959 25.582,-41.962 6.397,-10.531 12.811,-21.052 19.324,-31.512 1.24,-1.991 2.976,-3.674 5.13,-6.282" /></g><g
           transform="translate(615.5305,288.9308)"
           id="g32"><path
             id="path34"
             style="fill:#000000;fill-opacity:1;fill-rule:nonzero;stroke:none"
             d="m 0,0 c 0,-0.109 0,-0.218 -0.001,-0.327 6.481,0 12.964,0.089 19.442,-0.044 2.52,-0.051 5.104,-0.325 7.53,-0.977 6.671,-1.794 10.182,-6.848 11.216,-13.161 1.245,-7.599 1.805,-15.346 2.141,-23.051 0.399,-9.141 0.307,-18.307 0.292,-27.461 -0.005,-2.902 -0.315,-5.821 -0.714,-8.701 -0.749,-5.401 -1.758,-10.765 -2.486,-16.168 -0.901,-6.696 2.967,-10.162 7.926,-11.784 2.142,-0.701 4.471,-1.092 6.724,-1.134 5.576,-0.106 11.334,-0.784 16.695,0.327 9.096,1.885 11.242,6.12 10.864,12.647 -0.345,5.951 -0.603,11.909 -0.761,17.868 -0.174,6.609 -0.299,13.223 -0.258,19.834 0.216,35.092 0.527,70.183 0.712,105.274 0.033,6.308 1.365,12.303 3.067,18.319 1.365,4.828 4.073,8.034 8.879,9.49 1.457,0.441 2.902,0.959 4.289,1.583 1.229,0.552 2.804,0.932 2.814,2.702 0.011,1.923 -1.458,2.543 -2.997,2.899 -1.603,0.37 -3.23,0.717 -4.865,0.859 -6.444,0.56 -12.889,1.34 -19.346,1.476 -12.826,0.271 -25.669,0.329 -38.417,-1.497 -2.118,-0.303 -4.265,-0.811 -6.239,-1.616 -2.428,-0.991 -2.624,-2.486 -0.919,-4.415 0.336,-0.38 0.684,-0.769 1.093,-1.062 5.89,-4.224 8.824,-10.283 10.749,-17.028 2.802,-9.813 2.95,-19.831 2.164,-29.864 C 39.152,29.354 36.982,24.154 33.879,19.404 31.837,16.279 29.177,14.378 25.219,13.989 14.061,12.89 2.888,12.959 -8.293,13.05 c -1.387,0.011 -2.778,0.265 -4.157,0.474 -5.264,0.798 -9.334,3.393 -11.47,8.355 -1.197,2.781 -2.142,5.733 -2.719,8.702 -0.624,3.217 -0.612,6.552 -1.011,9.819 -0.902,7.367 -0.534,14.715 0.729,21.971 1.043,5.984 2.837,11.834 3.976,17.805 1.088,5.704 -1.292,6.944 -5.213,8.774 -1.116,0.521 -2.45,0.729 -3.698,0.79 -4.059,0.196 -8.124,0.368 -12.187,0.349 -9.534,-0.043 -19.068,-0.142 -28.6,-0.343 -3.8,-0.079 -7.598,-0.432 -11.387,-0.771 -1.247,-0.111 -2.583,-0.351 -3.657,-0.938 -0.892,-0.487 -1.983,-1.55 -2.015,-2.395 -0.031,-0.791 1.056,-1.967 1.93,-2.378 1.706,-0.799 3.574,-1.348 5.432,-1.707 5.552,-1.072 9.04,-4.381 10.782,-9.636 1.515,-4.572 3.032,-9.146 4.372,-13.771 0.556,-1.919 0.907,-3.97 0.914,-5.963 0.026,-7.756 -0.126,-15.513 -0.208,-23.27 -0.171,-16.394 -0.377,-32.788 -0.5,-49.182 -0.13,-17.425 -0.135,-34.851 -0.29,-52.275 -0.052,-5.835 -0.211,-11.683 -0.682,-17.496 -0.262,-3.236 0.684,-5.675 2.926,-7.846 2.53,-2.45 5.376,-4.242 8.926,-4.741 5.703,-0.8 11.414,-0.76 17.069,0.251 9.895,1.768 12.32,5.104 11.622,15.166 -0.554,7.966 -1.249,15.941 -1.316,23.918 -0.103,12.192 0.188,24.392 0.512,36.583 0.107,4.036 0.771,8.063 1.29,12.08 0.571,4.428 3.054,7.707 6.531,10.328 1.218,0.917 2.479,1.785 3.632,2.777 1.33,1.145 2.801,1.575 4.546,1.544 C -8.144,-0.05 -4.072,0 0,0 m -70.785,-39.076 c 0,17.808 -0.062,35.616 0.021,53.423 0.057,12.068 0.554,24.139 0.402,36.202 -0.097,7.695 -2.754,14.928 -5.926,21.874 -1.336,2.924 -4.045,4.454 -7.184,5.164 -1.73,0.392 -3.497,0.734 -5.14,1.374 -3.62,1.412 -5.471,4.486 -5.06,8.04 0.391,3.386 2.785,5.609 6.808,6.039 3.654,0.391 7.327,0.737 10.998,0.823 10.164,0.237 20.331,0.434 30.496,0.433 5.197,0 10.393,-0.463 15.589,-0.709 3.815,-0.18 6.807,-2.064 9.118,-4.878 0.963,-1.172 1.566,-2.911 1.696,-4.447 0.432,-5.129 -0.667,-10.105 -2.233,-14.958 -1.812,-5.614 -2.637,-11.351 -2.535,-17.237 0.091,-5.211 0.166,-10.422 0.248,-15.633 0.073,-4.662 1.626,-8.946 3.359,-13.187 1.107,-2.709 3.116,-4.332 5.987,-4.675 3.647,-0.437 7.312,-0.894 10.977,-0.972 7.122,-0.151 14.25,-0.062 21.374,-0.028 1.39,0.006 2.777,0.303 4.167,0.312 5.141,0.036 8.064,2.835 9.996,7.373 3.912,9.187 4.346,18.722 3.257,28.438 -0.268,2.385 -0.813,4.747 -1.354,7.091 -1.638,7.083 -4.452,13.505 -10.372,18.16 -0.793,0.624 -1.487,1.398 -2.133,2.179 -2.909,3.517 -2.311,7.387 1.834,9.464 2.324,1.164 5.02,1.896 7.615,2.148 6.181,0.601 12.399,0.879 18.608,1.142 5.835,0.247 11.685,0.56 17.516,0.394 8.743,-0.249 17.48,-0.806 26.205,-1.43 1.967,-0.141 4.011,-0.83 5.785,-1.73 4.818,-2.444 4.926,-8.565 0.242,-11.35 C 98.065,78.865 96.38,78.13 94.678,77.707 90.293,76.616 87.722,73.855 86.352,69.662 84.244,63.214 83.167,56.605 83.163,49.84 83.141,2.637 83.156,-44.567 83.137,-91.77 c -0.001,-2.359 0.661,-5.381 -0.516,-6.938 -2.403,-3.18 -5.696,-5.898 -9.786,-6.922 -9.285,-2.323 -18.608,-2.37 -27.878,0.145 -1.456,0.395 -2.917,0.983 -4.201,1.767 -4.838,2.956 -8.188,6.76 -7.225,13.024 0.75,4.879 1.225,9.801 1.951,14.685 1.48,9.972 1.423,19.961 0.694,29.986 -0.304,4.178 -0.127,8.388 -0.356,12.573 -0.304,5.564 -0.484,11.162 -1.274,16.665 -1.038,7.229 -6.706,12.275 -13.914,12.9 -10.274,0.89 -20.555,0.723 -30.808,-0.293 -6.326,-0.627 -11.222,-4.86 -12.586,-11.072 -0.838,-3.812 -1.254,-7.75 -1.489,-11.653 -0.404,-6.71 -0.734,-13.438 -0.702,-20.157 0.044,-9.011 0.384,-18.022 0.742,-27.028 0.276,-6.953 0.798,-13.897 1.145,-20.849 0.035,-0.697 -0.219,-1.529 -0.616,-2.109 -3.517,-5.125 -7.908,-9.041 -14.483,-9.342 -6.072,-0.278 -12.158,-0.489 -18.233,-0.403 -5.104,0.073 -9.291,2.495 -12.463,6.419 -0.978,1.21 -1.528,2.895 -1.876,4.452 -0.356,1.587 -0.291,3.284 -0.293,4.933 -0.017,17.303 -0.01,34.607 -0.01,51.91 0.085,10e-4 0.17,10e-4 0.255,10e-4" /></g><g
           transform="translate(465.7696,316.0903)"
           id="g36"><path
             id="path38"
             style="fill:#000000;fill-opacity:1;fill-rule:nonzero;stroke:none"
             d="m 0,0 c 3.053,0 6.112,-0.115 9.158,0.035 2.654,0.13 5.326,0.392 7.933,0.89 6.504,1.242 10.122,7.653 7.538,13.573 -0.864,1.978 -1.756,3.95 -2.767,5.855 -3.573,6.731 -7.2,13.434 -10.813,20.144 -2.657,4.933 -5.45,9.828 -9.676,13.582 -6.718,5.969 -14.472,10.166 -22.939,13.263 -11.568,4.232 -23.497,4.981 -35.626,4.786 -10.678,-0.171 -20.91,-2.257 -30.732,-6.438 -8.23,-3.504 -16.297,-7.36 -22.249,-14.282 -8.704,-10.122 -16.604,-20.861 -23.605,-32.25 -4.088,-6.649 -6.257,-13.852 -6.372,-21.633 -0.153,-10.298 -0.229,-20.599 -0.205,-30.898 0.003,-1.444 0.538,-2.997 1.199,-4.312 2.909,-5.787 5.958,-11.504 8.949,-17.25 6.807,-13.078 14.031,-25.91 22.081,-38.275 4.998,-7.676 9.602,-15.592 12.133,-24.489 1.214,-4.269 2.077,-8.637 3.212,-12.93 1.976,-7.479 6.006,-10.563 13.712,-10.607 3.434,-0.02 6.886,-0.22 10.301,0.042 6.818,0.525 13.708,0.829 20.402,2.097 11.642,2.206 21.986,7.724 31.809,14.168 6.701,4.395 13.013,9.3 18.411,15.294 7.721,8.572 13.492,18.416 18.739,28.602 3.498,6.791 5.137,14.008 4.961,21.664 -0.059,2.601 -0.87,4.747 -2.926,6.319 -3.196,2.443 -6.757,4.126 -10.84,4.172 -7.76,0.086 -15.531,0.271 -23.278,-0.052 -6.79,-0.282 -12.849,-2.5 -14.435,-12.761 -0.716,-4.632 -1.417,-9.267 -2.195,-13.888 -1.846,-10.974 -5.012,-21.499 -10.884,-31.057 -4.677,-7.613 -9.749,-14.94 -17.485,-19.802 -2.316,-1.456 -5.001,-2.554 -7.666,-3.172 -4.044,-0.939 -6.626,0.817 -7.591,4.885 -0.639,2.689 -0.895,5.478 -1.199,8.237 -0.972,8.812 -1.429,17.709 -2.929,26.428 -2.428,14.11 -5.825,28.054 -8.251,42.165 -2.036,11.848 -3.656,23.799 -4.743,35.769 -0.931,10.242 -0.248,20.555 1.438,30.736 1.438,8.679 3.63,17.143 8.353,24.718 4.181,6.706 9.402,12.158 17.818,12.872 3.76,0.319 7.598,0.125 11.371,-0.197 4.666,-0.397 8.366,-2.949 11.402,-6.332 3.428,-3.819 6.135,-8.179 7.289,-13.217 1.753,-7.652 3.33,-15.351 4.728,-23.076 1.445,-7.99 5.074,-11.787 13.136,-13.049 1.375,-0.215 2.78,-0.294 4.173,-0.315 C -6.107,-0.032 -3.053,0 0,0 m -0.154,-3.801 c -3.308,0 -6.616,0.025 -9.924,-0.007 -4.146,-0.039 -7.961,0.969 -11.716,2.813 -4.233,2.08 -6.808,5.257 -7.734,9.739 -1.13,5.461 -1.961,10.984 -3.056,16.453 -1.224,6.113 -3.024,11.996 -6.067,17.545 -7.033,12.827 -24.096,11.906 -31.925,4.487 -5.276,-5 -7.946,-11.4 -10.19,-18.049 -2.575,-7.63 -3.507,-15.554 -3.922,-23.556 -0.151,-2.907 -0.491,-5.814 -0.481,-8.72 0.045,-12.971 1.575,-25.8 4.053,-38.514 2.961,-15.185 6.323,-30.299 8.946,-45.54 1.563,-9.088 2.043,-18.362 3.004,-27.553 0.264,-2.517 0.424,-5.048 0.779,-7.551 0.396,-2.786 1.865,-3.951 4.46,-3.076 2.357,0.795 4.767,1.909 6.68,3.466 9.391,7.643 15.771,17.462 19.961,28.747 3.596,9.688 5.416,19.794 6.959,29.966 0.379,2.503 0.829,5.024 1.572,7.436 1.886,6.12 8.243,10.662 14.648,10.666 8.269,0.006 16.54,0.068 24.808,-0.025 4.32,-0.049 8.551,-0.452 12.353,-3.039 3.492,-2.376 5.567,-5.364 6.038,-9.603 0.998,-8.98 -0.546,-17.494 -4.672,-25.477 -5.079,-9.828 -10.621,-19.364 -17.931,-27.783 -7.591,-8.741 -16.453,-15.864 -26.689,-21.197 -5.732,-2.986 -11.595,-5.786 -17.593,-8.185 -9.204,-3.681 -18.994,-4.37 -28.79,-4.661 -4.321,-0.129 -8.651,-0.069 -12.976,-0.013 -11.09,0.145 -15.565,3.571 -17.595,14.17 -2.948,15.397 -9.707,28.777 -18.462,41.407 -5.654,8.158 -10.852,16.535 -14.815,25.694 -2.568,5.936 -5.581,11.717 -8.851,17.3 -3.79,6.471 -5.286,13.403 -5.418,20.738 -0.092,5.087 0.077,10.18 -0.035,15.266 -0.337,15.279 4.017,28.984 13.341,41.145 3.63,4.735 7.039,9.646 10.398,14.579 9.599,14.095 23.082,22.463 39.178,27.306 8.011,2.41 16.119,3.474 24.407,3.298 7.991,-0.171 16.093,0.127 23.94,-1.098 14.824,-2.314 28.285,-8.102 39.174,-18.862 5.236,-5.173 8.416,-11.73 11.843,-18.102 3.009,-5.592 5.848,-11.278 8.968,-16.806 2.415,-4.281 3.196,-8.795 2.749,-13.587 -0.451,-4.833 -5.062,-9.368 -10.787,-10.366 -2.988,-0.521 -6.052,-0.692 -9.09,-0.821 -3.175,-0.135 -6.36,-0.03 -9.54,-0.03" /></g><g
           transform="translate(749.5521,373.2893)"
           id="g40"><path
             id="path42"
             style="fill:#000000;fill-opacity:1;fill-rule:nonzero;stroke:none"
             d="m 0,0 c 0.796,-1.835 1.493,-3.452 2.198,-5.065 1.625,-3.72 3.215,-7.434 3.444,-11.586 0.461,-8.35 1.002,-16.696 1.504,-25.045 0.77,-12.78 1.458,-25.565 2.324,-38.338 0.832,-12.27 2.261,-24.478 4.813,-36.52 2.22,-10.473 5.172,-20.732 10.765,-29.986 6.383,-10.562 13.613,-20.534 21.909,-29.678 4.276,-4.713 9.026,-8.902 14.99,-11.537 13.047,-5.764 26.459,-9.4 40.933,-8.921 10.741,0.355 21.268,1.401 31.398,5.158 13.836,5.131 25.53,12.794 32.824,26.271 4.407,8.143 9.329,16.039 14.464,23.75 5.084,7.634 8.418,15.856 10.507,24.725 5.225,22.185 6.99,44.779 8.257,67.441 0.538,9.618 0.895,19.253 1.745,28.845 0.489,5.52 1.707,10.987 2.772,16.443 0.86,4.408 0.009,6.4 -4.242,8.011 -1.876,0.712 -3.923,1.336 -5.9,1.359 -11.05,0.133 -22.111,0.319 -33.153,-0.006 -8.848,-0.261 -13.458,-7.627 -11.055,-15.238 1.027,-3.252 1.588,-6.657 2.264,-10.013 1.057,-5.255 1.354,-10.519 0.533,-15.875 -1.171,-7.641 -2.285,-15.302 -3.069,-22.99 -1.194,-11.72 -1.999,-23.48 -3.126,-35.207 -1.347,-14.024 -3.445,-27.936 -7.009,-41.586 -3.236,-12.389 -7.794,-24.121 -16.54,-33.872 -4.667,-5.204 -10.144,-8.334 -17.228,-8.35 -2.418,-0.005 -4.838,0.079 -7.252,-0.019 -5.602,-0.225 -10.412,1.673 -14.815,5.038 -7.53,5.756 -12.159,13.573 -15.724,22.083 -4.746,11.327 -7.115,23.312 -8.335,35.435 -1.432,14.241 -2.263,28.549 -3.092,42.843 -0.521,8.994 -0.634,18.014 -0.789,27.025 -0.121,6.995 -0.133,13.996 0.006,20.991 0.139,6.988 1.671,13.58 6.368,19.094 0.735,0.864 1.344,1.849 1.925,2.83 2.408,4.069 1.444,6.16 -3.282,7.15 C 60.588,4.815 59.825,4.937 59.067,4.962 53.991,5.131 48.914,5.408 43.838,5.387 34.434,5.349 25.032,5.123 15.628,4.995 12.83,4.957 10.027,5.072 7.233,4.945 6.164,4.896 4.919,4.627 4.103,4.003 2.617,2.867 1.39,1.39 0,0 m 60.849,-43.813 c 0,-7.502 -0.318,-15.021 0.067,-22.504 0.794,-15.437 1.648,-30.884 3.077,-46.272 1.198,-12.899 3.839,-25.58 8.98,-37.593 3.51,-8.201 8.369,-15.395 15.838,-20.542 3.215,-2.215 6.765,-3.459 10.734,-3.293 1.016,0.042 2.044,0.093 3.052,-0.008 8.823,-0.886 14.999,3.43 20.17,9.994 3.823,4.853 6.56,10.292 8.845,15.942 4.782,11.829 7.488,24.242 9.187,36.822 1.678,12.425 2.759,24.931 4.055,37.407 1.008,9.698 1.907,19.408 2.926,29.105 0.463,4.407 1.205,8.786 1.631,13.196 0.66,6.825 -1.38,13.321 -2.674,19.904 -0.195,0.993 -0.397,1.992 -0.483,2.997 -0.908,10.625 2.666,13.398 10.583,17.706 0.829,0.451 1.965,0.479 2.956,0.473 12.208,-0.077 24.416,-0.164 36.622,-0.339 1.887,-0.028 3.801,-0.374 5.643,-0.817 3.913,-0.941 6.672,-4.148 6.829,-8.164 0.093,-2.386 0.029,-4.882 -0.569,-7.17 -1.775,-6.802 -2.218,-13.742 -2.663,-20.695 -0.681,-10.624 -1.321,-21.25 -2.021,-31.872 -0.483,-7.337 -0.843,-14.689 -1.597,-22 -1.733,-16.804 -4.364,-33.47 -10.028,-49.457 -1.503,-4.242 -4.084,-8.134 -6.401,-12.051 -4.202,-7.102 -9.11,-13.837 -12.774,-21.197 -8.646,-17.364 -22.695,-27.518 -40.967,-32.629 -6.642,-1.858 -13.34,-3.11 -20.256,-3.089 -7.482,0.023 -14.969,-0.15 -22.447,0.037 -8.517,0.214 -16.449,3.065 -24.233,6.203 -6.87,2.768 -13.356,6.332 -18.667,11.594 -2.87,2.844 -5.499,5.974 -7.936,9.202 -4.668,6.183 -9.109,12.537 -13.668,18.803 -5.481,7.531 -8.459,16.189 -11.111,24.959 -4.349,14.384 -6.721,29.148 -7.87,44.107 -0.641,8.341 -1.08,16.697 -1.549,25.05 -0.547,9.748 -0.957,19.504 -1.569,29.248 -0.309,4.923 -0.756,9.853 -1.484,14.729 -0.406,2.722 -1.488,5.348 -2.324,7.999 -0.342,1.086 -0.808,2.137 -1.273,3.18 -2.467,5.529 1.133,12.817 8.165,13.418 4.799,0.411 9.61,0.869 14.42,0.917 8.007,0.079 16.017,-0.164 24.025,-0.249 3.436,-0.036 6.874,0.063 10.306,-0.045 2.658,-0.083 5.334,-0.228 7.957,-0.632 7.09,-1.093 9.87,-7.606 5.917,-13.677 -0.552,-0.849 -1.13,-1.706 -1.827,-2.433 -4.524,-4.713 -5.93,-10.472 -5.864,-16.797 0.069,-6.489 0.016,-12.978 0.016,-19.467 0.084,0 0.169,0 0.254,0" /></g><g
           transform="translate(1096.2725,289.2886)"
           id="g44"><path
             id="path46"
             style="fill:#000000;fill-opacity:1;fill-rule:nonzero;stroke:none"
             d="m 0,0 c 1.721,1.286 3.39,2.859 5.336,3.925 6.125,3.352 12.334,6.553 18.548,9.739 5.805,2.975 11.455,6.303 15.648,11.316 5.042,6.028 9.589,12.476 14.253,18.814 5.467,7.431 7.883,15.712 7.003,24.997 C 59.477,82.609 50.535,94.045 34.011,94.739 26.559,95.051 19.407,93.055 12.251,91.355 7.775,90.291 3.318,89.691 -1.303,89.71 c -22.899,0.096 -45.798,0.098 -68.696,0.005 -5.576,-0.023 -11.248,0.022 -16.702,-0.945 -7.59,-1.344 -8.57,-4.104 -5.642,-10.187 5.614,-11.664 7.972,-23.885 7.855,-36.841 -0.259,-28.748 -0.057,-57.5 -0.103,-86.251 -0.008,-4.944 -0.343,-9.888 -0.474,-14.833 -0.277,-10.534 -0.429,-21.073 -0.82,-31.603 -0.159,-4.303 1.683,-7.232 5.084,-9.548 2.818,-1.92 5.948,-3.034 9.26,-3.14 4.691,-0.149 9.411,-0.046 14.09,0.317 4.874,0.378 9.014,2.583 12.186,6.349 0.657,0.78 1.246,1.961 1.204,2.929 -0.189,4.428 -0.617,8.844 -0.955,13.265 -0.626,8.206 -1.487,16.403 -1.793,24.621 -0.226,6.072 0.275,12.17 0.451,18.257 0.207,7.194 1.842,14.065 4.686,20.66 2.53,5.866 6.19,7.662 12.52,6.296 4.79,-1.033 9.128,-3.081 13.229,-5.674 10.663,-6.743 17.23,-16.682 21.734,-28.168 4.154,-10.593 5.911,-21.732 7.462,-32.936 0.71,-5.13 1.692,-10.269 3.12,-15.24 1.705,-5.934 6.051,-9.43 12.193,-9.947 6.695,-0.564 13.436,-0.755 20.159,-0.77 3.686,-0.008 7.333,0.858 10.526,2.931 3.576,2.321 6.183,5.266 6.104,9.866 -0.03,1.756 0.085,3.521 -0.055,5.267 -0.688,8.521 -2.146,16.852 -6.179,24.541 -3.423,6.525 -6.721,13.115 -10.198,19.61 -3.898,7.285 -7.687,14.676 -15.182,19.145 -2.615,1.559 -5.045,3.431 -7.669,4.974 C 19.197,-13.286 12.23,-9.355 5.317,-5.33 3.243,-4.122 1.126,-2.9 0,0 m 5.005,-1.154 c 2.353,-1.17 4.244,-2.141 6.161,-3.06 9.165,-4.395 18.299,-8.811 26.138,-15.478 5.79,-4.924 10.485,-10.665 14.043,-17.375 3.509,-6.619 6.969,-13.269 10.678,-19.775 4.191,-7.351 6.208,-15.219 6.335,-23.615 0.064,-4.197 0.014,-8.395 0.011,-12.593 -0.005,-6.5 -3.968,-11.677 -10.366,-13.134 -2.702,-0.615 -5.527,-0.947 -8.298,-0.957 -7.238,-0.024 -14.495,-0.073 -21.71,0.401 -7.755,0.508 -14.157,5.875 -16.069,13.51 -1.44,5.752 -2.286,11.671 -3.091,17.558 -1.291,9.442 -2.896,18.79 -6.164,27.789 -5.068,13.957 -13.745,24.758 -27.368,31.162 -9.077,4.266 -13.299,1.838 -15.453,-7.607 -1.255,-5.501 -1.505,-11.305 -1.597,-16.983 -0.173,-10.676 -0.03,-21.363 0.233,-32.039 0.131,-5.308 0.835,-10.602 1.235,-15.907 0.094,-1.255 -0.009,-2.524 0.003,-3.786 0.072,-7.489 -5.598,-12.957 -12.784,-13.624 -6.436,-0.596 -12.929,-0.89 -19.391,-0.806 -7.093,0.091 -12.503,3.815 -16.691,9.325 -0.606,0.796 -0.712,2.125 -0.709,3.207 0.013,6.102 0.15,12.203 0.209,18.304 0.18,18.934 0.349,37.867 0.512,56.801 0.096,11.06 0.108,22.121 0.272,33.18 0.175,11.806 0.506,23.609 0.713,35.414 0.029,1.636 -0.022,3.343 -0.449,4.905 -2.239,8.188 -4.234,16.443 -8.09,24.12 -4.21,8.386 1.371,14.214 8.273,14.904 5.294,0.53 10.633,0.772 15.954,0.824 22.502,0.222 45.005,0.466 67.506,0.392 7.443,-0.024 14.664,0.641 21.79,2.786 8.199,2.468 16.555,2.135 24.904,0.911 C 51,96.245 56.777,90.26 61.308,82.678 64.506,77.326 64.71,71.388 64.659,65.404 64.654,64.897 64.525,64.385 64.569,63.885 65.347,55 62.05,47.527 56.739,40.67 53.553,36.557 50.604,32.263 47.542,28.055 40.153,17.902 30.365,10.936 18.824,6.205 15.195,4.718 11.728,2.823 8.223,1.045 7.237,0.545 6.378,-0.204 5.005,-1.154" /></g><g
           transform="translate(559.3834,87.6114)"
           id="g48"><path
             id="path50"
             style="fill:#000000;fill-opacity:1;fill-rule:nonzero;stroke:none"
             d="m 0,0 c -2.623,1.653 -3.22,3.645 -3.187,5.923 0.057,3.93 2.113,6.726 5.249,8.768 4.513,2.937 9.498,4.809 14.702,6.126 16.88,4.272 33.94,4.034 51.087,2.145 8.822,-0.972 17.654,-1.982 26.509,-2.495 7.885,-0.457 15.743,0.635 23.426,2.394 15.342,3.511 30.633,7.245 45.927,10.962 7.582,1.843 14.724,4.866 21.317,9.011 2.873,1.806 5.617,3.983 7.956,6.435 3.835,4.019 5.565,9.05 5.344,14.629 -0.151,3.819 -3.366,6.806 -7.113,6.898 -4.824,0.12 -9.646,0.324 -14.47,0.403 -2.793,0.046 -5.593,-0.012 -8.384,-0.15 -2.318,-0.115 -3.942,-1.188 -5.026,-3.424 -2.272,-4.682 -4.806,-9.237 -7.22,-13.851 -1.566,-2.995 -3.655,-5.54 -6.655,-7.148 -3.234,-1.734 -6.437,-3.655 -9.876,-4.855 C 128.913,38.05 118.064,34.74 106.869,33.133 94.242,31.321 81.503,32.037 68.856,33.285 56.364,34.517 43.945,36.749 31.37,36.789 16.632,36.837 1.889,36.465 -12.844,36.009 c -3.232,-0.1 -6.537,-1.013 -9.621,-2.088 -11.12,-3.878 -18.171,-12.108 -23.309,-22.325 -1.663,-3.309 -2.377,-6.744 -1.594,-10.317 1.738,-7.922 3.516,-15.842 5.574,-23.685 1.162,-4.429 3.261,-8.484 6.277,-12.059 5.587,-6.624 12.501,-11.466 20.055,-15.527 2.464,-1.324 5.04,-1.727 7.745,-1.212 6.481,1.233 13.005,2.301 19.414,3.84 10.803,2.593 19.135,9.138 26.181,17.427 3.09,3.635 4.488,7.965 3.712,12.773 C 40.477,-10.267 37.998,-3.85 33.445,1.464 29.606,5.945 24.652,8.807 18.473,8.583 14.944,8.456 11.951,6.665 8.958,4.977 5.987,3.302 2.996,1.663 0,0 m -0.015,5.737 c 2.847,-0.426 3.818,0.935 4.981,1.779 4.892,3.552 10.218,5.436 16.372,4.944 5.617,-0.449 10.371,-2.72 14.037,-6.802 6.969,-7.759 10.616,-16.892 10.28,-27.463 -0.087,-2.729 -0.599,-5.355 -2.227,-7.552 -7.182,-9.687 -15.962,-17.628 -27.62,-21.17 -7.715,-2.344 -15.875,-3.303 -23.886,-4.557 -4.362,-0.682 -8.705,0.158 -12.316,2.887 -5.967,4.508 -12.047,8.927 -17.578,13.938 -4.913,4.453 -7.335,10.599 -8.757,17.027 -1.533,6.928 -3.159,13.849 -4.287,20.847 -1.031,6.394 -0.223,12.586 3.428,18.273 3.187,4.964 6.85,9.495 11.276,13.343 5.001,4.346 10.976,6.901 17.484,7.859 4.753,0.7 9.592,0.968 14.402,1.098 10.158,0.274 20.325,0.236 30.484,0.502 12.104,0.317 24.06,-1.163 36.039,-2.543 8.437,-0.972 16.891,-1.928 25.364,-2.426 9.716,-0.57 19.273,1.112 28.599,3.662 8.554,2.34 16.966,5.212 25.406,7.957 5.977,1.944 10.322,5.764 12.885,11.603 1.579,3.598 3.35,7.115 5.11,10.631 0.623,1.243 1.39,2.434 2.229,3.543 1.432,1.893 3.074,2.984 5.792,2.747 8.333,-0.726 16.706,-0.978 25.044,-1.654 6.307,-0.511 9.373,-4.185 9.655,-10.517 0.406,-9.119 -3.213,-16.042 -10.384,-21.645 C 183.463,35.536 173.941,31.9 163.886,29.474 147.6,25.545 131.284,21.725 114.912,18.172 105.687,16.17 96.268,16.039 86.87,16.964 77.282,17.908 67.721,19.175 58.119,19.895 43.625,20.983 29.172,20.921 15.161,16.176 11.053,14.784 7.069,13.079 3.765,10.195 2.486,9.079 1.532,7.59 -0.015,5.737" /></g><g
           transform="translate(389.4911,137.0044)"
           id="g52"><path
             id="path54"
             style="fill:#000000;fill-opacity:1;fill-rule:nonzero;stroke:none"
             d="m 0,0 c 0.001,-0.064 0.001,-0.128 0.002,-0.191 20.458,0.209 40.915,0.522 61.374,0.567 6.375,0.014 10.609,5.167 11.136,10.777 0.454,4.84 -1.928,7.79 -6.767,8.354 -3.521,0.41 -7.072,0.679 -10.615,0.763 -8.509,0.2 -17.02,0.334 -25.531,0.35 -23.268,0.045 -46.536,0.029 -69.804,-0.001 -2.916,-0.004 -5.867,-0.002 -8.737,-0.434 -2.592,-0.391 -5.288,-0.995 -7.593,-2.179 -3.746,-1.924 -5.349,-6.588 -4.304,-10.878 0.985,-4.041 4.129,-6.486 8.621,-6.689 3.419,-0.154 6.839,-0.407 10.26,-0.419 C -27.972,-0.028 -13.986,0 0,0 m 17.427,-3.79 c -12.847,0 -25.694,-0.055 -38.541,0.017 -10.546,0.059 -21.09,0.267 -31.636,0.409 -9.132,0.123 -15.23,8.835 -11.78,17.238 2.365,5.761 6.489,9.641 13.214,9.803 4.185,0.1 8.367,0.39 12.552,0.407 34.463,0.138 68.926,0.238 103.389,0.338 6.712,0.019 11.665,-4.94 11.709,-11.673 0.01,-1.526 0.214,-3.093 -0.062,-4.568 C 75.977,6.61 75.533,4.885 74.593,3.657 72.827,1.349 70.815,-0.84 68.585,-2.692 67.572,-3.533 65.796,-3.739 64.364,-3.746 48.718,-3.816 33.073,-3.79 17.427,-3.79" /></g><g
           transform="translate(1139.6759,137.0049)"
           id="g56"><path
             id="path58"
             style="fill:#000000;fill-opacity:1;fill-rule:nonzero;stroke:none"
             d="m 0,0 0.001,-0.327 c 7.123,0 14.257,0.217 21.367,-0.097 3.248,-0.144 4.902,1.233 6.318,3.743 1.149,2.038 1.546,4.082 0.427,6.165 -1.315,2.445 -2.561,4.995 -4.286,7.137 -2.449,3.04 -5.481,4.792 -9.845,4.548 -8.873,-0.497 -17.78,-0.437 -26.674,-0.522 -15.638,-0.149 -31.278,-0.171 -46.915,-0.369 -11.176,-0.142 -22.349,-0.647 -33.523,-0.662 -4.744,-0.006 -7.514,-2.262 -8.816,-6.346 -2.647,-8.302 0.161,-12.247 8.131,-12.781 C -88.119,0.107 -82.394,0.031 -76.682,0.02 -51.121,-0.026 -25.561,0 0,0 m -38.136,24.425 c 18.572,0 37.143,-0.038 55.714,0.044 2.579,0.012 4.603,-0.643 6.521,-2.395 3.624,-3.311 6.907,-6.786 7.88,-11.817 0.585,-3.022 0.767,-6.026 -0.57,-8.958 -1.1,-2.413 -2.996,-3.769 -5.506,-4.209 -1.742,-0.305 -3.537,-0.429 -5.31,-0.437 -35.859,-0.164 -71.718,-0.313 -107.577,-0.421 -3.549,-0.011 -7.1,0.238 -10.648,0.414 -3.857,0.192 -8.43,4.646 -8.884,8.705 -0.786,7.032 0.731,13.077 7.045,17.327 1.806,1.216 3.504,1.779 5.621,1.772 14.882,-0.048 29.765,-0.025 44.648,-0.025 3.688,0 7.377,0 11.066,0" /></g><g
           transform="translate(435.3487,665.428)"
           id="g60"><path
             id="path62"
             style="fill:#ffffff;fill-opacity:1;fill-rule:nonzero;stroke:none"
             d="m 0,0 c -0.094,3.717 -0.972,6.316 -2.943,8.451 -2.485,2.691 -7.003,2.96 -9.614,0.475 -0.979,-0.932 -1.846,-2.187 -2.269,-3.458 -1.956,-5.879 -3.887,-11.776 -5.518,-17.75 -0.788,-2.886 -1.036,-5.935 -0.125,-8.958 1.342,-4.453 5.4,-6.5 9.517,-4.33 1.814,0.956 3.666,2.495 4.657,4.246 C -2.429,-14.489 -1.321,-6.792 0,0 m -76.889,-3.947 c -0.071,-0.005 -0.141,-0.009 -0.211,-0.014 0.239,-3.536 0.499,-7.072 0.713,-10.61 0.611,-10.06 3.975,-19.153 10.309,-26.924 6.407,-7.861 13.044,-15.559 19.967,-22.967 9.957,-10.652 16.787,-22.946 20.064,-37.069 2.23,-9.613 3.667,-19.408 5.549,-29.105 0.553,-2.847 1.105,-5.762 2.205,-8.419 2.058,-4.968 6.667,-6.029 10.838,-2.768 0.797,0.623 1.574,1.315 2.204,2.101 2.934,3.658 5.909,7.29 8.69,11.063 4.839,6.564 6.365,14.194 5.546,22.04 -1.563,14.98 -6.069,29.103 -14.93,41.453 -5.314,7.406 -11.271,14.348 -16.904,21.526 -12.765,16.268 -25.504,32.557 -38.273,48.823 -0.781,0.996 -1.682,1.907 -2.598,2.785 -2.502,2.401 -5.401,3.358 -8.718,1.951 -3.212,-1.36 -4.305,-4.138 -4.435,-7.381 -0.086,-2.158 -0.016,-4.323 -0.016,-6.485 m -204.559,42.794 c 11.959,0 23.919,0.077 35.878,-0.035 5.451,-0.051 10.91,-0.354 16.344,-0.8 1.685,-0.139 3.428,-0.905 4.925,-1.765 7.283,-4.183 10.71,-10.93 12.034,-18.911 1.077,-6.497 2.132,-13.007 2.906,-19.546 1.647,-13.903 4.878,-27.455 8.717,-40.879 5.372,-18.782 10.883,-37.521 18.145,-55.688 5.901,-14.761 12.776,-29.07 20.217,-43.105 4.818,-9.088 9.727,-18.131 14.795,-27.081 3.255,-5.75 6.994,-11.194 11.712,-15.908 4.602,-4.599 10.141,-7.57 16.182,-9.773 2.324,-0.848 4.359,-0.296 6.01,1.242 6.383,5.943 10.463,13.157 10.672,22.015 0.406,17.273 0.567,34.552 0.805,51.83 0.189,13.723 0.387,27.446 0.501,41.17 0.133,16.023 0.112,32.049 0.285,48.072 0.162,14.992 0.467,29.982 0.766,44.973 0.058,2.907 -0.031,5.92 0.703,8.684 0.726,2.732 2.023,5.508 3.748,7.739 3.768,4.872 8.955,7.391 15.199,7.423 24.165,0.125 48.329,0.263 72.494,0.304 3.667,0.006 7.381,-0.198 10.992,-0.793 7.06,-1.164 11.641,-5.797 15.081,-11.728 0.42,-0.725 0.52,-1.683 0.602,-2.549 0.155,-1.643 0.26,-3.297 0.264,-4.947 0.181,-74.919 0.353,-149.838 0.516,-224.757 0.025,-11.45 -0.083,-22.901 0.067,-34.35 0.035,-2.726 -0.92,-4.626 -2.902,-6.24 -3.878,-3.159 -9.072,-1.509 -10.002,3.419 -0.582,3.084 -0.557,6.296 -0.647,9.455 -0.282,9.926 -1.387,19.723 -4.166,29.293 -3.313,11.406 -9.109,21.466 -16.581,30.604 -5.942,7.268 -11.931,14.499 -17.962,21.692 -8.296,9.895 -14.21,20.98 -17.151,33.605 -1.87,8.024 -3.868,16.02 -5.683,24.057 -0.612,2.709 -0.51,5.607 -1.333,8.231 -0.776,2.477 -2.041,4.937 -3.627,6.991 -2.073,2.684 -5.537,2.711 -8.065,0.433 -1.026,-0.925 -2.011,-1.995 -2.7,-3.181 -7.874,-13.574 -11.67,-28.133 -9.633,-43.822 2.135,-16.437 9.083,-30.746 19.855,-43.343 7.504,-8.775 14.69,-17.826 21.913,-26.838 7.773,-9.698 12.81,-20.713 14.853,-32.969 0.745,-4.465 0.838,-9.058 0.972,-13.599 0.084,-2.859 -1.592,-4.596 -4.349,-5.518 -4.489,-1.501 -9.048,-0.897 -13.6,-0.774 -0.629,0.017 -1.253,0.18 -1.881,0.26 -6.278,0.801 -8.297,2.827 -9.084,9.21 -1.023,8.3 -1.884,16.622 -3.074,24.898 -0.665,4.629 -1.899,9.174 -2.79,13.773 -0.556,2.876 -2.03,5.03 -4.896,5.685 -3.346,0.765 -6.484,-0.1 -8.419,-3.061 -2.005,-3.069 -3.682,-6.368 -5.317,-9.658 -4.228,-8.503 -6.558,-17.545 -7.507,-26.982 -0.265,-2.637 -0.832,-5.253 -1.407,-7.846 -0.631,-2.846 -2.485,-4.546 -5.274,-5.449 -5.251,-1.699 -10.257,-1.148 -15.137,1.267 -2.35,1.163 -3.213,3.39 -4.312,5.576 -1.697,3.377 -3.432,6.831 -5.771,9.757 -1.581,1.976 -4.056,3.485 -6.426,4.54 -9.734,4.331 -19.683,8.184 -29.365,12.624 -20.709,9.497 -40.589,20.506 -59.003,33.989 -6.55,4.795 -12.971,9.806 -19.094,15.13 -3.407,2.961 -6.77,6.381 -8.952,10.268 -6.642,11.828 -15.037,22.28 -23.785,32.528 -11.708,13.715 -23.033,27.733 -33.198,42.654 -7.376,10.827 -14.12,22.033 -20.12,33.675 -8.56,16.611 -16.392,33.558 -22.318,51.307 -1.637,4.906 -3.051,9.985 -3.714,15.095 -1.337,10.32 5.692,18.022 16.081,18.072 15.003,0.072 30.007,0.018 45.011,0.018 0,0.113 0,0.225 0,0.337" /></g><g
           transform="translate(1144.1677,666.2753)"
           id="g64"><path
             id="path66"
             style="fill:#ffffff;fill-opacity:1;fill-rule:nonzero;stroke:none"
             d="m 0,0 c -0.204,1.213 -0.463,3.092 -0.843,4.945 -0.944,4.608 -8.612,7.05 -11.8,2.303 -1.193,-1.777 -2.449,-3.629 -3.095,-5.634 -1.902,-5.91 -3.418,-11.943 -5.278,-17.868 -0.997,-3.18 0.182,-5.773 1.756,-8.243 1.308,-2.051 3.342,-2.981 5.893,-2.748 3.281,0.301 5.275,2.415 6.872,4.898 C -2.264,-15.773 -0.526,-8.42 0,0 m -76.714,-6.933 c 0.086,0 0.172,0 0.258,10e-4 0,-3.684 -0.137,-7.374 0.032,-11.05 0.247,-5.367 1.173,-10.632 4.245,-15.192 3.257,-4.834 6.455,-9.747 10.141,-14.246 6.348,-7.746 13.222,-15.061 19.565,-22.812 6.292,-7.69 11.798,-15.94 14.695,-25.605 3.499,-11.67 6.293,-23.497 7.866,-35.605 0.422,-3.244 1.165,-6.501 2.224,-9.594 1.094,-3.196 3.844,-4.258 7.113,-3.33 2.446,0.694 4.197,2.293 5.66,4.283 4.226,5.749 7.88,11.84 10.781,18.359 0.714,1.607 1.301,3.334 1.571,5.064 1.207,7.744 0.414,15.424 -1.366,22.977 -3.593,15.253 -10.954,28.549 -21.117,40.43 -7.666,8.961 -15.151,18.084 -22.513,27.297 -8.08,10.111 -15.863,20.459 -23.931,30.58 -1.533,1.923 -3.591,3.657 -5.765,4.791 -3.877,2.024 -9.387,-1.657 -9.45,-6.048 -0.048,-3.433 -0.009,-6.867 -0.009,-10.3 m 98.485,-74.764 h 0.254 c 0,-18.688 0.032,-37.376 -0.012,-56.063 -0.025,-10.659 0.349,-21.291 1.228,-31.92 0.597,-7.214 2.465,-13.941 5.942,-20.269 2.988,-5.439 6.107,-6.791 11.937,-4.808 5.605,1.908 10.561,4.93 14.768,9.126 7.928,7.905 13.599,17.388 18.539,27.286 6.803,13.632 13.384,27.379 19.846,41.177 6.836,14.6 13.036,29.481 18.308,44.721 5.984,17.298 10.119,35.078 12.905,53.148 0.958,6.209 2.069,12.444 1.197,18.87 -0.776,5.714 -3.356,9.958 -8.678,11.916 -5.091,1.872 -10.385,3.322 -15.699,4.437 -15.344,3.22 -30.818,5.315 -46.479,2.6 C 48.836,17.312 41.868,15.8 35.028,13.922 27.856,11.952 23.667,6.963 22.844,-0.526 22.416,-4.426 22.146,-8.356 22.057,-12.278 21.872,-20.41 21.804,-28.545 21.782,-36.68 21.743,-51.686 21.771,-66.692 21.771,-81.697 M -99.636,-193.572 c 0,13.994 0.058,27.988 -0.012,41.982 -0.125,25.17 -0.493,50.34 -0.45,75.509 0.043,25.167 0.424,50.333 0.744,75.498 0.087,6.85 0.36,13.704 0.779,20.542 0.446,7.281 4.962,11.952 10.75,15.622 0.693,0.44 1.691,0.488 2.559,0.546 4.303,0.289 8.609,0.727 12.915,0.741 46.807,0.163 93.615,0.256 140.422,0.368 59.527,0.143 119.054,0.179 178.58,0.578 6.563,0.044 14.7,-6.204 15.974,-11.891 0.508,-2.267 0.444,-4.801 0.039,-7.109 -1.561,-8.905 -4.426,-17.468 -7.789,-25.824 -5.354,-13.302 -10.766,-26.592 -16.646,-39.667 -2.85,-6.338 -6.558,-12.341 -10.328,-18.207 -11.337,-17.643 -23.56,-34.639 -37.352,-50.488 -8.162,-9.38 -16.023,-19.023 -23.951,-28.603 -1.533,-1.852 -2.938,-3.863 -4.082,-5.974 -4.389,-8.091 -10.639,-14.501 -17.811,-20.096 -20.786,-16.216 -42.641,-30.785 -66.518,-42.078 -11.586,-5.479 -23.404,-10.481 -35.221,-15.452 -6.232,-2.621 -10.699,-6.672 -12.919,-13.11 -0.371,-1.076 -0.843,-2.131 -1.386,-3.131 -1.104,-2.034 -2.43,-3.892 -4.675,-4.831 -4.429,-1.852 -8.98,-1.88 -13.339,-0.119 -4.185,1.69 -5.317,5.517 -5.418,9.67 -0.137,5.59 0.089,11.202 -0.308,16.772 -1.156,16.228 -6.214,31.034 -16.79,43.662 -6.356,7.588 -12.754,15.141 -19.199,22.653 -11.398,13.288 -17.963,28.628 -20.537,45.939 -1.226,8.249 -3.671,16.316 -5.552,24.468 -0.6,2.601 -2.012,4.608 -4.207,6.122 -2.987,2.06 -5.829,2.066 -8.162,-0.672 -2.451,-2.878 -4.706,-5.997 -6.584,-9.276 -7.018,-12.258 -7.869,-25.397 -5.581,-39.091 2.866,-17.15 10.971,-31.389 22.727,-43.941 9.03,-9.641 17.433,-19.832 24.164,-31.287 6.537,-11.124 10.368,-23.145 11.428,-35.954 0.483,-5.828 -1.869,-8.136 -6.411,-9.357 -5.478,-1.473 -11.055,-1.459 -16.58,-0.129 -3.956,0.953 -5.874,3.77 -6.396,7.618 -0.238,1.755 -0.29,3.547 -0.292,5.323 -0.009,9.674 -1.239,19.216 -3.064,28.692 -0.359,1.863 -0.751,3.77 -1.508,5.49 -0.751,1.705 -1.761,3.415 -3.049,4.742 -2.614,2.695 -5.17,2.802 -8.137,0.485 -1.488,-1.163 -2.82,-2.57 -4.042,-4.019 -7.172,-8.511 -11.163,-18.338 -12.091,-29.434 -0.348,-4.158 -0.682,-8.329 -1.328,-12.446 -0.67,-4.268 -3.162,-6.562 -6.276,-6.3 -3.055,0.256 -6.258,3.969 -6.316,7.455 -0.195,11.683 -0.366,23.367 -0.51,35.051 -0.054,4.318 -0.009,8.638 -0.009,12.957 -0.085,0 -0.17,0 -0.255,0.001" /></g><g
           transform="translate(643.2078,670.7258)"
           id="g68"><path
             id="path70"
             style="fill:#ffffff;fill-opacity:1;fill-rule:nonzero;stroke:none"
             d="m 0,0 c -0.049,5.232 -3.76,9.435 -8.404,9.519 -3.888,0.07 -6.831,-3.191 -6.834,-7.574 -0.002,-3.99 4.485,-9.112 7.967,-8.803 C -3.167,-6.493 0.515,-4.899 0,0 m 63.633,-192.226 c -0.43,2.159 -0.508,4.408 -1.361,6.309 -0.841,1.874 -2.194,3.754 -3.813,4.988 -2.573,1.962 -5.773,2.061 -8.651,0.668 -2.967,-1.436 -3.679,-4.257 -3.484,-7.401 0.318,-5.11 2.819,-8.775 7.16,-11.34 3.416,-2.019 7.386,-0.909 9.1,2.762 0.568,1.216 0.703,2.635 1.049,4.014 m 4.57,87.02 c -0.415,2.366 -0.5,4.852 -1.311,7.073 -1.824,4.992 -3.742,9.984 -6.104,14.736 -4.208,8.471 -9.694,16.179 -16.65,22.56 -11.464,10.517 -24.75,18.084 -39.688,22.627 -8.133,2.473 -16.309,4.809 -24.402,7.406 -11.098,3.562 -21.472,8.63 -29.976,16.733 -5.404,5.15 -10.15,10.983 -15.338,16.369 -2.272,2.359 -4.678,4.741 -7.435,6.447 -4.497,2.781 -9.904,-0.369 -10.101,-5.643 -0.056,-1.487 0.077,-3.119 0.648,-4.462 1.184,-2.788 2.49,-5.577 4.154,-8.097 4.374,-6.622 10.181,-11.932 16.133,-17.113 9.587,-8.346 20.983,-13.19 32.769,-17.342 12.8,-4.511 25.671,-8.836 38.364,-13.633 10.796,-4.081 19.472,-11.198 26.802,-20.093 6.79,-8.241 11.371,-17.686 15.671,-27.328 0.719,-1.611 1.481,-3.293 2.61,-4.611 1.737,-2.026 3.956,-4.252 6.734,-3.603 4.107,0.96 7.552,2.577 7.12,7.974 m -91.386,22.25 c -0.089,-0.025 -0.178,-0.049 -0.267,-0.074 0.469,-2.089 0.726,-4.253 1.44,-6.254 5.146,-14.422 12.393,-27.52 23.9,-37.973 7.292,-6.623 15.064,-12.578 24.238,-16.239 8.117,-3.24 16.497,-5.823 24.769,-8.674 8.756,-3.018 17.645,-5.695 26.249,-9.095 10.037,-3.967 18.794,-10.03 25.9,-18.269 3.482,-4.038 6.76,-8.254 10.302,-12.237 2.181,-2.454 4.575,-4.75 7.074,-6.882 2.738,-2.337 5.843,-1.543 8.561,-0.001 2.404,1.363 2.478,3.926 2.126,6.44 -0.538,3.839 -1.857,7.394 -4.005,10.604 -4.985,7.452 -11.324,13.703 -17.888,19.719 -5.078,4.654 -10.59,8.828 -16.958,11.504 -7.719,3.242 -15.589,6.144 -23.477,8.96 -10.506,3.75 -21.28,6.811 -31.597,11.01 -14.753,6.004 -26.519,15.925 -34.479,29.876 -3.516,6.163 -6.369,12.702 -9.603,19.029 -0.918,1.795 -1.931,3.605 -3.231,5.125 -2.146,2.509 -5.103,2.696 -8.073,1.901 -2.888,-0.774 -4.304,-2.979 -4.801,-5.81 -0.152,-0.871 -0.125,-1.773 -0.18,-2.66 m 361.342,76.61 c -0.202,-3.289 -0.547,-7.208 -0.656,-11.134 -0.122,-4.336 -2.646,-6.603 -6.326,-8.143 -4.445,-1.86 -8.88,-3.754 -13.244,-5.794 -8.845,-4.134 -16.435,-10.08 -23.418,-16.802 -11.269,-10.848 -22.031,-22.175 -31.788,-34.427 -9.199,-11.551 -17.367,-23.762 -24.443,-36.744 -8.816,-16.176 -17.745,-32.286 -25.74,-48.894 -10.083,-20.943 -19.668,-42.105 -28.577,-63.577 -2.379,-5.732 -5.251,-11.261 -7.949,-16.858 -1.372,-2.847 -3.707,-4.367 -6.841,-4.859 -5.936,-0.932 -11.869,-0.931 -17.838,-0.392 -3.794,0.342 -6.371,2.424 -8.214,5.48 -1.237,2.051 -2.296,4.255 -3.111,6.507 -1.923,5.318 -5.548,8.939 -10.442,11.596 -6.061,3.289 -12.552,4.877 -19.352,5.055 -11.18,0.291 -22.374,0.659 -33.546,0.374 -8.093,-0.206 -16.28,-0.807 -24.207,-2.353 -7.662,-1.495 -13.416,1.253 -18.834,5.773 -5.917,4.935 -10.189,11.274 -14.292,17.698 -5.744,8.993 -11.142,18.218 -17.167,27.016 -4.507,6.581 -9.435,12.946 -14.775,18.866 -7.955,8.817 -14.851,18.317 -20.934,28.484 -15.395,25.732 -30.922,51.385 -46.324,77.113 -10.895,18.199 -21.693,36.457 -32.487,54.717 -2.903,4.911 -2.927,10.405 -2.802,15.884 0.015,0.621 0.29,1.232 0.359,1.858 0.874,7.855 5.809,13.059 13.643,13.855 5.926,0.602 11.893,0.85 17.848,1.096 8.248,0.341 16.501,0.54 24.753,0.786 7.699,0.229 15.2,1.504 22.067,5.108 4.364,2.29 8.76,2.795 13.599,2.32 5.423,-0.532 10.912,-0.351 16.369,-0.565 4.943,-0.193 9.879,-0.537 14.822,-0.738 1.894,-0.076 3.373,-0.843 4.753,-2.077 C 26.221,28.118 37.793,15.09 46.593,-0.356 57.91,-20.219 69.62,-39.859 81.049,-59.659 c 4.697,-8.136 8.889,-16.568 13.707,-24.629 4.233,-7.083 9.215,-13.716 13.519,-20.76 9.009,-14.741 17.724,-29.661 26.692,-44.428 4.351,-7.164 8.954,-14.178 13.547,-21.192 1.171,-1.787 2.577,-3.493 4.16,-4.922 2.47,-2.229 4.177,-2.022 6.642,0.227 2.995,2.733 4.921,6.106 6.181,9.915 1.675,5.064 3.162,10.205 5.137,15.15 1.638,4.103 3.472,8.233 5.916,11.885 4.701,7.025 7.585,14.646 8.641,22.932 0.885,6.933 3.438,13.238 6.402,19.443 0.931,1.95 1.873,3.899 2.913,5.792 2.933,5.341 4.12,11.106 4.55,17.128 0.306,4.288 0.91,8.559 1.487,12.824 0.951,7.039 4.135,13.088 8.908,18.198 3.538,3.786 7.364,7.347 11.344,10.669 7.041,5.876 12.678,12.767 16.679,21.029 2.937,6.065 5.961,12.09 9.075,18.065 0.733,1.407 1.78,2.815 3.031,3.763 12.18,9.226 24.861,17.644 38.917,23.827 8.055,3.544 16.31,6.357 25.047,7.654 4.32,0.642 7.863,-0.637 11.175,-3.515 8.661,-7.528 12.097,-17.298 12.707,-28.36 0.308,-5.572 0.475,-11.152 0.733,-17.382" /></g><g
           transform="translate(615.5305,288.9308)"
           id="g72"><path
             id="path74"
             style="fill:#ffffff;fill-opacity:1;fill-rule:nonzero;stroke:none"
             d="m 0,0 c -4.072,0 -8.144,-0.05 -12.214,0.024 -1.745,0.031 -3.216,-0.399 -4.546,-1.544 -1.153,-0.992 -2.414,-1.86 -3.632,-2.777 -3.477,-2.621 -5.96,-5.9 -6.531,-10.328 -0.519,-4.017 -1.183,-8.044 -1.29,-12.08 -0.324,-12.191 -0.615,-24.391 -0.512,-36.583 0.067,-7.977 0.762,-15.952 1.316,-23.918 0.698,-10.062 -1.727,-13.398 -11.622,-15.166 -5.655,-1.011 -11.366,-1.051 -17.069,-0.251 -3.55,0.499 -6.396,2.291 -8.926,4.741 -2.242,2.171 -3.188,4.61 -2.926,7.846 0.471,5.813 0.63,11.661 0.682,17.496 0.155,17.424 0.16,34.85 0.29,52.275 0.123,16.394 0.329,32.788 0.5,49.182 0.082,7.757 0.234,15.514 0.208,23.27 -0.007,1.993 -0.358,4.044 -0.914,5.963 -1.34,4.625 -2.857,9.199 -4.372,13.771 -1.742,5.255 -5.23,8.564 -10.782,9.636 -1.858,0.359 -3.726,0.908 -5.432,1.707 -0.874,0.411 -1.961,1.587 -1.93,2.378 0.032,0.845 1.123,1.908 2.015,2.395 1.074,0.587 2.41,0.827 3.657,0.938 3.789,0.339 7.587,0.692 11.387,0.771 9.532,0.201 19.066,0.3 28.6,0.343 4.063,0.019 8.128,-0.153 12.187,-0.349 1.248,-0.061 2.582,-0.269 3.698,-0.79 3.921,-1.83 6.301,-3.07 5.213,-8.774 -1.139,-5.971 -2.933,-11.821 -3.976,-17.805 -1.263,-7.256 -1.631,-14.604 -0.729,-21.971 0.399,-3.267 0.387,-6.602 1.011,-9.819 0.577,-2.969 1.522,-5.921 2.719,-8.702 2.136,-4.962 6.206,-7.557 11.47,-8.355 1.379,-0.209 2.77,-0.463 4.157,-0.474 11.181,-0.091 22.354,-0.16 33.512,0.939 3.958,0.389 6.618,2.29 8.66,5.415 3.103,4.75 5.273,9.95 5.715,15.584 0.786,10.033 0.638,20.051 -2.164,29.864 -1.925,6.745 -4.859,12.804 -10.749,17.028 -0.409,0.293 -0.757,0.682 -1.093,1.062 -1.705,1.929 -1.509,3.424 0.919,4.415 1.974,0.805 4.121,1.313 6.239,1.616 12.748,1.826 25.591,1.768 38.417,1.497 6.457,-0.136 12.902,-0.916 19.346,-1.476 1.635,-0.142 3.262,-0.489 4.865,-0.859 1.539,-0.356 3.008,-0.976 2.997,-2.899 -0.01,-1.77 -1.585,-2.15 -2.814,-2.702 C 94.17,81.91 92.725,81.392 91.268,80.951 86.462,79.495 83.754,76.289 82.389,71.461 80.687,65.445 79.355,59.45 79.322,53.142 79.137,18.051 78.826,-17.04 78.61,-52.132 c -0.041,-6.611 0.084,-13.225 0.258,-19.834 0.158,-5.959 0.416,-11.917 0.761,-17.868 0.378,-6.527 -1.768,-10.762 -10.864,-12.647 -5.361,-1.111 -11.119,-0.433 -16.695,-0.327 -2.253,0.042 -4.582,0.433 -6.724,1.134 -4.959,1.622 -8.827,5.088 -7.926,11.784 0.728,5.403 1.737,10.767 2.486,16.168 0.399,2.88 0.709,5.799 0.714,8.701 0.015,9.154 0.107,18.32 -0.292,27.461 -0.336,7.705 -0.896,15.452 -2.141,23.051 -1.034,6.313 -4.545,11.367 -11.216,13.161 -2.426,0.652 -5.01,0.926 -7.53,0.977 C 12.963,-0.238 6.48,-0.327 -0.001,-0.327 0,-0.218 0,-0.109 0,0" /></g><g
           transform="translate(465.7696,316.0902)"
           id="g76"><path
             id="path78"
             style="fill:#ffffff;fill-opacity:1;fill-rule:nonzero;stroke:none"
             d="m 0,0 c -3.053,0 -6.107,-0.032 -9.16,0.014 -1.393,0.021 -2.798,0.1 -4.173,0.315 -8.062,1.262 -11.691,5.06 -13.136,13.049 -1.398,7.725 -2.975,15.424 -4.728,23.076 -1.154,5.038 -3.861,9.398 -7.289,13.217 -3.036,3.383 -6.736,5.935 -11.402,6.332 -3.773,0.322 -7.611,0.516 -11.371,0.197 -8.416,-0.714 -13.637,-6.166 -17.818,-12.871 -4.723,-7.576 -6.915,-16.04 -8.353,-24.719 -1.686,-10.18 -2.369,-20.493 -1.438,-30.736 1.087,-11.97 2.707,-23.921 4.743,-35.769 2.426,-14.111 5.823,-28.054 8.251,-42.165 1.5,-8.719 1.957,-17.616 2.929,-26.428 0.304,-2.758 0.56,-5.548 1.199,-8.237 0.965,-4.068 3.547,-5.824 7.591,-4.885 2.665,0.618 5.35,1.716 7.666,3.172 7.736,4.862 12.808,12.189 17.485,19.802 5.872,9.558 9.038,20.083 10.884,31.057 0.778,4.622 1.479,9.256 2.195,13.888 1.586,10.261 7.645,12.479 14.435,12.761 7.747,0.323 15.518,0.138 23.278,0.052 4.083,-0.046 7.644,-1.729 10.84,-4.172 2.056,-1.571 2.867,-3.718 2.926,-6.319 0.176,-7.656 -1.463,-14.873 -4.961,-21.663 -5.247,-10.187 -11.018,-20.031 -18.739,-28.603 -5.398,-5.994 -11.71,-10.899 -18.411,-15.294 -9.823,-6.444 -20.167,-11.962 -31.809,-14.168 -6.694,-1.268 -13.584,-1.572 -20.402,-2.097 -3.415,-0.262 -6.867,-0.062 -10.301,-0.042 -7.706,0.044 -11.736,3.128 -13.712,10.607 -1.135,4.294 -1.998,8.661 -3.212,12.93 -2.531,8.897 -7.135,16.813 -12.133,24.489 -8.05,12.365 -15.274,25.197 -22.081,38.275 -2.991,5.746 -6.04,11.463 -8.949,17.25 -0.661,1.316 -1.196,2.868 -1.199,4.312 -0.024,10.299 0.052,20.6 0.205,30.898 0.115,7.781 2.284,14.984 6.372,21.633 7.001,11.389 14.901,22.128 23.605,32.25 5.952,6.922 14.019,10.778 22.249,14.282 9.822,4.181 20.054,6.267 30.732,6.438 12.129,0.195 24.058,-0.554 35.626,-4.786 8.467,-3.097 16.221,-7.294 22.939,-13.263 4.226,-3.754 7.019,-8.649 9.676,-13.582 3.613,-6.71 7.24,-13.413 10.813,-20.144 1.011,-1.905 1.903,-3.877 2.767,-5.855 C 27.213,8.578 23.595,2.167 17.091,0.925 14.484,0.427 11.812,0.165 9.158,0.035 6.112,-0.115 3.053,0 0,0" /></g><g
           transform="translate(749.5521,373.2893)"
           id="g80"><path
             id="path82"
             style="fill:#ffffff;fill-opacity:1;fill-rule:nonzero;stroke:none"
             d="m 0,0 c 1.39,1.39 2.617,2.867 4.103,4.003 0.816,0.624 2.061,0.893 3.13,0.942 2.794,0.127 5.597,0.012 8.395,0.05 9.404,0.128 18.806,0.354 28.21,0.392 5.076,0.021 10.153,-0.256 15.229,-0.425 0.758,-0.025 1.521,-0.147 2.265,-0.302 4.726,-0.99 5.69,-3.081 3.282,-7.15 -0.581,-0.981 -1.19,-1.966 -1.925,-2.83 -4.697,-5.514 -6.229,-12.106 -6.368,-19.094 -0.139,-6.995 -0.127,-13.996 -0.006,-20.991 0.155,-9.011 0.268,-18.031 0.789,-27.025 0.829,-14.294 1.66,-28.602 3.092,-42.843 1.22,-12.123 3.589,-24.108 8.335,-35.435 3.565,-8.51 8.194,-16.327 15.724,-22.083 4.403,-3.365 9.213,-5.263 14.815,-5.038 2.414,0.098 4.834,0.014 7.252,0.019 7.084,0.016 12.561,3.146 17.228,8.35 8.746,9.751 13.304,21.483 16.54,33.872 3.564,13.65 5.662,27.562 7.009,41.586 1.127,11.727 1.932,23.487 3.126,35.207 0.784,7.688 1.898,15.349 3.069,22.99 0.821,5.356 0.524,10.62 -0.533,15.875 -0.676,3.356 -1.237,6.761 -2.264,10.013 -2.403,7.611 2.207,14.977 11.055,15.238 11.042,0.325 22.103,0.139 33.153,0.006 1.977,-0.023 4.024,-0.647 5.9,-1.359 4.251,-1.611 5.102,-3.603 4.242,-8.011 -1.065,-5.456 -2.283,-10.923 -2.772,-16.443 -0.85,-9.592 -1.207,-19.227 -1.745,-28.845 -1.267,-22.662 -3.032,-45.256 -8.257,-67.441 -2.089,-8.869 -5.423,-17.091 -10.507,-24.725 -5.135,-7.711 -10.057,-15.607 -14.464,-23.75 -7.294,-13.477 -18.988,-21.14 -32.824,-26.271 -10.13,-3.757 -20.657,-4.803 -31.398,-5.158 -14.474,-0.479 -27.886,3.157 -40.933,8.921 -5.964,2.635 -10.714,6.824 -14.99,11.537 -8.296,9.144 -15.526,19.116 -21.909,29.678 -5.593,9.254 -8.545,19.513 -10.765,29.986 -2.552,12.042 -3.981,24.25 -4.813,36.52 -0.866,12.773 -1.554,25.558 -2.324,38.338 -0.502,8.349 -1.043,16.695 -1.504,25.045 C 5.413,-12.499 3.823,-8.785 2.198,-5.065 1.493,-3.452 0.796,-1.835 0,0" /></g><g
           transform="translate(1049.8704,335.2161)"
           id="g84"><path
             id="path86"
             style="fill:#ffffff;fill-opacity:1;fill-rule:nonzero;stroke:none"
             d="m 0,0 c 0.075,-1.578 0.132,-3.736 0.288,-5.887 0.489,-6.71 2.503,-12.915 6.243,-18.534 2.277,-3.42 5.306,-4.993 9.448,-3.875 0.855,0.231 1.752,0.327 2.586,0.611 18.748,6.405 31.496,18.562 36.014,38.262 0.771,3.361 0.825,7.165 0.109,10.531 C 53.018,28.96 47.292,33.031 39.767,34.442 32.122,35.876 24.353,35.64 16.612,35.134 10.528,34.736 6.652,31.663 4.408,25.906 1.216,17.718 0.23,9.237 0,0 m 46.402,-45.927 c 1.126,-2.9 3.243,-4.123 5.317,-5.331 6.913,-4.025 13.88,-7.955 20.775,-12.009 2.624,-1.543 5.054,-3.415 7.669,-4.975 7.496,-4.469 11.284,-11.86 15.182,-19.144 3.477,-6.496 6.775,-13.086 10.198,-19.611 4.033,-7.689 5.491,-16.02 6.179,-24.54 0.141,-1.746 0.025,-3.512 0.055,-5.268 0.079,-4.6 -2.527,-7.545 -6.104,-9.866 -3.193,-2.072 -6.84,-2.939 -10.526,-2.93 -6.722,0.015 -13.464,0.206 -20.159,0.769 -6.142,0.518 -10.488,4.014 -12.193,9.947 -1.428,4.972 -2.41,10.111 -3.12,15.241 -1.55,11.203 -3.308,22.342 -7.462,32.936 -4.504,11.486 -11.071,21.425 -21.734,28.167 -4.101,2.593 -8.439,4.641 -13.229,5.675 -6.33,1.366 -9.99,-0.43 -12.52,-6.297 -2.843,-6.594 -4.478,-13.465 -4.686,-20.659 -0.176,-6.087 -0.677,-12.186 -0.451,-18.258 0.306,-8.217 1.167,-16.414 1.794,-24.62 0.337,-4.421 0.765,-8.838 0.954,-13.265 0.042,-0.968 -0.546,-2.149 -1.204,-2.93 -3.171,-3.766 -7.312,-5.97 -12.186,-6.348 -4.679,-0.364 -9.399,-0.467 -14.09,-0.317 -3.312,0.106 -6.442,1.22 -9.26,3.139 -3.401,2.317 -5.243,5.245 -5.084,9.549 0.391,10.53 0.543,21.069 0.821,31.603 0.13,4.945 0.465,9.888 0.473,14.833 0.046,28.75 -0.156,57.502 0.103,86.25 0.117,12.957 -2.241,25.178 -7.855,36.841 -2.928,6.083 -1.948,8.843 5.642,10.188 5.454,0.966 11.126,0.922 16.702,0.944 22.899,0.093 45.797,0.092 68.696,-0.004 4.621,-0.02 9.078,0.581 13.554,1.644 7.156,1.701 14.308,3.697 21.761,3.384 16.523,-0.694 25.465,-12.129 26.776,-25.948 0.88,-9.284 -1.535,-17.565 -7.003,-24.996 -4.664,-6.338 -9.211,-12.786 -14.253,-18.814 -4.193,-5.014 -9.842,-8.341 -15.648,-11.317 -6.214,-3.185 -12.423,-6.386 -18.548,-9.739 -1.946,-1.065 -3.615,-2.639 -5.336,-3.924" /></g><g
           transform="translate(559.3834,87.6114)"
           id="g88"><path
             id="path90"
             style="fill:#ffffff;fill-opacity:1;fill-rule:nonzero;stroke:none"
             d="m 0,0 c 2.996,1.663 5.987,3.302 8.958,4.977 2.993,1.688 5.986,3.479 9.515,3.606 6.179,0.224 11.133,-2.638 14.972,-7.119 4.553,-5.314 7.032,-11.731 8.145,-18.628 0.776,-4.808 -0.622,-9.138 -3.712,-12.773 -7.046,-8.289 -15.378,-14.834 -26.181,-17.427 -6.409,-1.539 -12.933,-2.607 -19.414,-3.84 -2.705,-0.515 -5.281,-0.112 -7.745,1.212 -7.554,4.061 -14.468,8.903 -20.055,15.527 -3.016,3.575 -5.115,7.63 -6.277,12.059 -2.058,7.843 -3.836,15.763 -5.574,23.685 -0.783,3.573 -0.069,7.008 1.594,10.317 5.138,10.217 12.189,18.447 23.309,22.325 3.084,1.075 6.389,1.988 9.621,2.088 14.733,0.456 29.476,0.828 44.214,0.78 12.575,-0.04 24.994,-2.272 37.486,-3.504 12.647,-1.248 25.386,-1.964 38.013,-0.152 11.195,1.607 22.044,4.917 32.717,8.638 3.439,1.2 6.642,3.121 9.876,4.855 3,1.608 5.089,4.153 6.655,7.148 2.414,4.614 4.948,9.169 7.22,13.851 1.084,2.236 2.708,3.309 5.026,3.424 2.791,0.138 5.591,0.196 8.384,0.15 4.824,-0.079 9.646,-0.283 14.47,-0.403 3.747,-0.092 6.962,-3.079 7.113,-6.898 0.221,-5.579 -1.509,-10.61 -5.344,-14.629 -2.339,-2.452 -5.083,-4.629 -7.956,-6.435 -6.593,-4.145 -13.735,-7.168 -21.317,-9.011 C 148.419,30.106 133.128,26.372 117.786,22.861 110.103,21.102 102.245,20.01 94.36,20.467 85.505,20.98 76.673,21.99 67.851,22.962 50.704,24.851 33.644,25.089 16.764,20.817 11.56,19.5 6.575,17.628 2.062,14.691 -1.074,12.649 -3.13,9.853 -3.187,5.923 -3.22,3.645 -2.623,1.653 0,0" /></g><g
           transform="translate(389.4911,137.0044)"
           id="g92"><path
             id="path94"
             style="fill:#ffffff;fill-opacity:1;fill-rule:nonzero;stroke:none"
             d="m 0,0 c -13.986,0 -27.972,-0.028 -41.958,0.02 -3.421,0.012 -6.841,0.265 -10.26,0.419 -4.492,0.203 -7.636,2.648 -8.621,6.689 -1.045,4.29 0.558,8.954 4.304,10.878 2.305,1.184 5.001,1.788 7.593,2.179 2.87,0.432 5.821,0.43 8.737,0.434 23.268,0.03 46.536,0.046 69.804,0.001 8.511,-0.016 17.022,-0.15 25.531,-0.35 3.543,-0.084 7.094,-0.353 10.615,-0.763 4.839,-0.564 7.221,-3.514 6.767,-8.354 C 71.985,5.543 67.751,0.39 61.376,0.376 40.917,0.331 20.46,0.018 0.002,-0.191 0.001,-0.128 0.001,-0.064 0,0" /></g><g
           transform="translate(1139.6759,137.0049)"
           id="g96"><path
             id="path98"
             style="fill:#ffffff;fill-opacity:1;fill-rule:nonzero;stroke:none"
             d="m 0,0 c -25.561,0 -51.121,-0.026 -76.682,0.02 -5.712,0.011 -11.437,0.087 -17.133,0.469 -7.97,0.534 -10.778,4.479 -8.131,12.781 1.302,4.084 4.072,6.34 8.816,6.346 11.174,0.015 22.347,0.52 33.523,0.662 15.637,0.198 31.277,0.22 46.915,0.369 8.894,0.085 17.801,0.025 26.674,0.522 4.364,0.244 7.396,-1.508 9.845,-4.548 1.725,-2.142 2.971,-4.692 4.286,-7.137 1.119,-2.083 0.722,-4.127 -0.427,-6.165 -1.416,-2.51 -3.07,-3.887 -6.318,-3.743 -7.11,0.314 -14.244,0.097 -21.367,0.097 z" /></g><g
           transform="translate(362.0714,662.1011)"
           id="g100"><path
             id="path102"
             style="fill:#000000;fill-opacity:1;fill-rule:nonzero;stroke:none"
             d="m 0,0 c 0.321,-4.004 0.599,-7.795 0.934,-11.581 0.83,-9.376 4.106,-17.803 10.239,-24.96 6.434,-7.511 13.105,-14.818 19.625,-22.257 9.332,-10.646 16.496,-22.66 20.195,-36.293 2.611,-9.622 3.695,-19.655 5.514,-29.495 0.573,-3.102 1.048,-6.263 2.061,-9.229 0.99,-2.899 2.514,-3.132 4.931,-1.306 0.504,0.381 1.019,0.793 1.393,1.293 3.032,4.062 6.227,8.024 8.963,12.28 1.477,2.298 2.566,5.028 3.104,7.709 1.309,6.516 1.335,13.206 -0.182,19.633 -3.396,14.38 -9.401,27.569 -19.197,38.863 -5.983,6.899 -11.966,13.81 -17.657,20.948 C 29.564,-21.404 19.434,-8.232 9.176,4.839 8.085,6.23 6.908,7.617 5.536,8.712 3.394,10.421 1.282,9.642 0.777,6.963 0.335,4.616 0.233,2.204 0,0 m -3.612,-0.62 c 0,2.162 -0.07,4.327 0.017,6.485 0.129,3.243 1.223,6.021 4.434,7.381 3.318,1.406 6.217,0.45 8.719,-1.951 0.915,-0.878 1.816,-1.789 2.598,-2.785 12.768,-16.266 25.507,-32.555 38.272,-48.823 5.633,-7.178 11.59,-14.12 16.904,-21.526 8.861,-12.35 13.368,-26.473 14.93,-41.453 0.819,-7.846 -0.707,-15.476 -5.545,-22.04 -2.782,-3.773 -5.757,-7.405 -8.69,-11.063 -0.63,-0.786 -1.407,-1.478 -2.204,-2.101 -4.172,-3.261 -8.78,-2.201 -10.838,2.768 -1.101,2.657 -1.653,5.572 -2.206,8.419 -1.882,9.697 -3.318,19.492 -5.549,29.105 -3.277,14.123 -10.107,26.417 -20.063,37.069 -6.924,7.408 -13.561,15.106 -19.967,22.967 -6.334,7.771 -9.699,16.864 -10.309,26.924 -0.215,3.538 -0.475,7.073 -0.714,10.61 0.07,0.005 0.141,0.009 0.211,0.014" /></g><g
           transform="translate(430.7344,665.8182)"
           id="g104"><path
             id="path106"
             style="fill:#000000;fill-opacity:1;fill-rule:nonzero;stroke:none"
             d="m 0,0 c 0,0.254 0.005,0.508 -0.001,0.761 -0.072,3.118 -1.058,4.853 -2.914,5.132 -1.584,0.237 -3.169,-0.978 -4.1,-3.794 -1.785,-5.395 -3.363,-10.86 -4.965,-16.314 -0.354,-1.206 -0.684,-2.502 -0.612,-3.732 0.096,-1.642 0.57,-3.305 2.312,-4.075 1.496,-0.661 3.376,0.084 4.622,1.747 0.225,0.301 0.385,0.652 0.56,0.989 C -1.957,-13.239 -0.501,-6.746 0,0 m 4.614,-0.39 c -1.32,-6.792 -2.429,-14.489 -6.295,-21.324 -0.991,-1.752 -2.843,-3.29 -4.657,-4.247 -4.117,-2.169 -8.175,-0.122 -9.517,4.331 -0.911,3.023 -0.663,6.071 0.125,8.958 1.632,5.974 3.562,11.87 5.518,17.749 0.424,1.272 1.291,2.527 2.269,3.458 2.611,2.486 7.129,2.217 9.614,-0.475 C 3.642,5.926 4.52,3.327 4.614,-0.39" /></g><g
           transform="translate(1169.9884,510.896)"
           id="g108"><path
             id="path110"
             style="fill:#000000;fill-opacity:1;fill-rule:nonzero;stroke:none"
             d="m 0,0 c 0.086,-0.006 0.171,-0.013 0.257,-0.019 0.371,-4.93 0.561,-9.881 1.158,-14.784 0.756,-6.206 2.418,-12.202 5.646,-17.631 2.182,-3.669 4.008,-4.284 7.931,-2.728 6.156,2.443 11.105,6.508 15.335,11.559 5.827,6.959 10.623,14.597 14.574,22.719 8.053,16.552 16.058,33.132 23.756,49.85 11.018,23.927 19.553,48.728 24.72,74.596 1.91,9.563 3.577,19.182 3.68,29.017 0.049,4.685 -2.014,7.811 -5.839,9.855 -2.549,1.362 -5.32,2.448 -8.116,3.188 -15.682,4.149 -31.612,6.166 -47.847,4.825 -8.228,-0.679 -16.303,-2.171 -24.206,-4.702 C 4.082,163.515 1.159,158.463 0.823,151.719 0.349,142.215 0.054,132.693 0.035,123.178 -0.047,82.119 0,41.059 0,0 m -4.05,73.682 c 0,15.006 -0.028,30.012 0.012,45.017 0.021,8.135 0.089,16.271 0.274,24.403 0.089,3.922 0.359,7.851 0.787,11.751 0.823,7.489 5.012,12.479 12.184,14.448 6.84,1.879 13.808,3.39 20.799,4.602 15.661,2.715 31.135,0.621 46.479,-2.6 5.314,-1.115 10.608,-2.564 15.7,-4.437 5.322,-1.958 7.902,-6.202 8.677,-11.916 0.873,-6.426 -0.239,-12.661 -1.196,-18.87 C 96.879,118.011 92.745,100.23 86.76,82.932 81.488,67.692 75.288,52.811 68.452,38.212 61.99,24.413 55.41,10.666 48.606,-2.966 43.666,-12.864 37.995,-22.347 30.068,-30.252 25.86,-34.447 20.904,-37.47 15.3,-39.377 9.469,-41.361 6.35,-40.008 3.362,-34.57 c -3.477,6.328 -5.345,13.055 -5.942,20.269 -0.879,10.63 -1.253,21.261 -1.228,31.92 0.044,18.688 0.012,37.375 0.012,56.063 z" /></g><g
           transform="translate(1130.6605,526.0763)"
           id="g112"><path
             id="path114"
             style="fill:#000000;fill-opacity:1;fill-rule:nonzero;stroke:none"
             d="m 0,0 c 3.341,0.251 5.289,2.536 6.752,5.031 3.593,6.13 6.947,12.4 10.319,18.655 0.453,0.841 0.709,1.949 0.623,2.893 -0.566,6.17 -0.622,12.476 -2.023,18.461 -3.286,14.042 -9.616,26.706 -19.119,37.683 -5.311,6.135 -10.757,12.166 -15.818,18.502 -10.297,12.889 -20.368,25.959 -30.552,38.938 -1.17,1.492 -2.32,3.055 -3.741,4.282 -2.4,2.072 -4.527,1.493 -5.505,-1.531 -0.574,-1.775 -0.916,-3.752 -0.796,-5.602 0.384,-5.936 0.915,-11.868 1.614,-17.776 0.571,-4.838 2.15,-9.413 4.93,-13.451 2.303,-3.343 4.658,-6.676 7.286,-9.762 6.908,-8.111 14.182,-15.918 20.926,-24.159 7.202,-8.801 12.97,-18.518 15.97,-29.619 C -5.857,30.415 -3.385,18.117 -1.901,5.627 -1.67,3.683 -1.725,1.557 0,0 m -63.207,133.266 c 0,3.433 -0.039,6.867 0.01,10.3 0.062,4.391 5.572,8.072 9.449,6.048 2.174,-1.135 4.232,-2.868 5.765,-4.791 8.069,-10.121 15.852,-20.469 23.931,-30.58 C -16.69,105.03 -9.205,95.907 -1.539,86.946 8.625,75.065 15.985,61.769 19.578,46.516 21.358,38.963 22.151,31.283 20.944,23.539 20.675,21.809 20.088,20.082 19.373,18.475 16.472,11.956 12.818,5.865 8.592,0.116 7.13,-1.874 5.378,-3.473 2.933,-4.167 c -3.27,-0.928 -6.02,0.134 -7.114,3.33 -1.059,3.093 -1.802,6.35 -2.223,9.594 -1.574,12.108 -4.368,23.935 -7.867,35.605 -2.897,9.665 -8.402,17.915 -14.695,25.605 -6.343,7.751 -13.217,15.066 -19.565,22.812 -3.686,4.499 -6.883,9.412 -10.14,14.246 -3.072,4.56 -3.999,9.825 -4.246,15.192 -0.168,3.676 -0.032,7.366 -0.032,11.05 -0.086,-0.001 -0.172,-0.001 -0.258,-0.001" /></g><g
           transform="translate(1140.0662,665.5352)"
           id="g116"><path
             id="path118"
             style="fill:#000000;fill-opacity:1;fill-rule:nonzero;stroke:none"
             d="m 0,0 c -0.122,0.876 -0.208,2.01 -0.449,3.11 -0.39,1.785 -1.524,3.029 -3.355,3.11 -1.73,0.076 -2.758,-1.18 -3.201,-2.745 -1.82,-6.435 -3.644,-12.87 -5.306,-19.346 -0.323,-1.257 -0.144,-2.755 0.189,-4.042 0.535,-2.071 2.435,-2.765 4.134,-1.411 1.347,1.073 2.591,2.48 3.392,3.996 C -1.786,-12.009 -0.581,-6.216 0,0 m 4.102,0.74 c -0.526,-8.42 -2.264,-15.773 -6.495,-22.347 -1.597,-2.482 -3.591,-4.597 -6.873,-4.897 -2.55,-0.234 -4.584,0.696 -5.892,2.747 -1.574,2.47 -2.754,5.063 -1.756,8.243 1.859,5.925 3.375,11.958 5.278,17.868 0.646,2.005 1.902,3.857 3.095,5.634 C -5.354,12.735 2.314,10.293 3.258,5.685 3.638,3.832 3.897,1.953 4.102,0.74" /></g><g
           transform="translate(769.931,477.6647)"
           id="g120"><path
             id="path122"
             style="fill:#000000;fill-opacity:1;fill-rule:nonzero;stroke:none"
             d="m 0,0 c -0.417,3.51 -1.83,6.718 -3.782,9.733 -7.112,10.983 -16.855,19.202 -27.621,26.351 -8.468,5.624 -18.136,8.376 -27.636,11.528 -10.592,3.515 -21.305,6.709 -31.737,10.646 -11.481,4.332 -21.083,11.606 -29.066,20.935 -7.086,8.279 -12.397,17.61 -16.298,27.78 -0.858,2.236 -1.946,4.432 -3.254,6.435 -1.4,2.145 -2.828,2.08 -4.743,0.55 -2.039,-1.629 -2.249,-3.725 -1.45,-5.824 2.296,-6.037 4.506,-12.136 7.285,-17.956 5.266,-11.026 13.995,-19.256 23.243,-26.846 9.365,-7.687 20.563,-11.974 31.935,-15.683 9.766,-3.186 19.747,-5.742 29.433,-9.145 12.88,-4.523 24.26,-11.574 33.217,-22.097 3.286,-3.861 6.303,-7.954 9.659,-11.75 2.175,-2.459 4.578,-4.786 7.183,-6.773 C -1.524,-3.723 0.041,-2.684 0,0 m -149.906,110.105 c 0.055,0.887 0.027,1.789 0.18,2.66 0.496,2.831 1.913,5.036 4.801,5.81 2.97,0.795 5.927,0.608 8.072,-1.901 1.301,-1.52 2.314,-3.33 3.231,-5.125 3.235,-6.327 6.088,-12.866 9.604,-19.029 7.96,-13.951 19.726,-23.872 34.479,-29.876 10.316,-4.199 21.091,-7.26 31.596,-11.01 7.888,-2.816 15.759,-5.718 23.478,-8.96 6.368,-2.676 11.88,-6.85 16.958,-11.504 C -10.943,25.154 -4.605,18.904 0.381,11.452 2.529,8.241 3.848,4.686 4.386,0.847 4.738,-1.667 4.664,-4.23 2.26,-5.593 c -2.718,-1.542 -5.823,-2.336 -8.561,0.001 -2.499,2.132 -4.893,4.428 -7.074,6.882 -3.542,3.983 -6.82,8.199 -10.302,12.237 -7.106,8.239 -15.863,14.302 -25.901,18.269 -8.603,3.4 -17.492,6.077 -26.248,9.095 -8.272,2.851 -16.652,5.434 -24.769,8.674 -9.174,3.661 -16.947,9.616 -24.238,16.239 -11.507,10.453 -18.754,23.551 -23.9,37.973 -0.714,2.001 -0.971,4.165 -1.44,6.254 0.089,0.025 0.178,0.049 0.267,0.074" /></g><g
           transform="translate(566.1269,676.4022)"
           id="g124"><path
             id="path126"
             style="fill:#000000;fill-opacity:1;fill-rule:nonzero;stroke:none"
             d="m 0,0 c -1.342,-1.168 -1.891,-2.553 -1.295,-4.132 0.928,-2.466 1.594,-5.196 3.135,-7.237 5.681,-7.523 12.374,-14.125 19.59,-20.194 8.841,-7.437 19.358,-11.482 30.154,-14.995 10.129,-3.296 20.291,-6.505 30.335,-10.045 18.331,-6.46 32.642,-17.864 41.976,-35.115 2.781,-5.14 5.356,-10.391 8.058,-15.574 0.998,-1.914 1.987,-3.846 3.17,-5.645 1.011,-1.536 2.892,-1.985 4.369,-1.278 1.489,0.713 1.872,1.96 1.564,3.504 -0.197,0.99 -0.31,2 -0.557,2.977 -4.114,16.259 -12.556,29.794 -25.297,40.74 -9.796,8.416 -20.921,14.309 -33.147,18.222 -9.664,3.093 -19.437,5.862 -29.035,9.145 C 38.702,-34.73 26.227,-26.914 16.322,-15.279 12.87,-11.225 9.385,-7.195 5.788,-3.271 4.269,-1.613 2.524,-0.063 0,0 m 145.284,-110.882 c 0.432,-5.398 -3.014,-7.014 -7.12,-7.974 -2.778,-0.649 -4.997,1.576 -6.734,3.602 -1.129,1.318 -1.891,3 -2.61,4.612 -4.3,9.641 -8.881,19.086 -15.672,27.328 -7.329,8.895 -16.005,16.012 -26.801,20.092 -12.693,4.797 -25.564,9.123 -38.365,13.633 -11.785,4.153 -23.182,8.997 -32.768,17.342 -5.952,5.182 -11.759,10.491 -16.133,17.114 -1.664,2.519 -2.97,5.309 -4.154,8.097 -0.571,1.343 -0.704,2.975 -0.648,4.461 0.197,5.275 5.604,8.424 10.101,5.643 2.757,-1.705 5.162,-4.087 7.435,-6.446 5.188,-5.386 9.934,-11.22 15.338,-16.369 8.504,-8.104 18.878,-13.172 29.976,-16.733 8.093,-2.597 16.269,-4.933 24.402,-7.407 14.938,-4.542 28.224,-12.109 39.688,-22.626 6.956,-6.381 12.442,-14.09 16.65,-22.56 2.361,-4.753 4.28,-9.745 6.104,-14.736 0.811,-2.221 0.896,-4.708 1.311,-7.073" /></g><g
           transform="translate(694.0505,484.405)"
           id="g128"><path
             id="path130"
             style="fill:#000000;fill-opacity:1;fill-rule:nonzero;stroke:none"
             d="M 0,0 C 0.09,-3.577 0.789,-5.933 2.683,-7.816 3.671,-8.799 4.85,-10.069 6.23,-9.15 7.244,-8.476 8.192,-7.064 8.351,-5.872 8.742,-2.951 7.393,-0.414 5.236,1.448 4.328,2.232 2.565,2.839 1.575,2.476 0.65,2.138 0.235,0.409 0,0 m 12.79,-5.905 c -0.346,-1.38 -0.481,-2.798 -1.049,-4.015 -1.713,-3.671 -5.684,-4.78 -9.099,-2.762 -4.342,2.566 -6.843,6.231 -7.16,11.341 -0.196,3.143 0.516,5.965 3.483,7.401 2.878,1.393 6.079,1.293 8.652,-0.668 1.618,-1.234 2.971,-3.115 3.812,-4.988 0.853,-1.901 0.932,-4.15 1.361,-6.309" /></g><g
           transform="translate(632.1235,673.0625)"
           id="g132"><path
             id="path134"
             style="fill:#000000;fill-opacity:1;fill-rule:nonzero;stroke:none"
             d="M 0,0 C 0.02,-2.324 2.277,-4.852 4.435,-4.966 5.85,-5.041 7.021,-3.805 6.967,-2.294 6.874,0.282 4.411,3.048 2.343,2.897 0.906,2.793 -0.014,1.656 0,0 M 11.084,-2.337 C 11.6,-7.236 7.917,-8.83 3.814,-9.194 c -3.483,-0.31 -7.97,4.813 -7.967,8.802 0.003,4.383 2.945,7.644 6.833,7.574 4.644,-0.084 8.355,-4.287 8.404,-9.519" /></g><g
           transform="translate(1053.8616,337.857)"
           id="g136"><path
             id="path138"
             style="fill:#000000;fill-opacity:1;fill-rule:nonzero;stroke:none"
             d="m 0,0 c 0.223,-2.528 0.245,-5.983 0.89,-9.317 0.838,-4.324 1.824,-8.684 3.386,-12.785 1.701,-4.466 4.528,-5.501 9.19,-4.299 0.611,0.158 1.209,0.375 1.804,0.589 14.792,5.309 24.574,15.71 30.427,30.055 1.309,3.208 1.72,6.599 1.486,10.063 -0.451,6.679 -3.015,10.741 -8.375,12.228 -8.505,2.36 -17.182,2.973 -25.971,1.789 C 8.956,27.8 6.369,25.787 4.749,22.246 1.639,15.454 0.225,8.316 0,0 m -3.991,-2.641 c 0.229,9.238 1.216,17.718 4.408,25.906 2.244,5.757 6.12,8.83 12.204,9.228 7.74,0.506 15.51,0.742 23.155,-0.692 7.525,-1.411 13.251,-5.482 14.921,-13.334 0.716,-3.365 0.661,-7.17 -0.109,-10.531 -4.518,-19.7 -17.267,-31.857 -36.014,-38.261 -0.834,-0.285 -1.731,-0.381 -2.586,-0.612 -4.143,-1.118 -7.171,0.455 -9.448,3.875 -3.741,5.619 -5.754,11.824 -6.243,18.534 -0.156,2.151 -0.213,4.309 -0.288,5.887" /></g></g></g></g></svg>